<?xml version="1.0" encoding="utf-8"?>
<!-- Generator: Adobe Illustrator 20.1.0, SVG Export Plug-In . SVG Version: 6.00 Build 0)  -->
<svg version="1.1" id="Layer_1" xmlns="http://www.w3.org/2000/svg" xmlns:xlink="http://www.w3.org/1999/xlink" x="0px" y="0px"
	 viewBox="0 0 19.7 19.7" style="enable-background:new 0 0 19.7 19.7;" xml:space="preserve">
<style type="text/css">
	.st0{fill:#757575;}
</style>
<title>search-outline</title>
<g>
	<path class="st0" d="M15.5,18.3H3.9c-0.4,0-0.7-0.2-0.7-0.6L1.2,9l1.5-0.3l1.8,8h10.5l2-8.3l1.5,0.4l-2.2,8.8
		C16.2,18,15.9,18.3,15.5,18.3z"/>
</g>
<g>
	<g>
		<rect x="2" y="4.3" transform="matrix(0.5111 -0.8595 0.8595 0.5111 -1.4944 7.525)" class="st0" width="7.6" height="1.5"/>
	</g>
	<g>
		<rect x="13.1" y="1.3" transform="matrix(0.8596 -0.511 0.511 0.8596 -0.6456 7.8029)" class="st0" width="1.5" height="7.6"/>
	</g>
</g>
<g>
	<g>
		<rect x="6.2" y="10.8" class="st0" width="1.5" height="4.8"/>
	</g>
	<g>
		<rect x="9.1" y="10.8" class="st0" width="1.5" height="4.8"/>
	</g>
	<g>
		<rect x="12" y="10.8" class="st0" width="1.5" height="4.8"/>
	</g>
</g>
<g>
	<rect x="0" y="7.9" class="st0" width="19.7" height="1.5"/>
</g>
</svg>
