<svg xmlns="http://www.w3.org/2000/svg" viewBox="0 0 389.58 315.03"><defs><style>.cls-1{fill:#231f20;}</style></defs><title>basket</title><g id="Layer_2" data-name="Layer 2"><g id="Layer_2-2" data-name="Layer 2"><path class="cls-1" d="M187.3,184.27h0l0,0,.05-.06.11-.12.22-.24.44-.48c.29-.31.56-.59.78-.78a6.55,6.55,0,0,0,.7-.73c2.54-3.18-.68-6.85-7.2-8.19l-.13,0q.3-3.28.33-6.49a112,112,0,0,0-1.48-20.36c0-.18-.06-.35-.09-.52-.1-.79-.24-1.6-.4-2.41a138.76,138.76,0,0,0-3.91-16.61,169.54,169.54,0,0,0-6.63-18.77q-1.67-4-3.49-7.85l22.15-1.14q22.94-1.28,45.79-2.9Q269.9,94,305,90.55q17.55-1.71,35-3.65l8.74-1,4.37-.5,2.18-.25,1.09-.13L357,85a1.28,1.28,0,0,0,.24,0c1.9-.48,4.18-1,6.88-1.58l5.22-1.05,3-.57,1.57-.3h.05c-.88,3-1.94,6.54-3.25,10.73l-1.16,3.68-.15.48-.23.65-.47,1.32-.93,2.64L364,111.48c-4.78,14.13-9.32,28.33-13.46,42.64-2.11,7.15-4.1,14.32-5.89,21.54s-3.38,14.47-4.47,21.75c-.35,2.36-.63,4.73-.82,7.08-2.07-.24-4.18-.4-6.29-.51-7.27-.37-14.65-.14-22,.21s-14.72.87-22.06,1.37c-14.67.91-29.31,1.8-43.59,1.69-7.13-.07-14.18-.38-21-1.05-3.38-.37-6.68-.83-9.85-1.41l-2.31-.46-2.29-.5c-1.41-.34-3-.77-3.89-1.08-.49-.17-1.07-.35-1.6-.49a24.59,24.59,0,0,0-10-.56,13.21,13.21,0,0,0-7.37,3.36,5.51,5.51,0,0,0-1.33,6.33c1,2.29,3.57,4.58,7.43,5.88l.59.19a61.11,61.11,0,0,0,6.56,1.77c2.06.45,4.1.81,6.13,1.13,4.06.62,8.09,1,12.1,1.26,8,.55,15.91.57,23.76.34,15.67-.46,31.06-1.87,46.16-3.32,7.55-.68,15-1.38,22.36-1.92s14.56-.92,21.26-.77a74.29,74.29,0,0,1,7.59.59,15.08,15.08,0,0,0,.55,1.85,7.74,7.74,0,0,0,1,1.87,4.26,4.26,0,0,0,.62.68,6.27,6.27,0,0,0,.83.61,34.76,34.76,0,0,0,4.47,2.67,13.26,13.26,0,0,0,4.37,1.33,4.46,4.46,0,0,0,1.75-.18,2.88,2.88,0,0,0,1.3-.8,7.13,7.13,0,0,0,1.71-3.58,17.42,17.42,0,0,0,.33-4.79,15.45,15.45,0,0,0-.9-4.57c-.09-.26-.33-.63-.27-.58-.29-.35-.6-.76-.86-1.06l-.69-.65-.89-.7a16,16,0,0,0-2.42-1.37,88.58,88.58,0,0,1,1-8.83c1.09-6.8,2.71-13.87,4.52-20.93s3.86-14.17,6-21.27c4.39-14.18,9.2-28.33,14.25-42.38l3.85-10.52.49-1.31.3-.78.38-.94,1.5-3.71,3-7.23c1-2.37,2-4.69,3.1-7l.41-.87.05-.11a2.48,2.48,0,0,0-.37,0l-.83.1-1.64.19-3.24.37-.2,0c-.06,0,0,0,0,0V82l0-.13,0-.26a4,4,0,0,1-.07-1c0-.35,0-.69.05-1a6,6,0,0,1,.84-2.31l1.28-2.47c.65-1.23,1.31-2.43,2-3.64l-3.45.2a43.75,43.75,0,0,0-6.15-3.21l-21,1.83-17.59,1.47Q321.6,72.82,304,73.87,268.91,76,233.8,76.74q-22.27.53-44.47.45-11.09,0-22.15-.21l-5.53-.1-2.76-.05-3.53,0h-1.58c-.74-1.18-1.49-2.36-2.26-3.53-3.52-5.63-7.33-11.09-11.35-16.42-2-2.67-4.11-5.27-6.21-7.85s-4.29-5.14-6.2-7.61c-1-1.25-1.93-2.47-2.87-3.74l-.35-.48-.41-.63-.81-1.26c-.52-.84-1-1.67-1.5-2.51l-.18-.31-.09-.16,0-.08a3,3,0,0,0-.28.1l-2.38.91-2.31.86-.57.21-.28.1c-.08,0-.23.1-.2,0l-.11-.28q-.43-1.1-.83-2.21c-.53-1.48-1-3-1.44-4.51a30.67,30.67,0,0,1-.77-3.8c-.81.05-1.63.09-2.44.11l-2.37.06a3.71,3.71,0,0,1-.59,0l-.5-.27-1-.56c-.66-.38-1.31-.78-2-1.2l-.48-.32c-.15-.14-.41,0-.6-.08l-1.28,0L96,21.14c-1.71-.09-3.58-.2-5.08-.34a224.19,224.19,0,0,1-37.83-6.29C46.78,12.82,40.49,11,34.18,8.75,31,7.6,27.88,6.44,24.71,5.14l-2.35-1c-1.17-.53-2.39-1-2.39-1C18.44,2.4,16.7,1.63,15.44.94a7.77,7.77,0,0,0-2.3-.83,7.43,7.43,0,0,0-5.2,1,13.06,13.06,0,0,0-4.45,4.6,26.63,26.63,0,0,0-3,7.48,27.4,27.4,0,0,0-.17,9.32c.94,6.61,3.44,12.71,5.54,17.44l.79,1.7a10,10,0,0,0,.85,1.55,21.7,21.7,0,0,0,2,2.62,8.11,8.11,0,0,0,4.26,2.83l.34.08c1.88.43,3.25.58,4.94.83l4.8.56c3.23.38,6.42.69,9.64.93,6.44.45,12.87.86,19.33.91a345.64,345.64,0,0,0,38.69-1.45l1.21-.12.3,0,.15,0s0,0,0,0l0-.05a2,2,0,0,1,.11-.21,3.44,3.44,0,0,1,.36-.48A8,8,0,0,1,95,48.4c.61-.45,1.42-1,2.41-1.69a5.12,5.12,0,0,0,1.42-1.49,3.51,3.51,0,0,0,.34-1.82,4,4,0,0,0-.26-1.24c-.13-.31-.21-.39-.06-.35a14.7,14.7,0,0,1,2,.87,34.3,34.3,0,0,1,3.5,2.09l1.08.74a1.74,1.74,0,0,1,.3.24l.42.49.84,1c1.14,1.33,2.29,2.61,3.44,3.87,2.38,2.54,4.66,4.79,6.86,7.18s4.42,4.79,6.49,7.29q4.66,5.47,9,11.2-2.94.48-5.89,1-6.1,1.12-12.26,2.51a4.77,4.77,0,0,0-1.23.41,4.07,4.07,0,0,0-1.09.73,5.51,5.51,0,0,0-1.51,2.81A9.86,9.86,0,0,0,111,89q.28,1,.52,2l.69,2.28c.12.39.2.75.35,1.17l.58,1.36,1.14,2.75a2.28,2.28,0,0,0,.15.33l.26.37.52.74,1,1.49,2.08,3c3,3.33,6.14,6.72,9,10.29,1.46,1.78,3,3.56,4.45,5.42l1.09,1.41.55.72c.15.2.19.29.3.43l1.06,1.61s.35.52.83,1.32l1.78,2.92c.66,1.06,1.28,2.12,1.72,2.93l.76,1.34c1.57,2.73,3.08,5.86,4.13,8.1a39.35,39.35,0,0,0,1.93,4,47.09,47.09,0,0,0,11.46,14.25,27.16,27.16,0,0,0,5.06,3.39,84.59,84.59,0,0,1-.87,8.54,79.33,79.33,0,0,1-2.2,9.79c-.52,1.63-1.1,3.25-1.75,4.84l-1,2.36Zm165.87,29.93h0S353.17,214.2,353.17,214.21Z"/><path class="cls-1" d="M357.9,270.74c-.26-1.54-.64-3.09-1-4.6a40.12,40.12,0,0,0-1.58-4.46c-.32-.72-.61-1.45-1-2.15l-1.12-2.07a35.94,35.94,0,0,0-12.12-12.52,40.26,40.26,0,0,0-13.17-5.1,46.59,46.59,0,0,0-10.68-.85,52.28,52.28,0,0,0-8.93,1.16,15.85,15.85,0,0,0-1.78-.17,20.78,20.78,0,0,0-9.7,2.1,21.78,21.78,0,0,0-2.24,1.19l-1.09.66c-.33.22-.65.45-.94.66A34.7,34.7,0,0,0,289.5,247a40.75,40.75,0,0,0-4.89,5.45l-.48.68c-.66.65-1.3,1.3-1.89,2l-1.14,1.31-1,1.36c-.35.46-.68.88-1,1.38l-1,1.56a34,34,0,0,0-4.29,10.63c-2.87.5-5.77.94-8.68,1.31-4.51.56-9.06.94-13.6,1.17a30.54,30.54,0,0,0-.88-6.15,31,31,0,0,0-6.22-12,29.4,29.4,0,0,0-5-4.86,30.56,30.56,0,0,0-6.13-3.55,33.1,33.1,0,0,0-13.71-2.68,31.81,31.81,0,0,0-6.86.92l-1.28-.51a15.79,15.79,0,0,0-9.36-.21,21.8,21.8,0,0,0-9.74,6.26,36.22,36.22,0,0,0-7,11.32,43.27,43.27,0,0,0-3,14.89,40.87,40.87,0,0,0,.66,8.41l.51,2.15.27,1.09L184,290l.76,2.16c.3.71.64,1.41,1,2.12a32.86,32.86,0,0,0,13.3,14.2,17.85,17.85,0,0,0,2.25,1.19l2.32,1.1c.83.33,1.7.62,2.56.92s1.78.47,2.68.69a29.75,29.75,0,0,0,11.23.16,37.49,37.49,0,0,0,19.81-10.71A41.54,41.54,0,0,0,247.64,291c6.47,0,12.9-.27,19.31-.86,2.31-.22,4.61-.48,6.91-.78.25,1.08.51,2.14.82,3.14a36,36,0,0,0,6.61,12.66,22.24,22.24,0,0,0,4.87,4.34,12.94,12.94,0,0,0,6.92,2.17,10,10,0,0,0,3.63-.68,11.14,11.14,0,0,0,1.28-.7c.45.23.89.49,1.35.71a41.63,41.63,0,0,0,12.2,3.61A44.46,44.46,0,0,0,335,311.41a40.09,40.09,0,0,0,17.69-14.48,35.12,35.12,0,0,0,4.7-10.48,34.29,34.29,0,0,0,1-10.87A43.12,43.12,0,0,0,357.9,270.74ZM227.82,260.26a16.74,16.74,0,0,1,3.37,1.76,15.57,15.57,0,0,1,2.83,2.54,16.1,16.1,0,0,1,4.42,9.47,75.21,75.21,0,0,1-16-2,26.17,26.17,0,0,1-4.06-1.41l-.79-.4-.61-.36-.07,0h0s0,0-.08-.06l-.13-.12-.53-.48h0L216,269c-.47-.54-1.05-1.07-1.43-1.6l-.64-.79c-.14-.23-.29-.46-.45-.68l-.23-.32-.11-.2a3.75,3.75,0,0,1-.22-.4,4.44,4.44,0,0,1-.3-.87,3.09,3.09,0,0,1,.14-1.85,3.68,3.68,0,0,1,1.18-1.47,6,6,0,0,1,.83-.52c.21-.08.42-.17.63-.28s.55-.18.82-.28a17.14,17.14,0,0,1,3.76-.67A19,19,0,0,1,227.82,260.26ZM218,301.93a19.3,19.3,0,0,1-7.23.3c-.58-.13-1.18-.18-1.75-.35l-1.72-.51-1.77-.73a11.28,11.28,0,0,1-1.72-.78,23.74,23.74,0,0,1-10.19-9.64c-.27-.51-.57-1-.83-1.51l-.67-1.59-.33-.79-.25-.82-.51-1.63a33.6,33.6,0,0,1-1-6.66,37.23,37.23,0,0,1,1.57-12.55c2.34-7.66,6.95-13.49,11.87-15.5a11.75,11.75,0,0,1,2.13-.67l-1.1.72a18.26,18.26,0,0,0-5.91,6.88,16.62,16.62,0,0,0-1.46,9c.11.77.24,1.53.39,2.3s.44,1.5.68,2.25a19.52,19.52,0,0,0,.91,2.18l.52,1.07c.17.33.34.59.51.89l1.06,1.72,1.08,1.47c.72,1,1.5,1.83,2.26,2.73l.29.33c-.22-.22.47.48.44.45l.13.12.51.5.13.12.19.17.52.43q.53.43,1.07.84c.66.47,1.18.79,1.79,1.18s1.15.64,1.73,1a41.27,41.27,0,0,0,6.63,2.62,83.86,83.86,0,0,0,16,3,29.5,29.5,0,0,1-2.62,3.33A26.49,26.49,0,0,1,218,301.93Zm116.29-17a18.33,18.33,0,0,1-8,6.64,23.08,23.08,0,0,1-12,1.93,20,20,0,0,1-11.35-5.12,20.23,20.23,0,0,1-3.55-4.24c1.12-.35,2.24-.71,3.36-1.1,2-.7,4-1.46,6-2.39a48.5,48.5,0,0,0,6.15-3.26,29.73,29.73,0,0,0,6.36-5.26,20.74,20.74,0,0,0,3-4.36,18.1,18.1,0,0,0,1.57-5,16.48,16.48,0,0,1,3.42,1.49,13.42,13.42,0,0,1,4.55,4.58q.22.4.46.8c.15.28.26.59.4.88a17.77,17.77,0,0,1,.73,1.94c.19.71.39,1.44.54,2.23a21.45,21.45,0,0,1,.31,2.32A12.42,12.42,0,0,1,334.27,284.88Z"/></g></g></svg>