<svg xmlns="http://www.w3.org/2000/svg" viewBox="0 0 346.45 352.29"><defs><style>.cls-1{fill:#ffffff;}.cls-2{fill:#ffffff;}</style></defs><title>clear-icon</title><g id="Layer_2" data-name="Layer 2"><g id="Layer_2-2" data-name="Layer 2"><path class="cls-1" d="M274.12,43.67a152.81,152.81,0,0,1,37.42,40.86,151.06,151.06,0,0,1,19.91,51.57,175.33,175.33,0,0,1,1.41,55.3,198.08,198.08,0,0,1-14.79,53.32,193.16,193.16,0,0,1-28.93,47,162.92,162.92,0,0,1-41.7,35.79,134.87,134.87,0,0,1-51.54,17.92,138.93,138.93,0,0,1-54.35-4.11L136.82,340c-1.56-.41-3.42-1.1-5.63-1.85l-3.56-1.23-4-1.55a141.5,141.5,0,0,1-19.32-9.63c-1.79-1.07-3.59-2.24-5.46-3.44s-3.73-2.51-5.59-3.93A139.64,139.64,0,0,1,81.92,309a145.68,145.68,0,0,1-11.26-11.4A151.76,151.76,0,0,1,60,284.21a178.2,178.2,0,0,1-18.18-32.29,209.83,209.83,0,0,1-16.92-78.53c-.63-27.5,4.25-55.13,14.25-78.74A148.16,148.16,0,0,1,57.36,62.78,150.21,150.21,0,0,1,80,39a134.21,134.21,0,0,1,22.91-15.51l5.33-2.7,5.1-2.19c.82-.34,1.61-.72,2.41-1l2.36-.83,4.39-1.56L130.11,13l5.69-1.23c1.54-.37,2.75-.5,3.55-.63l1.22-.19a128.27,128.27,0,0,1,26.93-1.21A141.05,141.05,0,0,1,194.22,14a172.84,172.84,0,0,1,49.62,21.72,199,199,0,0,1,41.53,35,196.1,196.1,0,0,1,16.85,21.32,192.93,192.93,0,0,1,13.63,23.41l1,2.19,1.26,2.63c.47,1,1,2.27,1.55,3.63A157.47,157.47,0,0,1,327.63,147a148.06,148.06,0,0,1,4.82,33.87,136.4,136.4,0,0,1-4.88,38.6A141.07,141.07,0,0,1,311.75,255a162.66,162.66,0,0,1-21.12,26.9c-3.41,3.7-6.89,6.78-9.86,9.6l-1.1,1-1.12.95-2.12,1.79-3.73,3.16c-1.11,1-2.16,1.73-3.06,2.42l-2.28,1.74-1.41,1.08c-.32.25-.49.36-.49.36a135,135,0,0,1-47.56,22.05,141,141,0,0,1-52.31,2.38A168.27,168.27,0,0,1,115.19,313a185.44,185.44,0,0,1-43.73-29.63,169.85,169.85,0,0,1-33.14-40.62A135.62,135.62,0,0,1,21.1,194.1a111.13,111.13,0,0,1-.73-25.69,152.65,152.65,0,0,1,4.47-25.48,192.93,192.93,0,0,1,8.52-25.18c3.42-8.38,7.31-16.77,11.42-25.48l-.94-.79a105.23,105.23,0,0,0-35.7,45.84A109.24,109.24,0,0,0,.79,166.46a137,137,0,0,0,.09,30.2,148.6,148.6,0,0,0,19,56.64,183.48,183.48,0,0,0,37.45,45.78,200.19,200.19,0,0,0,49.31,32.06A186.26,186.26,0,0,0,163.29,347a160.57,160.57,0,0,0,58.87-4.12,155.76,155.76,0,0,0,53-25.66s.19-.13.54-.41l1.55-1.22,2.5-2c1-.78,2.14-1.65,3.31-2.71l4-3.46,2.25-2,1.19-1,1.18-1.14c3.17-3.1,6.86-6.48,10.51-10.56a178.16,178.16,0,0,0,22.62-29.82,156,156,0,0,0,16.88-39.66,150.67,150.67,0,0,0,4.71-42.83,161.66,161.66,0,0,0-5.87-36.94,170.55,170.55,0,0,0-8.95-24.76c-.65-1.45-1.21-2.75-1.73-3.86l-1.4-2.8-1.16-2.33a207,207,0,0,0-15-24.69A209.52,209.52,0,0,0,294,62.8a211.52,211.52,0,0,0-44.45-36.27A184,184,0,0,0,196.62,4.31,151.3,151.3,0,0,0,168,.15a138,138,0,0,0-28.9,1.69L137.81,2c-.87.15-2.16.3-3.82.71l-6.12,1.37c-2.38.66-5.1,1.46-8.14,2.37L115,8.2l-2.53.92c-.86.32-1.71.73-2.59,1.1l-5.47,2.39-5.7,2.94A143.08,143.08,0,0,0,74.37,32.27,158.7,158.7,0,0,0,50.55,57.66a156.56,156.56,0,0,0-19,33.8c-10.33,24.88-15.16,53.63-14.32,82.11a217.23,217.23,0,0,0,18.08,81.21,185.21,185.21,0,0,0,19.13,33.43,158.62,158.62,0,0,0,11.24,13.91A152.36,152.36,0,0,0,77.47,314a146.22,146.22,0,0,0,12,9.68c2,1.48,4,2.76,5.87,4.08s3.85,2.46,5.74,3.56a147.87,147.87,0,0,0,20.27,9.93l4.15,1.59,3.7,1.25c2.3.77,4.24,1.47,5.86,1.88l4.94,1.4A145.06,145.06,0,0,0,196.65,351,140.29,140.29,0,0,0,250,331.84a167.67,167.67,0,0,0,42.55-37.24,197.14,197.14,0,0,0,29.08-48.35,201.27,201.27,0,0,0,14.5-54.44,177.82,177.82,0,0,0-2.06-56.22,150.71,150.71,0,0,0-59.21-92.9Z"/><path class="cls-1" d="M69.88,112.72c.36,0,1,.11,1.54.19l1.73.31c1.17.23,2.35.5,3.54.81,2.37.64,4.74,1.39,7.11,2.22a137.79,137.79,0,0,1,13.95,5.95c4.56,2.27,9,4.75,13.44,7.37s8.67,5.49,12.89,8.42a300.43,300.43,0,0,1,24.27,19q5.8,5.1,11.4,10.4c3.76,3.53,7.36,7.12,11.11,10.83a592.06,592.06,0,0,0,47.21,41.52c8.3,6.48,16.76,12.82,25.58,18.82,4.39,3,8.9,5.93,13.55,8.79,2.34,1.43,4.72,2.81,7.26,4.19l2,1,1.47.73.72.34c.42.19.85.38,1.36.59a19.91,19.91,0,0,0,2.13.76l.42.11.69.15.35.06.18,0,.33,0a10.5,10.5,0,0,0,1.38.05h.17l.61-.05a9,9,0,0,0,3.82-1.37l.53-.37.13-.1h0l0,0,1.69-1.77a9.94,9.94,0,0,0,.92-1.65l.09-.21,0-.13.09-.26.17-.53c.05-.17.1-.37.14-.53l.07-.35q.06-.35.11-.71c0-.34.05-.71.06-1s0-.56,0-.79L284,245l-.08-.59a10.48,10.48,0,0,0-1-3,10.76,10.76,0,0,0-1.49-2.22,11.34,11.34,0,0,0-2-1.78,6.21,6.21,0,0,0-2.17-.91,4.49,4.49,0,0,0-2.2.09,6.24,6.24,0,0,0-2,1.13c-.31.23-.6.5-.89.74l-.77.67-1.22,1.09a10.55,10.55,0,0,0-1.84,2.09,7.15,7.15,0,0,1-1.88,1.93,5.25,5.25,0,0,0-1.17,1.65s-.06.1-.09.13l0,0h0a47,47,0,0,1,5.68-.28l1.37.07.65.08c.2,0,.38,0,.57.08s.39.1.54.13a2.22,2.22,0,0,1,.44.13c.16.08.24.09.34.14l.14.09h0l.28.15h-.06s-.05,0-.08,0a.32.32,0,0,1-.05-.17.36.36,0,0,1,0-.17,1.54,1.54,0,0,0,0-.25,1.93,1.93,0,0,1,.07-.52,6.44,6.44,0,0,1,.13-.74c.06-.26.13-.45.21-.75s.17-.63.27-.93.21-.61.33-.91l.4-1.09q.36-.95.78-1.87c.29-.66.62-1.49.94-2.18,0,0,0,0-.1,0a2.48,2.48,0,0,1-.47,0,14.14,14.14,0,0,1-2.86-.6l-1.66-.52-1.69-.57c-2.26-.82-4.55-1.77-6.84-2.76-4.59-2-9.11-4.26-13.62-6.59-9-4.76-17.78-10-26.31-15.65a405.81,405.81,0,0,1-48.58-37.79c-3.8-3.39-7.62-7.05-11.52-10.52s-7.86-6.91-11.89-10.27q-12-10.17-24.84-19.37-6.41-4.61-13.11-8.87c-4.44-2.87-9-5.6-13.67-8.14s-9.44-5-14.38-7.13c-2.47-1.08-5-2.09-7.56-3-1.29-.47-2.59-.91-3.93-1.32-.67-.2-1.34-.4-2-.58s-1.35-.35-2.27-.52l-.21,0a4.86,4.86,0,0,0-5.73,4,5.08,5.08,0,0,0,4.14,5.74A5.65,5.65,0,0,0,69.88,112.72Z"/><path class="cls-2" d="M101.32,294.77c-4-2.8-4.06-9.58,15.54-37.51S257.72,63.54,261.71,66.35,150.93,239.49,131.32,267.42,105.31,297.57,101.32,294.77Z"/><path class="cls-1" d="M272.62,193.8c.12,4.79.68,9.53,1.15,14.28l1,7.09,1,7.08q.43,3.56.76,7.15L277,233l.44,3.59c.38,2.38.4,4.85.84,7.28a14.42,14.42,0,0,0,1.18,3.52c.34.56.39,1.17,1.1,1.63a5.75,5.75,0,0,0,3.71.63l.46-.18a7.85,7.85,0,0,0,2.5-2.73,3.31,3.31,0,0,0,0-1.76,18,18,0,0,0-.79-3.33c-.81-2.16-1.92-4.31-2.62-6.56l-1.14-3.36-1.11-3.38c-.78-2.25-1.47-4.53-2.13-6.81l-1.64-6.92-1.56-6.94c-1.13-4.62-2.13-9.26-3.09-13.91Z"/></g></g></svg>