<svg xmlns="http://www.w3.org/2000/svg" viewBox="0 0 219.1 229.37"><defs><style>.cls-1{fill:#ffffff;}.cls-2{fill:#ffffff;}</style></defs><title>clear-icon_1</title><g id="Layer_2" data-name="Layer 2"><g id="Layer_2-2" data-name="Layer 2"><path class="cls-1" d="M4.85,46.66c.36,0,1,.11,1.54.19l1.73.31c1.17.23,2.35.5,3.54.81,2.37.64,4.74,1.39,7.11,2.22a137.79,137.79,0,0,1,13.95,5.95c4.56,2.27,9,4.75,13.44,7.37S54.82,69,59,71.93A300.43,300.43,0,0,1,83.31,91q5.8,5.1,11.4,10.4c3.76,3.53,7.36,7.12,11.11,10.83A592.06,592.06,0,0,0,153,153.73c8.3,6.48,16.76,12.82,25.58,18.82,4.39,3,8.9,5.93,13.55,8.79,2.34,1.43,4.72,2.81,7.26,4.19l2,1,1.47.73.72.34c.42.19.85.38,1.36.59a19.91,19.91,0,0,0,2.13.76l.42.11.69.15.35.06.18,0,.33,0a10.5,10.5,0,0,0,1.38.05h.17l.61-.05A9,9,0,0,0,215,188l.53-.37.13-.1h0l0,0,1.69-1.77a9.94,9.94,0,0,0,.92-1.65l.09-.21,0-.13.09-.26.17-.53c.05-.17.1-.37.14-.53l.07-.35q.06-.35.11-.71c0-.34.05-.71.06-1s0-.56,0-.79l-.06-.67-.08-.59a10.48,10.48,0,0,0-1-3,10.76,10.76,0,0,0-1.49-2.22,11.34,11.34,0,0,0-2-1.78,6.21,6.21,0,0,0-2.17-.91,4.49,4.49,0,0,0-2.2.09,6.24,6.24,0,0,0-2,1.13c-.31.23-.6.5-.89.74l-.77.67-1.22,1.09a10.55,10.55,0,0,0-1.84,2.09,7.15,7.15,0,0,1-1.88,1.93,5.25,5.25,0,0,0-1.17,1.65s-.06.1-.09.13l0,0h0a47,47,0,0,1,5.68-.28l1.37.07.65.08c.2,0,.38,0,.57.08s.39.1.54.13a2.22,2.22,0,0,1,.44.13c.16.08.24.09.34.14l.14.09h0l.28.15h-.06s-.05,0-.08,0a.32.32,0,0,1-.05-.17.36.36,0,0,1,0-.17,1.54,1.54,0,0,0,0-.25,1.93,1.93,0,0,1,.07-.52,6.44,6.44,0,0,1,.13-.74c.06-.26.13-.45.21-.75s.17-.63.27-.93.21-.61.33-.91l.4-1.09q.36-.95.78-1.87c.29-.66.62-1.49.94-2.18,0,0,0,0-.1,0a2.48,2.48,0,0,1-.47,0,14.14,14.14,0,0,1-2.86-.6l-1.66-.52-1.69-.57c-2.26-.82-4.55-1.77-6.84-2.76-4.59-2-9.11-4.26-13.62-6.59-9-4.76-17.78-10-26.31-15.65a405.81,405.81,0,0,1-48.58-37.79c-3.8-3.39-7.62-7.05-11.52-10.52S91.82,89.15,87.79,85.8q-12-10.17-24.84-19.37-6.41-4.61-13.11-8.87c-4.44-2.87-9-5.6-13.67-8.14s-9.44-5-14.38-7.13c-2.47-1.08-5-2.09-7.56-3-1.29-.47-2.59-.91-3.93-1.32-.67-.2-1.34-.4-2-.58S6.92,37,6,36.87l-.21,0a4.86,4.86,0,0,0-5.73,4A5.08,5.08,0,0,0,4.2,46.59,5.65,5.65,0,0,0,4.85,46.66Z" transform="translate(0 -0.25)"/><path class="cls-2" d="M36.29,228.71c-4-2.8-4.06-9.58,15.54-37.51S192.68-2.52,196.68.29,85.9,173.43,66.29,201.36,40.28,231.52,36.29,228.71Z" transform="translate(0 -0.25)"/></g></g></svg>