<?xml version="1.0" encoding="utf-8"?>
<!-- Generator: Adobe Illustrator 20.1.0, SVG Export Plug-In . SVG Version: 6.00 Build 0)  -->
<svg version="1.1" id="Layer_1" xmlns="http://www.w3.org/2000/svg" xmlns:xlink="http://www.w3.org/1999/xlink" x="0px" y="0px"
	 viewBox="0 0 19.7 19.7" style="enable-background:new 0 0 19.7 19.7;" xml:space="preserve">
<style type="text/css">
	.st0{fill:#757575;}
</style>
<title>search-outline</title>
<g>
	<g>
		<rect y="4.2" class="st0" width="12.3" height="1.5"/>
	</g>
	<g>
		<rect y="16" class="st0" width="12.3" height="1.5"/>
	</g>
	<g>
		<rect x="11.1" y="10.1" class="st0" width="8.3" height="1.5"/>
	</g>
	<g>
		<rect y="10.1" class="st0" width="2.5" height="1.5"/>
	</g>
	<g>
		<path class="st0" d="M6.8,13.8c-1.6,0-3-1.3-3-3s1.3-3,3-3s3,1.3,3,3S8.4,13.8,6.8,13.8z M6.8,9.4C6,9.4,5.3,10,5.3,10.8
			s0.7,1.5,1.5,1.5s1.5-0.7,1.5-1.5S7.6,9.4,6.8,9.4z"/>
	</g>
	<g>
		<path class="st0" d="M16.7,7.9c-1.6,0-3-1.3-3-3s1.3-3,3-3s3,1.3,3,3S18.3,7.9,16.7,7.9z M16.7,3.4c-0.8,0-1.5,0.7-1.5,1.5
			s0.7,1.5,1.5,1.5s1.5-0.7,1.5-1.5S17.5,3.4,16.7,3.4z"/>
	</g>
	<g>
		<path class="st0" d="M16.7,19.7c-1.6,0-3-1.3-3-3s1.3-3,3-3s3,1.3,3,3S18.3,19.7,16.7,19.7z M16.7,15.3c-0.8,0-1.5,0.7-1.5,1.5
			s0.7,1.5,1.5,1.5s1.5-0.7,1.5-1.5S17.5,15.3,16.7,15.3z"/>
	</g>
</g>
</svg>
