<svg xmlns="http://www.w3.org/2000/svg" xmlns:xlink="http://www.w3.org/1999/xlink" viewBox="0 0 58.12 58.04"><defs><style>.cls-1{fill:url(#linear-gradient);}.cls-2{fill:url(#linear-gradient-2);}.cls-3{fill:url(#linear-gradient-3);}</style><linearGradient id="linear-gradient" x1="73.2" y1="64.47" x2="-19.08" y2="34.83" gradientUnits="userSpaceOnUse"><stop offset="0" stop-color="#f5a975"/><stop offset="0.53" stop-color="#a13d23"/><stop offset="1" stop-color="#59082d"/></linearGradient><linearGradient id="linear-gradient-2" x1="75.69" y1="56.72" x2="-16.6" y2="27.09" xlink:href="#linear-gradient"/><linearGradient id="linear-gradient-3" x1="82.46" y1="35.65" x2="-9.83" y2="6.02" xlink:href="#linear-gradient"/></defs><title>gift-icon</title><g id="Layer_2" data-name="Layer 2"><g id="text"><path class="cls-1" d="M2.91,34.79V52.22A5.82,5.82,0,0,0,8.72,58H26.15V34.79Z"/><path class="cls-2" d="M32,34.79V58H49.4a5.82,5.82,0,0,0,5.81-5.81V34.79Z"/><path class="cls-3" d="M52.31,17.35H43.26a14.51,14.51,0,0,0,3.59-2.55,8.74,8.74,0,0,0,0-12.33,8.93,8.93,0,0,0-12.33,0c-4.75,4.76-5.4,13.71-5.46,14.72,0,.06,0,.11,0,.16H29c0-.06,0-.11,0-.16-.06-1-.7-10-5.46-14.72a8.93,8.93,0,0,0-12.33,0,8.73,8.73,0,0,0,0,12.33,14.53,14.53,0,0,0,3.59,2.55H5.81A5.82,5.82,0,0,0,0,23.16v8.72H26.15V20.26H32V31.88H58.12V23.16A5.82,5.82,0,0,0,52.31,17.35ZM15.38,10.69a2.91,2.91,0,0,1,4.11-4.11c1.71,1.71,2.71,4.79,3.25,7.35C20.18,13.4,17.09,12.39,15.38,10.69Zm20,3.25c.54-2.57,1.53-5.64,3.25-7.36a2.91,2.91,0,1,1,4.11,4.11C41,12.41,37.95,13.41,35.38,13.94Z"/></g></g></svg>