<svg xmlns="http://www.w3.org/2000/svg" viewBox="0 0 365.33 344.88"><defs><style>.cls-1{fill:#010101;}</style></defs><title>lense</title><g id="Layer_2" data-name="Layer 2"><g id="Layer_2-2" data-name="Layer 2"><path class="cls-1" d="M365.22,126.72a137.36,137.36,0,0,0-4-28.24L360.51,96c-.41-1.63-1.17-4-2.16-7a121.16,121.16,0,0,0-11-23.59c-1.36-2.33-3-4.65-4.58-7.05s-3.47-4.78-5.46-7.13a126.7,126.7,0,0,0-13.34-13.92,136.23,136.23,0,0,0-34.63-22.25,145,145,0,0,0-19.35-7.12,190.5,190.5,0,0,0-19-4.51c-6.19-1.15-12.21-2-17.94-2.53S221.83.1,216.79,0a180.43,180.43,0,0,0-24.44,1.31c-3,.34-5.27.74-6.85,1l-1.8.3-.62.12a132.49,132.49,0,0,0-26.5,7.85A100.33,100.33,0,0,0,132.23,25l-2.77,2.29-2.64,2.45L125.51,31l-1.25,1.31-2.48,2.62a87.94,87.94,0,0,0-8.61,11.54c-.62,1-1.31,2-1.86,3l-1.66,3c-.57,1-1.08,2-1.58,3.06l-1.51,3.09a131.13,131.13,0,0,0-5.07,12.71c-.86,2.51-1.63,5-2.33,7.6A93.74,93.74,0,0,0,91,98.63,92.43,92.43,0,0,0,87.51,124c-.07,2.14.1,4.27.17,6.4s.36,4.25.57,6.36a118,118,0,0,0,2.28,12.53c3.94,16.52,11.25,32,20.4,46l.15-.09c1.39,3,3,6.27,4.91,9.77.08.62.18,1.25.27,1.88l-1,.78c-1.75,1.35-3.41,2.78-5,4.25s-3.25,2.92-4.83,4.43c-3.11,3.05-6.3,6-9.56,9-13,11.74-26.34,23.19-39.9,34.64-10.72,9.17-21.59,18.35-32.48,27.6-3,1.92-5.88,4-8.71,6.19A99.62,99.62,0,0,0,0,307.8l15.09,15c13.69-10.46,27.68-20.66,41.55-31.22,4-1.91,8.64-4,13.67-6.1,3.37-1.42,6.92-2.87,10.55-4.34L30.39,338.19l7.33,6.69C45.53,337,53.78,329.3,62,321.61s16.5-15.32,24.79-22.95q16.44-14.87,33-29.57,9.32-8.24,18.7-16.43c.6-.44,1.2-.89,1.8-1.34.34.36.68.72,1,1.06,1.84,1.75,3.63,3.6,5.56,5.23A119.58,119.58,0,0,0,260.16,281.5a137.25,137.25,0,0,0,50.47-29.1,166.24,166.24,0,0,0,34.89-44.31A163,163,0,0,0,363.66,155c.38-2.34.6-4.71.9-7.07s.39-4.69.56-7,.21-4.7.22-7.07S365.37,129.09,365.22,126.72ZM92.55,136.3c-.14-2-.32-4.07-.37-6.11s-.12-4.08,0-6.11a91.64,91.64,0,0,1,2.22-17.55A157,157,0,0,0,94,124.4a180.51,180.51,0,0,0,2.88,26.33,185.78,185.78,0,0,0,6.54,25.1,134,134,0,0,1-9-27.4A114.65,114.65,0,0,1,92.55,136.3Zm29.3-57.6a108.28,108.28,0,0,1,4.57-10.37l1.33-2.48c.44-.83.88-1.66,1.38-2.45L130.57,61c.48-.81,1-1.49,1.49-2.24a64.71,64.71,0,0,1,6.65-8.25l1.9-1.85.94-.93,1-.86,2-1.73,2.12-1.61a75.79,75.79,0,0,1,19-10.2,106.36,106.36,0,0,1,21.66-5.41l.51-.08,1.51-.19c1.32-.17,3.26-.43,5.75-.63A154.21,154.21,0,0,1,216,26.66c4.34.23,9,.65,14,1.29s10.14,1.58,15.45,2.76a162.45,162.45,0,0,1,16,4.44,116.21,116.21,0,0,1,15.45,6.34,106.3,106.3,0,0,1,26.34,18.28,95.8,95.8,0,0,1,9.64,10.84c1.42,1.81,2.64,3.67,3.86,5.45s2.26,3.58,3.19,5.35a89,89,0,0,1,7.5,17.69c.64,2.24,1.15,4,1.4,5.22l.44,1.86a96.92,96.92,0,0,1,2.31,21.3c.06,1.8-.09,3.61-.13,5.42s-.28,3.62-.4,5.43-.43,3.63-.68,5.42-.56,3.54-.94,5.31a116.75,116.75,0,0,1-6.14,20.27A213.5,213.5,0,0,1,310.13,193c-2.27,3.55-4.68,7.08-7.23,10.55a126.82,126.82,0,0,1-18.38,18.27,101.52,101.52,0,0,1-36.41,19.08A82.51,82.51,0,0,1,209,242.44a88,88,0,0,1-36-16.15c-1.37-.93-2.55-2-3.81-3.06-.64-.51-1.17-1.1-1.77-1.65s-1.19-1.1-1.73-1.69L164,218.12l-.81-.88-.74-.92L161,214.49l-1.39-1.89c-1.45-1.95-2.76-3.93-4-6l3.58-4.23L154.56,198c-.82.8-1.62,1.6-2.44,2.41q-1-1.92-1.94-3.89a87.79,87.79,0,0,1-6.52-19.11,181.38,181.38,0,0,1-3.75-24.87l-2.23-1.05a50.23,50.23,0,0,0-16.45,19.43l-.12-.39a165.67,165.67,0,0,1-5.31-23A159.37,159.37,0,0,1,114,124C114,108.43,116.42,92.89,121.85,78.7Zm7.25,159.18,1.32,1.81-.91.61-.94.62-2.74,1.67-1.53.91Zm-28.19,16.74c4.05-3.81,8-7.7,11.91-11.73,3.12-3.41,6.42-6.6,9.48-10.08q1.09-1.21,2.16-2.45l0,.09q-7,8.27-13.7,16.77l-4.58,5.18Q103.65,253.51,100.91,254.62Z"/></g></g></svg>