<svg id="Layer_1" data-name="Layer 1" xmlns="http://www.w3.org/2000/svg" xmlns:xlink="http://www.w3.org/1999/xlink" viewBox="0 0 893.38 162.06"><defs><style>.cls-1{fill:url(#linear-gradient);}.cls-2{fill:url(#linear-gradient-2);}.cls-3{fill:url(#linear-gradient-5);}.cls-4{fill:url(#linear-gradient-9);}.cls-5{fill:url(#linear-gradient-10);}.cls-6{fill:url(#linear-gradient-15);}.cls-7{fill:url(#linear-gradient-16);}.cls-8{fill:url(#linear-gradient-17);}.cls-9{fill:url(#linear-gradient-18);}.cls-10{fill:url(#linear-gradient-19);}.cls-11{fill:url(#linear-gradient-24);}</style><linearGradient id="linear-gradient" x1="893.26" y1="24.38" x2="-2.24" y2="24.38" gradientUnits="userSpaceOnUse"><stop offset="0" stop-color="#f5a975"/><stop offset="0.53" stop-color="#a13d22"/><stop offset="1" stop-color="#59082d"/></linearGradient><linearGradient id="linear-gradient-2" x1="893.26" y1="24.42" x2="-2.24" y2="24.42" xlink:href="#linear-gradient"/><linearGradient id="linear-gradient-5" x1="893.26" y1="24.33" x2="-2.24" y2="24.33" xlink:href="#linear-gradient"/><linearGradient id="linear-gradient-9" x1="893.26" y1="24.35" x2="-2.24" y2="24.35" xlink:href="#linear-gradient"/><linearGradient id="linear-gradient-10" x1="893.26" y1="24.18" x2="-2.24" y2="24.18" xlink:href="#linear-gradient"/><linearGradient id="linear-gradient-15" x1="893.3" y1="24.42" x2="-2.2" y2="24.42" xlink:href="#linear-gradient"/><linearGradient id="linear-gradient-16" x1="894.26" y1="137.38" x2="-1.24" y2="137.38" xlink:href="#linear-gradient"/><linearGradient id="linear-gradient-17" x1="894.26" y1="137.61" x2="-1.24" y2="137.61" xlink:href="#linear-gradient"/><linearGradient id="linear-gradient-18" x1="894.26" y1="137.79" x2="-1.24" y2="137.79" xlink:href="#linear-gradient"/><linearGradient id="linear-gradient-19" x1="894.26" y1="137.65" x2="-1.24" y2="137.65" xlink:href="#linear-gradient"/><linearGradient id="linear-gradient-24" x1="893.26" y1="29.02" x2="-2.24" y2="29.02" xlink:href="#linear-gradient"/></defs><title>logo_bottom</title><path class="cls-1" d="M3.63,48.09H0V.87H12.31v23L36.86.67h3.83V48H28.38V23.68Z" transform="translate(0.08)"/><path class="cls-2" d="M90,48V29.12H75.43V48H63.12V.87H75.43v17H90V.87h12.31V48Z" transform="translate(0.08)"/><path class="cls-2" d="M121.11,11.64V.87h35V11.64h-11.5V48H132.68V11.64Z" transform="translate(0.08)"/><path class="cls-2" d="M204.21,11.57H187.13V18.3h15.74V29.06H187.13v7.67h17.69V48h-30V.87h29.39Z" transform="translate(0.08)"/><path class="cls-3" d="M226,47.89V.81c7,0,13.79-.07,20.78,0,11.3,0,17.08,8.81,16.88,17.69,0,8.61-5.72,17.22-16.88,17.22h-8.48V47.89ZM246.76,25c3.23,0,5.11-3.43,5.11-6.86s-1.75-6.66-5.11-6.66h-8.68V25Z" transform="translate(0.08)"/><path class="cls-2" d="M309.42,48V29.12h-14.6V48H282.51V.87h12.31v17h14.6V.87h12.31V48Z" transform="translate(0.08)"/><path class="cls-2" d="M373.55,11.57H356.47V18.3H372.2V29.06H356.47v7.67h17.69V48h-30V.87h29.39Z" transform="translate(0.08)"/><path class="cls-2" d="M391.82,11.64V.87h35V11.64h-11.5V48H403.39V11.64Z" transform="translate(0.08)"/><path class="cls-4" d="M547.18.74h4.37V48H539.25V26.23l-10,10.49h-1.41l-10-10.49V48H505.48V.74h4.37l18.7,20.38Z" transform="translate(0.08)"/><path class="cls-5" d="M585,42.11,582.29,48H569.45V46.28L591,.4h5.65l21.39,45.87V48H605.36l-2.76-5.85Zm4-10.29h9.75l-4.91-11.37Z" transform="translate(0.08)"/><path class="cls-2" d="M648.2,11.64V48H636V.87h29.33V11.64Z" transform="translate(0.08)"/><path class="cls-5" d="M688.12,42.11,685.43,48H672.59V46.28L694.18.4h5.65l21.39,45.87V48H708.5l-2.76-5.85Zm4-10.29h9.75l-4.91-11.37Z" transform="translate(0.08)"/><path class="cls-2" d="M737.36,12.78C737,4,744.29,0,752.63,0,763,0,768.37,6.79,768.37,13.65a11.25,11.25,0,0,1-4.17,8.74C769,25,771.06,28.72,771.06,34c0,8.34-6.05,14.8-18.36,14.8-10.36,0-17-5.58-17-16.21h10.7c0,3.7,2.82,6.05,6.32,6.05,4.1,0,6.12-2.69,6.12-5.38s-2-5.31-6.12-5.31h-3.63V18.16h3.5a4.3,4.3,0,0,0,4.57-4.24,4.24,4.24,0,0,0-4.51-4.24c-2.22,0-4.44,1.14-4.44,3.09Z" transform="translate(0.08)"/><path class="cls-1" d="M794.59,48.09H791V.87h12.31v23L827.82.67h3.83V48H819.34V23.68Z" transform="translate(0.08)"/><path class="cls-6" d="M881,48V29.12h-14.6V48H854.08V.87h12.31v17H881V.87H893.3V48Z" transform="translate(0.08)"/><path class="cls-7" d="M18.08,143a54.11,54.11,0,0,1-5.85.2v18H-.08V114.1H12.22v18.43c2,0,5.18.13,6.86-.74,2.15-1.08,2.89-3.9,4.24-9.55s6-10.36,17-8.07v8.27c-3-.2-5,.47-5.72,3.36-1.55,5.65-3.16,9.62-5.78,12.51,4.51,7,8.88,14.06,13.45,21.05v1.82H28.37Z" transform="translate(0.08)"/><path class="cls-8" d="M80.64,162.06c-12.44,0-24.08-8.07-24.08-24.42s12-24.48,24.28-24.48c12,0,24,8.21,24,24.48C104.85,152,94.9,162.06,80.64,162.06Zm.07-11.64c5.85,0,11.84-4.37,11.84-12.78s-5.85-12.78-11.7-12.78c-6.12,0-12,4.17-12,12.78C68.87,146.05,74.65,150.43,80.7,150.43Z" transform="translate(0.08)"/><path class="cls-9" d="M139.56,146.66c-1.21,13.65-5.72,16.14-19.24,14.26l.2-8.81c5.38.47,6.25-.81,6.79-5.85l3.3-32.15h33.23v47.08H151.6V125.07H141.38Z" transform="translate(0.08)"/><path class="cls-10" d="M198.52,124.87v36.32H186.28V114.1H215.6v10.76Z" transform="translate(0.08)"/><path class="cls-8" d="M255.74,162.06c-12.44,0-24.08-8.07-24.08-24.42s12-24.48,24.28-24.48c12,0,24,8.21,24,24.48C280,152,270,162.06,255.74,162.06Zm.07-11.64c5.85,0,11.84-4.37,11.84-12.78s-5.85-12.78-11.7-12.78c-6.12,0-12,4.17-12,12.78C244,146.05,249.75,150.43,255.81,150.43Z" transform="translate(0.08)"/><path class="cls-10" d="M296.2,124.87V114.1h35v10.76h-11.5v36.32H307.77V124.87Z" transform="translate(0.08)"/><path class="cls-8" d="M371.43,162.06c-12.44,0-24.08-8.07-24.08-24.42s12-24.48,24.28-24.48c12,0,24,8.21,24,24.48C395.65,152,385.69,162.06,371.43,162.06Zm.07-11.64c5.85,0,11.84-4.37,11.84-12.78s-5.85-12.78-11.7-12.78c-6.12,0-12,4.17-12,12.78C359.66,146.05,365.45,150.43,371.5,150.43Z" transform="translate(0.08)"/><path class="cls-7" d="M433.67,143a54.11,54.11,0,0,1-5.85.2v18H415.51V114.1h12.31v18.43c2,0,5.18.13,6.86-.74,2.15-1.08,2.89-3.9,4.24-9.55s6-10.36,17-8.07v8.27c-3-.2-5,.47-5.72,3.36-1.55,5.65-3.16,9.62-5.78,12.51,4.51,7,8.88,14.06,13.45,21.05v1.82H444Z" transform="translate(0.08)"/><path class="cls-11" d="M456.17,29.1c0-4.52,3.62-7.5,8-7.5s8,3,8,7.5-3.56,7.34-8,7.34S456.17,33.51,456.17,29.1Z" transform="translate(0.08)"/></svg>