<?xml version="1.0" encoding="utf-8"?>
<!-- Generator: Adobe Illustrator 20.1.0, SVG Export Plug-In . SVG Version: 6.00 Build 0)  -->
<svg version="1.1" id="Layer_1" xmlns="http://www.w3.org/2000/svg" xmlns:xlink="http://www.w3.org/1999/xlink" x="0px" y="0px"
	 viewBox="0 0 1018.8 618.5" style="enable-background:new 0 0 1018.8 618.5;" xml:space="preserve">
<style type="text/css">
	.st0{fill:none;stroke:#231F20;stroke-width:0.75;stroke-linejoin:round;stroke-miterlimit:10;}
</style>
<title>logo_top</title>
<g>
	<g>
		<path d="M380.6,443.6c-0.5-11-0.1-19.5,7-28.7c7-9,17.7-17.4,29-19.8c24.6-5.3,34.1,24.3,30.1,43.5c-5.9,28.5-43,18.2-48.2-5.3
			c-1.7-7.7,2.8-17,11.8-16.6c11.1,0.5,5.8,13,2.3,18.3c-0.2-2-0.4-5.1-2.1-6.5c1,0.9,3.5,0.3,4.7,0.1c-4.3,8.2,12.3,20.8,19.1,12.3
			c7-8.8,5.2-32-4.2-38.7c-13.4-9.5-35.8,8.1-41.2,20c-2.8,6.1-1.6,12.5-1.8,18.6C387,445.6,381,450.2,380.6,443.6
			C380.6,443.3,380.6,443.8,380.6,443.6z"/>
	</g>
	<g>
		<path d="M517.7,440.5c3.4-3.3,5-8.2,5.8-12.6c0.4-2.2,1.7-17.6-2.2-18.4c-5.4-1.2-17.3,18.6-21.1,23.3c-3.6,4.5-7.7,10.2-14,10.6
			c-5.5,0.4-6.1-3.2-9.8-5.8c-5-3.5,2.5,26.5-9.9,9.9c-0.8-1.1,1.1-6.9,1.4-8.4c0.9-5.9,2.2-11.8,3.3-17.7
			c1.5-8.3,3.2-16.6,5.6-24.7c1-3.6,2-8.5,4.5-11.4c4.4-5,7.3-1.8,11.2,1.9c4.5,4.3,2.3,6.7-0.4,11.4c-7.9,13.6-11.8,29.3-15.9,44.4
			c-0.6,2.2-2.1,9.5-5.5,9.5c-4,0-3.1-7.3-2.8-10.2c0.4-3.4,1.8-6.7,3.5-9.6c4.1-7.2,6.7-3.6,9.8,1.7c1,1.7,4.2,10.2,18.3-8.6
			c4.8-6.5,11.8-21.4,21.3-21.3c10.8,0.1,9.3,18.7,8.6,25.6c-0.4,4.1-1.1,12.3-4.7,15.3C521.2,448.2,513.8,444.5,517.7,440.5
			C517.9,440.4,517.6,440.7,517.7,440.5z"/>
	</g>
	<g>
		<path d="M607.3,417.8c-0.2-0.1-0.4-0.3-0.7-0.4l-0.8-0.3c-0.6-0.2-1.1-0.4-1.7-0.4c-1.2-0.2-2.4-0.1-3.6,0c-2.4,0.4-4.8,1.2-7,2.4
			c-2.2,1.2-4.2,2.7-6.1,4.3c-1.8,1.7-3.5,3.5-5,5.5c-0.4,0.5-0.8,1-1.1,1.5c-0.3,0.4-0.6,0.9-0.9,1.3c-0.6,0.9-1.2,1.9-1.8,2.9
			c-1.2,2.1-2.4,4.5-3.9,7.4c-1.4,2.9-3.1,6.2-4.8,9c-1.7,2.8-3.5,5.5-5.3,7.5c-0.5,0.5-0.9,0.9-1.5,1.2c-0.3,0.1-0.6,0.3-0.9,0.4
			c-0.3,0.1-0.8,0-1-0.1c-1-0.5-1.5-0.9-2.1-1.3c-1.1-0.8-2.2-1.6-3.4-3.1c-0.6-0.8-1.1-1.8-1.5-3.3c-0.4-1.4-0.6-3.3-0.7-5.5
			c-0.1-4.3,0.1-9.2,0.3-14.2c0.1-2.5,0.2-5,0.2-7.5l0-1.4l0-0.9l0-1.7c0-2.2-0.1-4.5-0.1-6.8c-0.1-2.2-0.1-4.3-0.3-6.3
			c-0.1-1-0.2-1.9-0.2-2.9c0,0,0-0.4-0.1-0.7c0-0.3-0.1-0.7-0.1-0.7c-0.1-0.5-0.1-0.9-0.1-1.4l0-0.1c0-0.9,0.8-2.1,2-3.7
			c1.2-1.5,2.9-3.4,5-4.9c2.1-1.4,4.4-2.1,6.3-1.7c1.9,0.4,3.5,1.7,3.9,3.5c0.1,0.4,0.1,0.8,0.1,1.2c0,0.7-0.1,1.6-0.1,2.3
			c0,0,0,0.6-0.1,1.2c0,0.6-0.1,1.2-0.1,1.2c-0.1,1.5-0.3,3-0.5,4.4c-0.4,2.8-0.9,5.5-1.4,8.1c-0.5,2.6-1,5.1-1.5,7.6
			c-0.2,1.2-0.4,2.4-0.7,3.6c-0.2,1-0.4,2.1-0.6,3.2c-0.7,4.5-1.2,9.5-1.2,13.3c0,1.9,0.1,3.5,0.5,4.6c0.2,0.5,0.5,1,1,1.2
			c0.2,0,0.3,0.1,0.6,0c0.3-0.1,0.6-0.3,0.8-0.6c0.5-0.6,0.9-1.3,1.4-2c1.6-2.7,2.9-5.9,3.9-8.1c1-2.3,1.7-4.1,2.2-5.6
			c0.4-1.2,0.8-2.3,1.2-3.5l0.4-1.1l0.2-0.4c0-0.1,0,0,0.1-0.2l0.3-0.4l0.6-0.8c1.6-2.1,3.3-4.2,5.3-6.1c1.9-1.9,4-3.8,6.4-5.3
			c2.3-1.6,5-3,7.9-3.9c1.4-0.5,3-0.8,4.5-1c0.8-0.1,1.6-0.1,2.4-0.1c0.4,0,0.8,0.1,1.2,0.1c0.4,0.1,0.8,0.1,1.3,0.3l0.1,0
			c1.7,0.6,2.6,3.2,2.7,5.7c0.1,2.6-0.3,3.9-1.5,3.3C607.5,417.9,607.4,417.8,607.3,417.8z"/>
	</g>
	<g>
		<path class="st0" d="M565,434.9"/>
	</g>
	<g>
		<path d="M568.6,449.3c34.7-2.4,49.9,88.8,55.6,111.4c4.7,18.5,7.7,40.3,25.1,51.3c17.6,11.1,40.2,6,58.2-1
			c39.9-15.5,71.9-46.3,110.8-63.8c19-8.6,36.1-11.6,56.6-9.1c11.6,1.4,28.5,4.9,17.8-12.1c-19.5-31-81.8,8.6-101,21
			c-33.5,21.6-68.2,53-108.6,61c-48.8,9.7-51.9-49.1-62-83.8c-5.5-18.9-11.1-39-21.2-56.1c-4.2-7.1-9.5-15.4-16.7-20
			c-1.3-0.9-30.4-8.8-26.4,0.3C560.6,450.1,564.5,450.5,568.6,449.3C578.6,448.6,568.3,449.3,568.6,449.3z"/>
	</g>
	<g>
		<path d="M616.6,439.8c0.1-0.2,0.2-0.7,0.3-1l0.3-1.1c0.2-0.7,0.4-1.6,0.6-2.3c0.3-1.5,0.8-3,1.3-4.4c1-2.8,2.2-5.4,3.6-7.6
			c1.4-2.2,3.1-4.1,4.9-5.8c1.8-1.7,3.8-3.1,5.9-4.4c4.3-2.5,9-4.4,14.3-5.4c2.6-0.5,5.4-0.7,8.3-0.5c2.9,0.2,5.9,0.7,9,2
			c3,1.3,5.8,3.3,8.2,5.9c2.3,2.5,4.5,5.6,5.4,10.1c0.2,1.1,0.4,2.2,0.4,3.4c0,1.2-0.1,2.4-0.3,3.6c-0.2,1.2-0.6,2.3-1,3.5
			c-0.5,1-1,2.2-1.6,3.1c-2.4,3.9-5.5,6.6-8.6,8.6c-6.2,3.9-12.5,5.6-18.8,6.3c-3.2,0.4-6.3,0.4-9.5,0.2c-1.6-0.1-3.2-0.4-4.9-0.7
			c0,0-0.6-0.1-1.2-0.3c-0.6-0.1-1.2-0.3-1.2-0.3c-0.9-0.2-1.6-0.5-2.6-0.9l-0.2-0.1c-1.7-0.7-2.8-2.4-3.1-4.5
			c-0.3-2.1,0.3-4.5,1.4-6.8c1.2-2.3,2.3-4.1,3.3-5.4c0.5-0.6,0.9-1,1.4-1.3c0.4-0.2,0.9-0.2,1.4,0c0.2,0.1,0.4,0.3,0.6,0.5
			c0.3,0.3,0.8,0.7,1.2,1.1l1.5,1c1,0.6,2.1,1.1,3.3,1.5c2.3,0.9,4.7,1.4,7.2,1.8c4.9,0.5,10.2,0.1,14.7-2c2.3-1,4.4-2.5,5.9-4.5
			c1.5-1.9,2.2-4.4,1.8-6.8c-0.3-2.4-1.5-4.6-3.1-6.5c-1.5-1.9-3.5-3.4-5.6-4.3c-2.1-1-4.4-1.3-6.5-1.5c-2.2-0.2-4.3,0-6.4,0.4
			c-4.1,0.8-8,2.3-11.2,4.4c-1.6,1-3,2.1-4.2,3.3c-1.2,1.2-2.2,2.4-3.1,3.9c-0.9,1.4-1.6,3.1-2.2,5.2c-0.3,1-0.5,2.1-0.9,3.4
			c-0.1,0.6-0.2,1.3-0.3,1.9c-0.1,0.3-0.1,0.7-0.2,1.1c-0.1,0.4-0.1,0.7-0.2,1.2l0,0.1c-0.4,1.5-2.6,3.4-5.1,3.9
			c-2.4,0.5-4.4-0.7-4.1-2.6C616.5,440.1,616.5,439.9,616.6,439.8z"/>
	</g>
	<g>
		<path d="M873.8,464.9c1.7-5-0.1-14.9-5.3-17.4c-6.9-3.3-16,2.8-22.4,4.6c-8.3,2.4-11-1.8-15.5-7.6c-3.5-4.5-9.4-10.6-15.3-7.1
			c-5.8,3.4-10.5,10.4-16.3,14.1c-5.7,3.6-12.8,6.3-19.6,5c-12.3-2.4-15.8-15.4-13.5-26.2c0.6-2.9,3.1-15.7,9.2-13.3
			c6.1,2.4,0.3,11.9-0.7,16.2c-2.1,9.2,3.4,14.6,10.2,13.2c7.9-1.7,18.3-10.4,24.9-14.5c8.4-5.2,15.5-2.8,21.6,3.9
			c4.1,4.6,7.7,11.3,14.4,9.7c9.4-2.3,16.2-8.6,26.3-2.3c5.6,3.5,8,12.8,7.5,19.2C878.9,468.6,873.8,465,873.8,464.9z"/>
	</g>
	<g>
		<path d="M771.1,431.6c-8.6,5-20.3,14.2-29.8,18.4c-16.6,7.4-42.1,15.2-54.1-4.2c-9.5-15.5,3.6-32.5,19.5-34.6
			c3.1-0.4,12.5-1.7,15.1,1.4c4,4.7-1.3,19.2-4.7,17.3c-5.6-4.1-14.8-5.8-19.7,0.5c-9.2,11.8,9,20.8,18.6,20.4
			c13.6-0.6,26.2-8.4,37.8-14.7c3.2-1.8,11.7-6.5,13.7-9.8C770.1,421.9,771.3,431.6,771.1,431.6z"/>
	</g>
	<g>
		<path d="M942.9,478.3c6.5-9.9-3.1-17.5-12.5-13.5c-10.6,4.6-20.2,11.4-30.5,1.7c-6.1-5.8-9.4-19.1-8.2-27.8
			c0.6-4.6,5.1-15,10.8-13.2c6.8,2.2-7.2,12.1-3,29.4c2.9,11.8,15.5,13.1,24.2,8.3c9.2-5,19.3-9.5,24.1,2.5c1,2.4,1.1,7.3-0.5,10
			C945.9,478.1,941.7,480.2,942.9,478.3C943,478.2,942.9,478.4,942.9,478.3z"/>
	</g>
	<g>
		<path d="M1016,402.6c0.2,0.4,0.4,1.2,0.7,1.9c0,0,0.2,0.5,0.4,1.1c0.2,0.6,0.3,1.1,0.3,1.1c0.4,1.5,0.7,3.1,1,4.7
			c0.1,0.8,0.2,1.5,0.3,2.6c0.1,1,0.1,1.9,0.2,2.9c0,1.9-0.1,3.6-0.3,5.3c0,0.1,0.1,0.3-0.1,0.3l-0.4,0l-0.7,0.1l-1.4,0.1
			c-0.9,0.1-1.8,0.2-2.7,0.2c-1.8,0-3.6,0.1-5,0c-3.1-0.1-6.2-0.6-9.2-1c-6.1-1.1-12.1-2.7-18-4.8c-5.9-2-11.7-4.3-17.4-6.8
			c-11.5-4.9-22.9-10.3-34.6-14.8c-5.9-2.2-11.8-4.3-17.8-5.7c-3-0.8-6-1.4-9-1.8c-3.1-0.3-6.1-0.7-9.3-1
			c-24.9-1.8-49.7,1.7-75.1,5.2c-12.7,1.7-25.6,3.4-38.8,4.1c-3.3,0.2-6.6,0.4-9.9,0.4c-3.3,0-6.7,0.2-10,0
			c-3.4-0.2-6.7-0.2-10.1-0.6l-5.1-0.6c-1.8-0.2-3.3-0.4-5.3-0.7l-0.4-0.1c-6.7-1.4-10.8-5.1-9.2-8.3c0.7-1.6,2.7-2.8,5.2-3.4
			c1.2-0.3,2.6-0.5,4.1-0.5c0.7,0,1.5,0,2.2,0.1c0.8,0,1.5,0.1,2.3,0.2c0.7,0.1,1.4,0.2,2,0.4c1.1,0.3,2.6,0.6,3.9,0.9
			c0,0,1.1,0.2,2.1,0.4c1.1,0.2,2.1,0.3,2.1,0.3c2.9,0.4,5.8,0.8,8.8,1.1c3,0.2,6,0.4,9,0.6c3,0.2,6.1,0.1,9.2,0.2
			c12.3,0,24.8-0.9,37.2-2.1c24.9-2.2,50.1-5.2,75.4-2.9c6.2,0.8,12.8,1.4,19.1,3.1c6.3,1.7,12.5,3.8,18.5,6.2
			c12.1,4.7,23.6,10.3,35.2,15.1c5.8,2.4,11.6,4.7,17.4,6.6c5.9,1.9,11.8,3.4,17.7,4.2c3,0.4,6,0.6,8.9,0.6l1,0.1c0.3,0,0.7,0,1,0
			l1.1,0c0.1,0,0.1-0.1,0.1-0.1l0-0.2c0-0.2,0.1-0.3,0.1-0.5c0.1-0.6,0.1-1.4,0.1-2.2l0-0.3l-0.1-0.5l-0.2-1.1
			c-0.1-0.7-0.3-1.4-0.5-2.1c-0.4-1.4-0.9-2.8-1.5-4.3c-0.3-0.7-0.6-1.4-1-2.1c-0.4-0.7-0.7-1.4-1.2-2.3l-0.1-0.2
			c-0.8-1.3-1.2-2.6-1.2-3.6c0-1,0.5-1.8,1.5-1.9c2.1-0.5,5.8,2,7.3,5.5C1015.8,402.1,1016,402.4,1016,402.6z"/>
	</g>
	<g>
		<g>
			<path d="M787,46.9c61.4-27.3,148,0.1,188.8,52.9c64.6,83.5-6.2,176.7-72.1,213.7c-78,43.8-183.2,47.8-270.5,44.8
				c-92.4-3.2-188.3-12.7-274.7-47.7c-73.1-29.6-148.7-77.6-230.3-51.4C51.2,283.9,5.5,363.5,6.6,441.9c1,76.5,59.9,98.6,125.3,76
				c64.7-22.4,109.8-77.5,142.7-135.3c34.3-60.3,49-103.5,74.7-173.1C376.1,137,386.8,107.2,413,86.3c10.4-8.3,26.5-10.8,33.6,6.4
				c6,14.7-14.4,39.6-17,25.5c-2.2-12.2,11.9-13.2,8.4-26.1c-2.8-10.2-14.9-6.2-24.4,1c-23.9,18-39.6,72.2-49.9,100.7
				c-31.5,87.2-48,137.5-85.3,201.6c-35.6,61.2-85.3,130.6-160.1,144.4C44.7,553.4-2,501,0.1,431c2-65.4,36.3-128.8,93.4-161.9
				c74.7-43.3,150.1-15.4,222.7,16.8c81.4,36.2,162.1,54.7,250.6,61.9c89.9,7.4,198.3,11.6,284-21.9
				C930,294.8,1026.5,181,939.1,90.6c-28.9-29.9-86.1-50.2-127.9-41.4c-14.6,3.1-41.1,11.6-44.3,29.3c-3.1,17.5,20.2,13,20.2,23.3
				c-0.1,16.5-26.6-1.5-28-15.5C757.4,69.6,772.2,52.5,787,46.9C784.9,52.5,785.5,47.5,787,46.9C820.6,41.6,785.1,47.6,787,46.9z"/>
		</g>
	</g>
	<g>
		<g>
			<path d="M373,276.6c-24.6,59.7-43.7,100.5-65.2,150.8c-5.1,12-10.4,24-15,36.2c-3.5,9.1-4.9,20-9.6,28.6
				c-3.9,7.1-11,9.1-14.8-0.2c-3.9-9.8,6-24.4,10.2-32.8c23.9-47.5,48.7-94.1,70.6-142.6c14.2-31.4,44.2-108.9,47.9-114.2
				c6.1-8.8,8.9-3.3,6.4,4.6C395.9,230.7,382.6,253.4,373,276.6z"/>
		</g>
		<g>
			<path d="M337,476C337,475.6,337,476.2,337,476c-0.2-22.8,28.7-93.3,52.4-138.5c14.9-28.4,46.5-98.3,49.1-106.2
				c4.1-12.7,2.1-15.3,0.1-11.7c-3.3,6-7.7,17.6-10.2,23.7c-22.4,56.8-54.7,108.5-78.1,164.8c-8.6,20.8-17,42-21.8,64
				C326.7,480.8,337,479.8,337,476z"/>
		</g>
		<g>
			<path d="M362.1,359.9c-23.2,33-72.6,111-75.6,116.5c-0.8,1.5-8.7,23.2-5.9,19.5c3.1-4.2,1.8-3.1,9.4-17.3c1.6-3,3.9-6.7,5.6-9.6
				c9.9-17.5,20-34.9,30.7-52c6.6-10.5,13.4-21,20.2-31.4c3.5-5.4,7.1-10.8,10.7-16.2c1.9-2.8,4.2-6,6.4-8.8
				C364.8,359,363.2,358.3,362.1,359.9z"/>
		</g>
	</g>
	<g>
		<path d="M887.3,456.5c2.9-3.6,6.3-10.4,8.8-14.3c2.1-3.2,7-7.3,1.1-8.1c-3.8-0.5-4.4,2.9-5.3,6.8c-1.1,4.9-3.9,11.2-5.5,14.9
			C886.2,456.4,887,456.9,887.3,456.5z"/>
	</g>
</g>
</svg>
