<svg xmlns="http://www.w3.org/2000/svg" viewBox="0 0 517.85 1108.99"><title>Asset 7</title><g id="Layer_2" data-name="Layer 2"><g id="Layer_2-2" data-name="Layer 2"><path d="M207.17,120.41c24.6,5.45,52.09-13.14,54.21-33.69.81-7.86-4.81-7.67-8.79-10.61-13-9.58-16.74-23.23-13-38.21,3.24-12.9,12.53-18.38,26-15.23,8.07,1.89,7.68-5,10.05-9.27C280.91,3.91,289.36-1.19,299.94.24,310.28,1.62,318,8.12,321.2,18.37c1.79,5.71,1.57,12,9.16,14,11.32,3,19.5,9.37,18.25,22.21-1.3,13.44-6.9,27.37-19.89,30.58-17.32,4.27-14.36,13.55-11.55,25,4.76,19.42,16.39,31.45,36.1,36.39,11.5,2.88,19.14-1,25-10.21s6.2-18.06-5.25-27.51c4.19,13.36,7.51,25.43-6.39,30.62-12,4.48-20.49-3.88-25.87-13.32-7-12.2-.84-21.86,9.29-29.12,13.31-9.54,27-9.68,39.41,1.36,12.92,11.52,14.74,26,7.15,41.12-2.6,5.19-7.63,9.16-12.84,15.18,11.83,6,23.69,3.75,35.07,3.52,22.1-.43,44.05.65,64.39,10,33.94,15.59,38.45,44.86,9.85,68.08-9.36,7.6-3.71,10.63.5,15.67C505.37,266.1,514.08,282,517,300.27c4.71,29.81-9.68,44.44-39,40.34-3.19-.45-5.88-1.32-7.85,1.76-14.92,23.31-35.63,44-35.22,74.4.09,7-1,17.12,12.09,10,5.08-2.76,10.64-1.44,13.79,3.89,2,3.44,1.2,7.32-1.46,10.51-3.93,4.69-10.17,6.28-14.37,3.61-19.45-12.36-18.43,3.34-20.81,14.46-9.62,45.07-21.82,89.29-45,131.38,12.89.86,24.72-.64,33.34,8.21,4.85,5,8.81,10.67,5.31,18.19-2.11,4.54-5.9,7.45-10.86,6-6.79-2-8.13-7-7.82-14.07.65-14.84-11.33-10.07-17-7.57-24.87,11-40.91,32.61-58.37,52.3-3.06,3.45-.35,6.43,1.32,10,9.9,21,.18,40.08-22.45,44.81a57.47,57.47,0,0,1-6.77.67c-54.16,4.7-67.63,20.27-65.15,76,.44,9.77,2.29,19.48,3.48,29.22s3.87,20.78-1.84,28.84c-8.73,12.33-5.54,26.43-8.51,37.67-8.79,33.18-1.63,72.65-32,99.17-6.64,5.8-11.63,14-15.86,21.95-10.35,19.33-8.26,38,6.39,54.42,20.49,23,20.15,25.35-7.66,35-1.42.49-2.83,1-4.25,1.55-10.48,3.76-17.68,20.3-28.5,15-15.63-7.65-28.82-20.66-42.27-32.29-9.79-8.46-4.83-16.13,3.87-22,33.85-22.72,38.54-51.19,23.63-84.07-11.41-25.17-17.09-52.15-1.36-78.35,6.11-10.18-11.58-20.27-.14-28.88s11.2-15.62,4.89-28.33c-6.73-13.56,2.15-27.9,8.7-40.71,10.79-21.1,19.16-42.53,17.34-67C155.05,704.87,146,690.54,124,686.25c-10.45-2-20.7-4.81-29.48-11.09-15.4-11-22-34.07-10.05-42.47,13.85-9.7,9.17-17.57,4-28.11-9.3-18.85-14.8-40.3-33.43-52.79-6.29-4.22-17.37-16.23-19.9,4.45-.73,6-5.92,8.69-11.92,7.81-4-.59-6.48-3.43-7.31-7.6-1.16-5.8.8-10.44,5.15-14.12,11.55-9.79,24.2-5.12,39.81-1.43-13.65-55.49-9.14-110-6.24-166.28-6.91,2.53-13.26,5.65-20,7.09-6.19,1.33-12-.81-15.46-6.9-2-3.57-2.4-7.49,0-10.67,4.59-6,10.8-5.61,16-1.48,12.4,9.78,14.89-1.53,16.34-8.62,5.55-27.21-5.39-52-13.24-77.16-1.15-3.69-4.12-3.44-7.09-4.1-30.47-6.8-39.7-28.46-23-55.15,9.3-14.82,20.61-28.29,36.78-36.11,8.83-4.27,8.06-7,2.49-14.57-18.46-25.22-9.25-49.8,20.77-59.51,24-7.75,46.21.35,68.68,6.72,13.48,3.82,26.09,11.18,41.36,11.07-13.67-29.54-10.61-47.51,9-57.28,16.14-8,36-.66,43.73,16.26C237.9,99.17,233,107.21,207.17,120.41ZM170.33,731.49c.82-11.89,1.62-23.78,2.48-35.67.29-4.07-.84-7.83-4.72-9.15-2.56-.87-6.4-.79-8.56.59-4.2,2.68-1.21,6.57-.11,9.95q5.56,17,11.14,34l4.81,13.32c-8,19.77-23.21,36-28.91,57.86C160,798.8,161.2,782.81,173.16,779c-8.65,22.59-27.26,44.65-4.58,69.48,1.59-.9,2.73-1.19,2.81-1.66,3.11-17.54,6.25-35.08,9.08-52.67,1.32-8.22,7.67-16.94-1.65-24.5.11-11.39,10.66-19.94,8.89-32.65l-12.62,7.75c1.07-3.5,1.73-7.2,3.3-10.47,5.48-11.4,11.79-22.43,16.78-34,3.27-7.6,2.36-16.12-7.44-17.4-9.43-1.23-5.61,8.13-7.51,13C175.71,707.44,180.16,721.49,170.33,731.49Zm27.89,44.12c-11.76,24.75-10.32,51.53-15.78,79.57,23.75-10.63,30.26-27.39,23-51.94-2.75-9.31-8.71-17.74-7.57-28.09,13.6,11.4,12.1,31.84,25.82,44.51,0-23.47-8.39-51.93-23.83-80.85ZM180,962c2.78,1.34-.38,13.3,6.73,5.25,8.81-10,16.25-21.74,18.76-36.36-15.94,6.19-13,24.89-25.87,31.57,2.92-19.19,12.73-37.12,11-57.06-.48-5.45-.48-13.65-8.31-14.18-7.65-.52-6.17,7.38-6.95,11.9-4.91,28.79-9.34,57.66-14.48,90C170.74,981.7,170,968.59,180,962ZM66.78,439.78C65,479.33,66.63,518.43,82.9,555.4,97.17,587.83,120,610,156.52,615.57q57.06,8.63,114.06,17.66c36.34,5.71,65.22-6,86.78-36.05,16.06-22.36,27.37-47.09,34.92-73.25,24.09-83.39,40.17-168.7,59.48-253.24,10.37-45.4-6.92-71.93-51.71-83.81-42.82-11.36-83.91-26.35-110.17-65.68-3.89-5.82-7.34-6.31-12.67-2C239,149.77,193.66,150.76,148,149.46c-43.7-1.25-68.27,20.34-70.47,64C73.77,288.89,70.36,364.34,66.78,439.78ZM235.57,643.9c-23.86,19.77-38.34,18.3-56.61-5.76-1.61,11.75,13.86,39.28,22.78,40.54C210.41,679.91,233.91,655.75,235.57,643.9Zm-80.4,314.81c3.28-19.74,6.68-39.46,9.75-59.22.65-4.17,2.27-10-2.72-11.91-7.08-2.71-9,4.25-10.26,8.74C146.32,917.25,148.4,938.26,155.17,958.71ZM220.87,757c0-19.36,0-38.73,0-58.09,0-4.63,4.53-11.57-4-12.15-6.16-.41-8.37,5.67-8.53,11.15C207.73,718.49,205.67,739.34,220.87,757Zm37-79.68C275.33,697,303.17,703.71,315,691.89c8.13-8.09,11.06-16.36-4.76-26.58,5,11.73,7.87,19.66-1.82,24.91-5.08,2.75-12,3.7-14-1.66C286.83,668.23,271.66,678.83,257.85,677.35ZM142,659.62c-8-1.69-13.47-13.24-22.37-5.89C113.29,659,108.81,666.64,99,659.2s-2.3-15.38,1-24.48c-17.33,6.2-13.65,16.85-7.86,24.37C107.41,678.85,125.1,669.68,142,659.62ZM295.59,25.27c6.76,2.31-.17,12.42,8.58,13.64,6.14-9.36,12.27-18.86-.66-26.79-6.14-3.77-13.8-2.84-17,4.93-2.45,6-3.38,12.85,2.81,19.23ZM127.26,914.11c-.11,22.08,4.49,40.33,15.66,61.57C143.92,951.15,142.31,932.09,127.26,914.11Zm-77.8-702c-12.2-3.77-21.11-3-25.46,8.48-2.29,6.07.95,10.1,7.09,11.19C48,234.81,42.8,219.23,49.46,212.14ZM228.22,727.25c2.86-10.51,20.08-13.24,14.47-26.86-1-2.39-7.86-5.13-9.52-4C221.52,704.25,228.4,716.52,228.22,727.25Zm-91.54-51.57c13.82,2.15,27.2,2.53,43.62-8.9C160.66,661.93,148.5,668.32,136.68,675.68ZM124.81,131.37c-14.73-5.07-27.61-10.61-41.82-3.72C96.59,126.45,108.1,144.95,124.81,131.37Zm342.12,82.5c1.42,15.13,9.59,18.44,19.37,15.56,13.16-3.88,18.42-13.56,15.09-30C492.71,226.58,489,228.11,466.93,213.87Zm8.26,57c7.75,13.62-.42,25.75,12.18,31.53,3.05,1.4,8.25.87,8.72-4C497.26,286.51,489.54,280.27,475.19,270.89Zm5.1,57.16c8.59,9.47,15.13,8.38,20.86,1.57,8.78-10.43,12.58-21.74,3.28-35.49C501.22,308.9,509.92,330.8,480.29,328ZM252.38,56.4c4.22-9.69,18.54-4.54,17.23-17.5-.4-4-6-7.33-10.92-5.8C248.06,36.42,248.39,44.29,252.38,56.4ZM48.52,137.23c-2.74,12.43,1,21.38,11,26.88,6,3.28,12.88,5.16,17.83-6.73C57.84,164.1,50.47,154.6,48.52,137.23Z"/><path d="M105.94,568.41C76.8,531.35,75.65,487,76.88,443.54c2.05-72.36,7.67-144.61,11.42-216.93.67-13,2.77-25.46,8.34-37.21,11.3-23.85,32.36-35.84,58.59-33.54,24.07,2.11,48,3,72.11-1.12,21.43-3.68,41.35-8.68,54.15-29.79L295,152.58l-2.76,2.91c-8.08-9.64-16.16-13-28.05-4.3-6.92,5-16.55,6.75-25.22,8.94-29,7.31-58.47,3.73-87.79,3.8-27.91.07-44.86,13.33-51.71,40.58-3.33,13.25-3.73,26.76-4.43,40.34-2.39,46.62-6.49,93.18-7.92,139.83C85.25,446,76.21,508.57,109,565.86Z"/><path d="M295,152.58c28,18.33,58.52,30.33,91,38.34,42.07,10.38,62.36,37,52.78,80-19.64,88-36.92,176.69-65.26,262.56-1.38,4.17-4,7.93-6.07,11.88l-2.59-1.9c25.91-86.45,44.28-174.77,65.07-262.48,11.23-47.41-4-72-51.29-84.63C347.46,188,315.88,180,292.25,155.49Z"/><path d="M367.44,545.32c-17.29,57.61-49.82,79.66-108.5,72.28-32.72-4.11-65.34-9.19-97.85-14.76-22.76-3.9-43.42-12.31-55.16-34.43l3.07-2.55c15.43,16.12,33.12,27.66,56,30.49,23.8,2.94,48.1,4.75,71,11.14,63.07,17.58,105-4.15,128.78-64.07Z"/><path d="M255.94,243.23c4-5.42,9.12-9.19,16.46-10.51-.7,9.33-8.09,10.55-14.37,13Z"/><path d="M258,245.7c-2.24,4.16-5.52,6.78-10.42,6.79-.51,0-1.58-1.2-1.47-1.49,1.7-4.5,5.1-7,9.8-7.77Z"/></g></g></svg>