<?xml version="1.0" encoding="utf-8"?>
<!-- Generator: Adobe Illustrator 20.0.0, SVG Export Plug-In . SVG Version: 6.00 Build 0)  -->
<svg version="1.1" id="Layer_1" xmlns="http://www.w3.org/2000/svg" xmlns:xlink="http://www.w3.org/1999/xlink" x="0px" y="0px"
	 viewBox="0 0 328.6 43.9" style="enable-background:new 0 0 328.6 43.9;" xml:space="preserve">
<style type="text/css">
	.st0{fill:url(#SVGID_1_);}
	.st1{fill:url(#SVGID_2_);}
	.st2{fill:url(#SVGID_3_);}
	.st3{fill:url(#SVGID_4_);}
	.st4{fill:url(#SVGID_5_);}
	.st5{fill:url(#SVGID_6_);}
	.st6{fill:url(#SVGID_7_);}
	.st7{fill:url(#SVGID_8_);}
</style>
<title>musthave</title>
<g>
	<linearGradient id="SVGID_1_" gradientUnits="userSpaceOnUse" x1="324" y1="21.6721" x2="-124.9023" y2="21.6721">
		<stop  offset="0" style="stop-color:#F4A975"/>
		<stop  offset="0.5271" style="stop-color:#A03D23"/>
		<stop  offset="1" style="stop-color:#59082D"/>
	</linearGradient>
	<path class="st0" d="M37.2,0.6h3.9v42.1h-11V23.4l-8.9,9.4H20L11,23.4v19.4H0V0.6h3.9l16.7,18.2L37.2,0.6z"/>
	<linearGradient id="SVGID_2_" gradientUnits="userSpaceOnUse" x1="324" y1="22.0021" x2="-124.9023" y2="22.0021">
		<stop  offset="0" style="stop-color:#F4A975"/>
		<stop  offset="0.5271" style="stop-color:#A03D23"/>
		<stop  offset="1" style="stop-color:#59082D"/>
	</linearGradient>
	<path class="st1" d="M49.8,28.9V0.7h11v27.9c0,3.5,3.1,5,6.2,5c2.9,0,6.1-1.5,6.1-5V0.7h10.9v28.1c0,9.4-8.2,14.4-17,14.4
		C58,43.3,49.8,38.3,49.8,28.9z"/>
	<linearGradient id="SVGID_3_" gradientUnits="userSpaceOnUse" x1="324" y1="21.7321" x2="-124.9023" y2="21.7321">
		<stop  offset="0" style="stop-color:#F4A975"/>
		<stop  offset="0.5271" style="stop-color:#A03D23"/>
		<stop  offset="1" style="stop-color:#59082D"/>
	</linearGradient>
	<path class="st2" d="M100.8,29.8c0,2.9,3.3,4.3,6.7,4.3c3.1,0,6.4-1.4,6.4-4c0-4-4.7-4.2-7.7-4.4c-7.7-0.5-15.4-3.5-15.4-12.3
		c0-9.1,7.7-13.7,16.3-13.7c8.1,0,16.3,4.6,16.1,13.7H113c-0.1-2.9-2.8-4.1-5.7-4.1c-2.5,0-5.7,0.7-5.7,3.8c0,2.8,2.4,3.5,6.4,3.9
		c8.9,0.8,16.7,2.9,16.7,13.1c0,8.8-8.6,13.4-17.2,13.4c-8.9,0-17.4-4.4-17.2-13.9H100.8z"/>
	<linearGradient id="SVGID_4_" gradientUnits="userSpaceOnUse" x1="324" y1="21.7321" x2="-124.9023" y2="21.7321">
		<stop  offset="0" style="stop-color:#F4A975"/>
		<stop  offset="0.5271" style="stop-color:#A03D23"/>
		<stop  offset="1" style="stop-color:#59082D"/>
	</linearGradient>
	<path class="st3" d="M128.6,10.3V0.7h31.2v9.6h-10.3v32.4H139V10.3H128.6z"/>
	<linearGradient id="SVGID_5_" gradientUnits="userSpaceOnUse" x1="324" y1="21.7321" x2="-124.9023" y2="21.7321">
		<stop  offset="0" style="stop-color:#F4A975"/>
		<stop  offset="0.5271" style="stop-color:#A03D23"/>
		<stop  offset="1" style="stop-color:#59082D"/>
	</linearGradient>
	<path class="st4" d="M202.2,42.7V25.9h-13v16.8h-11v-42h11v15.2h13V0.7h11v42H202.2z"/>
	<linearGradient id="SVGID_6_" gradientUnits="userSpaceOnUse" x1="324" y1="21.5222" x2="-124.9023" y2="21.5222">
		<stop  offset="0" style="stop-color:#F4A975"/>
		<stop  offset="0.5271" style="stop-color:#A03D23"/>
		<stop  offset="1" style="stop-color:#59082D"/>
	</linearGradient>
	<path class="st5" d="M231.8,37.5l-2.4,5.2h-11.5v-1.5l19.3-40.9h5l19.1,40.9v1.5H250l-2.5-5.2H231.8z M235.3,28.3h8.7l-4.4-10.1
		L235.3,28.3z"/>
	<linearGradient id="SVGID_7_" gradientUnits="userSpaceOnUse" x1="324" y1="21.942" x2="-124.9023" y2="21.942">
		<stop  offset="0" style="stop-color:#F4A975"/>
		<stop  offset="0.5271" style="stop-color:#A03D23"/>
		<stop  offset="1" style="stop-color:#59082D"/>
	</linearGradient>
	<path class="st6" d="M276.2,24.2l3.4-11l5.2-12.5h11.7v1.6l-18.1,40.8h-4.6L255.5,2.4V0.7h11.7l5.3,12.5l3.5,11H276.2z"/>
	<linearGradient id="SVGID_8_" gradientUnits="userSpaceOnUse" x1="324" y1="21.7321" x2="-124.9023" y2="21.7321">
		<stop  offset="0" style="stop-color:#F4A975"/>
		<stop  offset="0.5271" style="stop-color:#A03D23"/>
		<stop  offset="1" style="stop-color:#59082D"/>
	</linearGradient>
	<path class="st7" d="M328,10.3h-15.2v6h14v9.6h-14v6.8h15.8v10h-26.8v-42H328V10.3z"/>
</g>
</svg>
