<svg xmlns="http://www.w3.org/2000/svg" viewBox="0 0 343.72 344.92"><defs><style>.cls-1{fill:#ffffff;}</style></defs><title>ok-icon</title><g id="Layer_2" data-name="Layer 2"><g id="Layer_2-2" data-name="Layer 2"><path class="cls-1" d="M312.74,79.83A152.14,152.14,0,0,1,333.93,130a137,137,0,0,1,.67,54.22,158,158,0,0,1-19.25,50.73,189.13,189.13,0,0,1-34.06,42.34A202,202,0,0,1,237,308.7a185.67,185.67,0,0,1-51.09,18A156.92,156.92,0,0,1,132,327.77a142.89,142.89,0,0,1-50.48-18.12,11.55,11.55,0,0,1-1.07-.63l-3.06-1.91-2.24-1.4c-.82-.51-1.67-1.14-2.61-1.78-1.9-1.26-4-2.87-6.3-4.64A119.25,119.25,0,0,1,51,284.7a120.66,120.66,0,0,1-8-10.25c-.67-.93-1.33-1.88-1.95-2.88l-1.93-3c-1.21-2.08-2.51-4.17-3.66-6.41s-2.31-4.53-3.45-6.88-2.16-4.83-3.12-7.37a143.62,143.62,0,0,1-5.22-16,169,169,0,0,1-5.25-36A207.29,207.29,0,0,1,30.94,118c9.18-25.4,23.34-49.09,41-67a134.78,134.78,0,0,1,28.27-22.23l3.71-2.07,3.73-1.89c2.51-1.2,5.07-2.28,7.54-3.4.62-.27,1.23-.56,1.85-.82l1.88-.71,3.7-1.41c2.42-1,4.88-1.73,7.27-2.49l3.55-1.13c1.18-.35,2.36-.62,3.52-.93l3.44-.89,1.69-.44,1.69-.33,6.54-1.28,6.23-.85c2-.33,4-.41,5.86-.57l2.79-.21,1.35-.1,1.33,0c3.51,0,6.74-.2,9.65,0l4.13.17c1.3,0,2.5.23,3.63.32,2.25.25,4.17.37,5.71.62l4.72.75a142,142,0,0,1,49.48,18.85,169.14,169.14,0,0,1,40.42,34.58,188.15,188.15,0,0,1,28.65,44.93,191.71,191.71,0,0,1,9.33,25,179,179,0,0,1,5.48,26l.32,2.36c.25,1.54.39,3.81.66,6.69l.2,2.28.11,2.51c.06,1.74.17,3.63.21,5.64l0,6.41c-.07,2.25-.25,4.62-.37,7.08s-.51,5-.77,7.66-.83,5.34-1.26,8.13l-.9,4.19c-.32,1.41-.56,2.86-1,4.27-.81,2.84-1.48,5.79-2.52,8.68l-1.46,4.4L320.52,235l-.87,2.2c-.29.74-.66,1.44-1,2.17l-2,4.35c-.68,1.45-1.5,2.84-2.25,4.28s-1.47,2.88-2.37,4.24c-1.71,2.76-3.35,5.58-5.29,8.2-.95,1.32-1.84,2.69-2.83,4l-3,3.82-1.51,1.91L297.74,272l-3.22,3.6c-1.07,1.19-2.26,2.28-3.38,3.41s-2.23,2.26-3.39,3.33l-3.53,3.11c-1.17,1-2.29,2.09-3.53,3a167.32,167.32,0,0,1-28.12,18.45,210.92,210.92,0,0,1-21.89,9.79L224.36,319c-.73.28-1.29.47-1.67.58l-.57.18a146.5,146.5,0,0,1-51.25,7.78,144.37,144.37,0,0,1-50.43-10.77c-32-13.07-59.41-37.09-77.39-66.42a150.54,150.54,0,0,1-19.28-47.28,119.69,119.69,0,0,1-.25-50.13,103.24,103.24,0,0,1,8.18-23.72,149.42,149.42,0,0,1,13.06-21.76A203.28,203.28,0,0,1,61.37,87.25c6-6.55,12.48-13,19.16-19.7l-.61-1.07a107.18,107.18,0,0,0-65.8,53.91A128.54,128.54,0,0,0,3.66,148.34a134.1,134.1,0,0,0-.72,59.09,165.47,165.47,0,0,0,22.14,54.13A183.84,183.84,0,0,0,63.52,305a178.1,178.1,0,0,0,50.08,29.16,164.13,164.13,0,0,0,57,10.71,168.08,168.08,0,0,0,56.89-9.62l.63-.21c.42-.13,1-.35,1.8-.66l6.74-2.62a226.9,226.9,0,0,0,23.44-11,182.85,182.85,0,0,0,30.41-20.69c1.34-1,2.56-2.23,3.84-3.38l3.83-3.5c1.27-1.2,2.46-2.49,3.7-3.74s2.5-2.5,3.67-3.84l3.51-4.06,1.76-2,1.65-2.14,3.29-4.3c1.08-1.45,2-3,3.08-4.48,2.1-3,3.88-6.11,5.73-9.21,1-1.53,1.71-3.17,2.56-4.75s1.68-3.17,2.42-4.79l2.16-4.86c.35-.81.74-1.6,1-2.42l.93-2.46,1.83-4.87,1.54-4.88c1.09-3.21,1.79-6.47,2.62-9.61.44-1.57.68-3.16,1-4.72l.91-4.62c.42-3.06.9-6,1.23-8.92s.57-5.68.7-8.37.24-5.26.27-7.71l-.07-7c-.07-2.18-.23-4.21-.32-6.1l-.16-2.71-.26-2.45c-.34-3.11-.54-5.55-.83-7.2l-.38-2.53a192.9,192.9,0,0,0-6.4-27.71,205.09,205.09,0,0,0-10.4-26.38,200.6,200.6,0,0,0-31.14-47.09,180.32,180.32,0,0,0-43.44-36A152.07,152.07,0,0,0,197.24,1.92l-5.05-.76c-1.65-.25-3.7-.37-6.1-.62-1.2-.09-2.49-.28-3.88-.31L177.8.08c-3.11-.19-6.55,0-10.29.07l-1.42,0-1.44.12-3,.25c-2,.18-4.11.29-6.24.65l-6.62,1-6.93,1.41-1.79.37-1.79.47-3.64,1c-1.22.33-2.48.63-3.72,1l-3.74,1.22c-2.52.82-5.11,1.62-7.65,2.68l-3.88,1.51-2,.77c-.65.27-1.29.58-1.94.87-2.59,1.19-5.24,2.34-7.9,3.63l-4,2.06-4,2.25A143.17,143.17,0,0,0,66,45.2C47.53,64.24,33,89,23.69,115.38a214.68,214.68,0,0,0-12.37,80.84,176,176,0,0,0,5.73,37.45,150.44,150.44,0,0,0,5.58,16.71c1,2.66,2.2,5.2,3.33,7.71s2.38,4.91,3.68,7.21,2.61,4.54,3.9,6.72l2.05,3.15c.66,1,1.36,2,2.08,3A127.17,127.17,0,0,0,46.16,289a125.61,125.61,0,0,0,16.21,15.26c2.47,1.86,4.66,3.53,6.67,4.84,1,.67,1.9,1.32,2.76,1.85l2.34,1.44,3.2,2a12.48,12.48,0,0,0,1.11.65,149,149,0,0,0,52.74,18.29,162.38,162.38,0,0,0,55.65-1.69,190.43,190.43,0,0,0,52.21-19,205.94,205.94,0,0,0,44.89-32.53,192.34,192.34,0,0,0,34.25-43.5,160.59,160.59,0,0,0,19-51.9,138.87,138.87,0,0,0-1.36-55.12,153.11,153.11,0,0,0-22.1-50.41Z"/><path class="cls-1" d="M90.24,181.59c.47.32,1.27,1,1.94,1.52l2.1,1.83c1.4,1.26,2.78,2.59,4.14,3.95,2.69,2.76,5.3,5.66,7.83,8.64,5,6,9.73,12.35,14.21,18.87S129,229.73,133,236.62s7.6,14,11.14,21.12l1.31,2.69,1.11,2.33,2.18,4.75c1.46,3.23,2.92,6.61,4.45,10.21,3.06,7.21,6.38,15.36,10.25,24.84l.09.22,0,.11,0,.06s0,0,0,0l.11-.21,8.2-18.25c1.68-3.75,3.48-7.78,5.43-12.26,1-2.25,2-4.56,3.11-7l1.69-3.75.22-.48.17-.34.34-.68.69-1.36c14.32-29,28.41-57.59,42-87,6.72-14.72,13.39-29.66,19.4-45,3.09-7.64,5.91-15.43,8.7-23.28,1.39-3.93,2.68-7.91,4-11.92l1.91-6.06c.63-2.1,1.18-4,1.79-6.46l.11-.45c2-8.21-3.23-16.58-11.7-18.71s-16.94,2.67-18.91,10.78a16.44,16.44,0,0,0-.4,2.66c-.09,1.51-.33,3.58-.55,5.42l-.76,5.74c-.56,3.84-1.24,7.69-2,11.53-1.45,7.71-3.29,15.38-5.23,23-4,15.3-8.79,30.48-14.17,45.46s-11.1,29.87-17.16,44.64-12.32,29.51-18.87,44.18l-1.2,2.74-.6,1.33-.46.87c-.62,1.13-1.22,2.19-1.8,3.16-1.12,2-2.14,3.54-3,4.9a42.76,42.76,0,0,1-4,5.37l0,0,0,0a1.92,1.92,0,0,1-.07-.2l-.14-.44-.28-.85-.52-1.61-.91-2.89L157.27,261l-1.08-3.45-.46-1.41-.22-.65-1.26-2.67q-5.22-11-11-21.81c-3.81-7.22-7.83-14.34-12.13-21.33s-8.76-13.91-13.64-20.65c-2.43-3.38-5-6.7-7.66-10-1.33-1.64-2.7-3.27-4.15-4.89-.72-.81-1.46-1.61-2.24-2.41s-1.5-1.55-2.6-2.52l-.25-.22a8.32,8.32,0,0,0-11.51.71A7.79,7.79,0,0,0,89.41,181,8.6,8.6,0,0,0,90.24,181.59Z"/></g></g></svg>