<svg xmlns="http://www.w3.org/2000/svg" viewBox="0 0 343.72 404.6"><defs><style>.cls-1{fill:#ffffff;}</style></defs><title>ok-icon_1</title><g id="Layer_2" data-name="Layer 2"><g id="Layer_2-2" data-name="Layer 2"><path class="cls-1" d="M312.74,139.51a152.14,152.14,0,0,1,21.19,50.16,137,137,0,0,1,.67,54.22,158,158,0,0,1-19.25,50.73A189.13,189.13,0,0,1,281.29,337,202,202,0,0,1,237,368.38a185.67,185.67,0,0,1-51.09,18A156.92,156.92,0,0,1,132,387.45a142.89,142.89,0,0,1-50.48-18.12,11.55,11.55,0,0,1-1.07-.63l-3.06-1.91-2.24-1.4c-.82-.51-1.67-1.14-2.61-1.78-1.9-1.26-4-2.87-6.3-4.64A119.25,119.25,0,0,1,51,344.37a120.66,120.66,0,0,1-8-10.25c-.67-.93-1.33-1.88-1.95-2.88l-1.93-3c-1.21-2.08-2.51-4.17-3.66-6.41s-2.31-4.53-3.45-6.88-2.16-4.83-3.12-7.37a143.62,143.62,0,0,1-5.22-16,169,169,0,0,1-5.25-36,207.29,207.29,0,0,1,12.49-77.94c9.18-25.4,23.34-49.09,41-67a134.78,134.78,0,0,1,28.27-22.23l3.71-2.07,3.73-1.89c2.51-1.2,5.07-2.28,7.54-3.4.62-.27,1.23-.56,1.85-.82l1.88-.71,3.7-1.41c2.42-1,4.88-1.73,7.27-2.49l3.55-1.13c1.18-.35,2.36-.62,3.52-.93l3.44-.89,1.69-.44,1.69-.33,6.54-1.28,6.23-.85c2-.33,4-.41,5.86-.57l2.79-.21,1.35-.1,1.33,0c3.51,0,6.74-.2,9.65,0l4.13.17c1.3,0,2.5.23,3.63.32,2.25.25,4.17.37,5.71.62l4.72.75a142,142,0,0,1,49.48,18.85,169.14,169.14,0,0,1,40.42,34.58,188.15,188.15,0,0,1,28.65,44.93,191.71,191.71,0,0,1,9.33,25,179,179,0,0,1,5.48,26l.32,2.36c.25,1.54.39,3.81.66,6.69l.2,2.28.11,2.51c.06,1.74.17,3.63.21,5.64l0,6.41c-.07,2.25-.25,4.62-.37,7.08s-.51,5-.77,7.66-.83,5.34-1.26,8.13l-.9,4.19c-.32,1.41-.56,2.86-1,4.27-.81,2.84-1.48,5.79-2.52,8.68l-1.46,4.4-1.73,4.37-.87,2.2c-.29.74-.66,1.44-1,2.17l-2,4.35c-.68,1.45-1.5,2.84-2.25,4.28s-1.47,2.88-2.37,4.24c-1.71,2.76-3.35,5.58-5.29,8.2-.95,1.32-1.84,2.69-2.83,4l-3,3.82-1.51,1.91-1.62,1.81-3.22,3.6c-1.07,1.19-2.26,2.28-3.38,3.41s-2.23,2.26-3.39,3.33l-3.53,3.11c-1.17,1-2.29,2.09-3.53,3a167.32,167.32,0,0,1-28.12,18.45,210.92,210.92,0,0,1-21.89,9.79l-6.33,2.34c-.73.28-1.29.47-1.67.58l-.57.18a146.5,146.5,0,0,1-51.25,7.78,144.37,144.37,0,0,1-50.43-10.77C88.4,363.39,61,339.37,43.05,310a150.54,150.54,0,0,1-19.28-47.28,119.69,119.69,0,0,1-.25-50.13,103.24,103.24,0,0,1,8.18-23.72,149.42,149.42,0,0,1,13.06-21.76,203.28,203.28,0,0,1,16.62-20.21c6-6.55,12.48-13,19.16-19.7l-.61-1.07a107.18,107.18,0,0,0-65.8,53.91A128.54,128.54,0,0,0,3.66,208a134.1,134.1,0,0,0-.72,59.09,165.47,165.47,0,0,0,22.14,54.13,183.84,183.84,0,0,0,38.44,43.49,178.1,178.1,0,0,0,50.08,29.16,164.13,164.13,0,0,0,57,10.71A168.08,168.08,0,0,0,227.45,395l.63-.21c.42-.13,1-.35,1.8-.66l6.74-2.62a226.9,226.9,0,0,0,23.44-11,182.85,182.85,0,0,0,30.41-20.69c1.34-1,2.56-2.23,3.84-3.38l3.83-3.5c1.27-1.2,2.46-2.49,3.7-3.74s2.5-2.5,3.67-3.84l3.51-4.06,1.76-2,1.65-2.14,3.29-4.3c1.08-1.45,2-3,3.08-4.48,2.1-3,3.88-6.11,5.73-9.21,1-1.53,1.71-3.17,2.56-4.75s1.68-3.17,2.42-4.79l2.16-4.86c.35-.81.74-1.6,1-2.42l.93-2.46,1.83-4.87L337,290.1c1.09-3.21,1.79-6.47,2.62-9.61.44-1.57.68-3.16,1-4.72l.91-4.62c.42-3.06.9-6,1.23-8.92s.57-5.68.7-8.37.24-5.26.27-7.71l-.07-7c-.07-2.18-.23-4.21-.32-6.1l-.16-2.71-.26-2.45c-.34-3.11-.54-5.55-.83-7.2l-.38-2.53a192.9,192.9,0,0,0-6.4-27.71,205.09,205.09,0,0,0-10.4-26.38A200.6,200.6,0,0,0,293.76,117a180.32,180.32,0,0,0-43.44-36A152.07,152.07,0,0,0,197.24,61.6l-5.05-.76c-1.65-.25-3.7-.37-6.1-.62-1.2-.09-2.49-.28-3.88-.31l-4.41-.15c-3.11-.19-6.55,0-10.29.07l-1.42,0-1.44.12-3,.25c-2,.18-4.11.29-6.24.65l-6.62,1-6.93,1.41-1.79.37-1.79.47-3.64,1c-1.22.33-2.48.63-3.72,1l-3.74,1.22c-2.52.82-5.11,1.62-7.65,2.68l-3.88,1.51-2,.77c-.65.27-1.29.58-1.94.87-2.59,1.19-5.24,2.34-7.9,3.63l-4,2.06-4,2.25A143.17,143.17,0,0,0,66,104.88c-18.48,19-33,43.79-42.31,70.17A214.68,214.68,0,0,0,11.32,255.9a176,176,0,0,0,5.73,37.45,150.44,150.44,0,0,0,5.58,16.71c1,2.66,2.2,5.2,3.33,7.71s2.38,4.91,3.68,7.21,2.61,4.54,3.9,6.72l2.05,3.15c.66,1,1.36,2,2.08,3a127.17,127.17,0,0,0,8.5,10.76,125.61,125.61,0,0,0,16.21,15.26c2.47,1.86,4.66,3.53,6.67,4.84,1,.67,1.9,1.32,2.76,1.85L74.15,372l3.2,2a12.48,12.48,0,0,0,1.11.65,149,149,0,0,0,52.74,18.29,162.38,162.38,0,0,0,55.65-1.69,190.43,190.43,0,0,0,52.21-19,205.94,205.94,0,0,0,44.89-32.53,192.34,192.34,0,0,0,34.25-43.5,160.59,160.59,0,0,0,19-51.9,138.87,138.87,0,0,0-1.36-55.12,153.11,153.11,0,0,0-22.1-50.41Z"/><path class="cls-1" d="M83.43,186.7c.57.52,1.54,1.54,2.36,2.41L88.39,192c1.74,2,3.47,4,5.17,6.12,3.38,4.24,6.71,8.67,9.94,13.2,6.46,9.09,12.56,18.66,18.43,28.41s11.37,19.82,16.75,30,10.41,20.5,15.4,30.89l3.69,7.81,3.54,7.66c2.06,4.58,4.17,9.31,6.36,14.34l7,16.05,3.83,8.85.5,1.15.06.14s0-.06,0-.08l.08-.21.15-.42.61-1.69,1.25-3.46,5.56-14.82c1-2.66,2.07-5.44,3.19-8.36l3.5-9.09,1.83-4.74,1.63-4,1.64-4,1.72-3.94,7-15.89c9.48-21.24,18.86-42.48,28.45-63.68l28.94-63.83c9.53-21.45,19.1-43.1,28-65.21,4.53-11,8.77-22.2,13-33.44,2.1-5.64,4.1-11.33,6.11-17.06l3-8.66c1-3,1.88-5.69,2.91-9.19l.19-.64c3.42-11.64-.85-22.39-9.53-24s-18.44,6.34-21.81,17.88a32.61,32.61,0,0,0-.84,3.74c-.34,2.1-.93,5-1.45,7.58l-1.72,8c-1.21,5.39-2.54,10.82-3.95,16.24-2.78,10.87-6,21.74-9.28,32.61-6.74,21.72-14.32,43.38-22.43,64.89s-16.53,43-25.15,64.37-17.19,42.84-26,64.21c-2.09,5.32-4.31,10.71-6.53,16.13-1.1,2.71-2.26,5.42-3.31,8.17l-1.58,4.11-.78,2.06c-.06.15-.15.4-.18.46l-.12.26-.24.52c-1.28,2.73-2.42,5-3.38,6.92s-1.76,3.51-2.48,4.83c-.36.61-.7,1.16-1,1.64v0l0-.06,0-.13-.09-.26-.18-.5-.35-1-.66-1.85L172.53,315l-1.59-4.59c-.07-.18-.1-.3-.19-.53l-.91-2-1.84-4-3.69-8q-7.42-16-15.36-31.77T132.47,232.7c-5.71-10.4-11.72-20.67-18.14-30.77q-4.79-7.59-10-15c-1.74-2.48-3.51-5-5.36-7.42-.93-1.23-1.87-2.46-2.86-3.69s-1.91-2.38-3.28-3.9l-.31-.35c-4.09-4.54-9.64-5-12.42-1.12s-1.73,10.71,2.33,15.23C82.74,186,83.1,186.41,83.43,186.7Z"/></g></g></svg>