<svg xmlns="http://www.w3.org/2000/svg" viewBox="0 0 347.98 318.18"><defs><style>.cls-1{fill:#010101;}</style></defs><title>person</title><g id="Layer_2" data-name="Layer 2"><g id="Layer_2-2" data-name="Layer 2"><path class="cls-1" d="M346.87,283.78c-.07-.88-.3-1.8-.45-2.7l-.5-2.68-1-5.27L343.5,268l-.69-2.53a23.29,23.29,0,0,0-.72-2.38l-1.44-3.88c-.47-1.28-.93-2.56-1.51-3.8l-.25-.58a13.38,13.38,0,0,0-.1-3.28,13.11,13.11,0,0,0-2.35-5.7,14,14,0,0,0-2.26-2.39,13.45,13.45,0,0,0-1.43-1q-2.51-4.37-5.35-8.49a125.76,125.76,0,0,0-11-13.77l.09-.42c.08-.39.14-.79.19-1.18s.09-.79.11-1.19a17.19,17.19,0,0,0-.16-3.46,16.82,16.82,0,0,0-2.84-7.13l-.33-.46v0c-8.89-8.18-2.53-2.31-4.54-4.15l-1-.54c-.65-.35-1.32-.66-2-.95a17.72,17.72,0,0,0-4.24-1.21c-.73-.12-1.47-.21-2.21-.26s-1.28,0-1.94,0-1.28.09-1.91.17l-.94.14-.73.16c-.39.09-.78.2-1.16.31-3.71-2.51-7.52-4.85-11.41-7l.64-1.66a17,17,0,0,0-1.81-.56l-.92-.2-.8-.12c-.54-.07-1.08-.11-1.62-.13h-.43c-1.18-.61-2.35-1.23-3.54-1.81a175.52,175.52,0,0,0-21.83-8.83,195.64,195.64,0,0,0-22.69-6.08,214.83,214.83,0,0,0-46.71-4.33,205.35,205.35,0,0,0-46.78,6.2,180.5,180.5,0,0,0-22.69,7.51A149.25,149.25,0,0,0,90.6,193.77a146.81,146.81,0,0,0-20,14.35A144.66,144.66,0,0,0,53.18,226l-2,2.46-1,1.23L49.28,231l-3.69,5.15C43.33,239.7,41,243.23,39,246.94l-1,1.7-1,1.75-1,2.05-2.82,5.66-2.51,5.68c-.41.94-.84,1.86-1.2,2.74l-1,2.47a58.67,58.67,0,0,0-1.93,5.62A44.75,44.75,0,0,0,25.2,288a46.75,46.75,0,0,0,.53,4.88l-4.21,1c-.84.2-1.79.37-2.62.58s-1.6.4-2.14.51-1.35.31-2,.5A24.09,24.09,0,0,0,3.9,302.3C1.26,305.38-.2,308.82,0,311.77a6.54,6.54,0,0,0,4.78,5.84,12,12,0,0,0,4.56.54,16.16,16.16,0,0,0,2.58-.37c.88-.21,1.79-.48,2.74-.77l.58-.19c2.52-.83,4.21-1.51,6.19-2.23s3.82-1.27,5.67-1.92,3.74-1.17,5.58-1.77l2.75-.86.18-.05a12.91,12.91,0,0,0,4.59,1.86c5.21,1,10.17-1.58,14-5.9l.22-.26,2.14-.35.31,3.79,7-4.84A206.4,206.4,0,0,1,97,303.08c1,1.65,2,3.16,5.43,5.9,3.25,3,10.89,4.31,11.51,4.08l.35,0,1.4.07h1.5l1.75,0c.57,0,1.19-.05,1.72-.1l1.4-.16c.93-.13,1.87-.22,2.77-.42a44.31,44.31,0,0,0,10.29-3.32c1.08-.5,2.09-1,3.07-1.58a17.68,17.68,0,0,0,2.41,2.2c.48.36,1,.7,1.47,1s1,.55,1.48.8,1,.47,1.55.67a15.16,15.16,0,0,0,1.44.47,19.43,19.43,0,0,0,2.71.55l1.42.12h1.25c.9,0,1.8,0,2.7-.12l1.34-.15.33,0,.24,0,.46-.09q.92-.19,1.83-.42a29.89,29.89,0,0,0,3.48-1.18c3.71.6,7.45,1.2,11.26,1.75a189.55,189.55,0,0,0,25.74,2.29c1.18,0,2.28,0,3.51,0l3.63-.17c2.56-.15,4.69-.43,6.77-.68,4.15-.53,8.07-1.1,12-1.68l23.26-3.44c15.38-2.2,30.69-4.24,45.66-5.31,3.72-.23,7.42-.4,11.05-.45,1.81,0,3.62,0,5.39,0l.71,0,1,.07,2.08.14,2.29.28.57.07.28,0,.14,0s.1,0,.13-.06l.95-1.4c7.41-.94,13.37-1.42,17.5-.86,2.13.31,3.71,1,4.22,2.16l.12.45,0,.06s0,0,.05-.06l.11-.15.23-.31.89-1.24q.88-1.25,1.7-2.54l.41-.65a7.66,7.66,0,0,1,.57-.69l1.18-1.41q1.16-1.42,2.21-2.87C347.71,291,347.24,287.34,346.87,283.78Zm-73.46,8.57c2.64-2.25,5.18-4.46,7.72-6.54,2.22-1.83,4.39-3.52,6.7-5.22s4.72-3.34,7.51-5.3,6-4.43,9.47-7c2-1.49,4-3,6.16-4.45-2,1.84-4.09,3.7-6.16,5.57s-3.85,3.55-5.43,5.24-2.86,3.27-4.09,4.79c-2.49,3-4.44,5.74-6.22,8.22-.8,1.14-1.55,2.22-2.25,3.27Q280.1,291.53,273.41,292.35Zm25.87-41.07a6.43,6.43,0,0,1,.33-1,62.18,62.18,0,0,1,3.84-6.95c1.26-2,2.43-3.86,3.51-5.53l1.19-1.85q2.84,3.22,5.41,6.69c-.63.36-1.22.73-1.79,1.1-2.09,1.38-3.79,2.71-5.3,3.89s-2.8,2.25-4,3.15a11.27,11.27,0,0,1-1.87,1.15,1.52,1.52,0,0,1-1.08.16C299.24,252.05,299.19,251.61,299.28,251.29ZM322,289.67l.45-.44.23-.22,1.24-1.15c.15.35.31.72.48,1a11.36,11.36,0,0,0,1,1.73c-1.21-.25-2.47-.44-3.78-.58Zm7-6.55h0Zm-.52.48Zm.52-.48h0l.18-.17Zm.34-7.16a15.16,15.16,0,0,0-3.65,1.51c-1,.55-1.91,1.11-2.81,1.68-1.75,1.12-3.29,2.2-4.78,3.1a14,14,0,0,1-2.23,1.15,2.89,2.89,0,0,1-1.18.22.83.83,0,0,1-.59-.3,1.17,1.17,0,0,1-.16-.89,4.47,4.47,0,0,1,.27-1,2.7,2.7,0,0,1,.51-1,19.57,19.57,0,0,1,1.6-1.57c1.1-1,2.2-1.91,3.26-2.8,3-2.52,5.83-4.77,8.36-6.86.51,1.22,1,2.37,1.43,3.78.32.91.61,1.86.9,2.83h-.21a3.28,3.28,0,0,0-.36.05Zm0,6.87Zm-72.22-80.59c-2.59,2.93-4.89,5.78-7.13,8.64-4.76,6.07-9.18,12.1-13.56,18.14l-12.94,18c-7.8,10.84-15.56,21.68-23.65,31.78l1.89-3.69,10-19.28c3.36-6.47,6.7-13,9.92-19.59s6.34-13.32,9-20.46c.66-1.79,1.28-3.62,1.82-5.53a37.75,37.75,0,0,0,1.28-6.14,17.54,17.54,0,0,0,0-3.75,9.21,9.21,0,0,0-2-5l-.3-.34c4.88.95,9.72,2.1,14.47,3.49Q251.65,200.2,257.15,202.24ZM88.14,287c1.74-1.42,3.49-2.89,5.24-4.46l1.26-1.13,2.63-2.37c-.32.67-.64,1.37-1,2.21-.29.67-.58,1.32-1,2.58-.1.27-.27.78-.41,1.22l-.29,1-.2.8-.09.45Q91.18,287.15,88.14,287ZM221.21,193.4a17.35,17.35,0,0,0-5.31,3.33,34.9,34.9,0,0,0-4.22,4.48,83.88,83.88,0,0,0-6.44,9.47c-3.83,6.42-7.14,13-10.39,19.53l-9.57,19.65c-3.2,6.52-6.45,13-10,19.29A112.51,112.51,0,0,1,163.52,287a25.52,25.52,0,0,1-7.62,6.47,6.78,6.78,0,0,1-1.06.44l-.53.19h0c2-2.29,3.75-4.59,5.39-6.86a169.58,169.58,0,0,0,13-22c3.64-7.17,6.85-14.18,10-21s6.13-13.44,9.21-19.67c1.54-3.11,3.1-6.11,4.69-8.93a88.67,88.67,0,0,1,4.79-7.7,35.89,35.89,0,0,1,4.4-5.33c.32-.34.57-.5.83-.76s.45-.37.58-.43.23-.14.28-.22h0l0-.07-.13-.35-.06-.18,0-.11-.09-.23q-.08-.23-.15-.48a6.5,6.5,0,0,1-.25-1.1c.05-2.27.1-4.27.14-6l.26-.54Q214.2,192.47,221.21,193.4Zm3.85,9.7c0-.09,0,0,0,0Zm-84.57,66.42a72.27,72.27,0,0,1-6.44,7.82,35.38,35.38,0,0,1-7.27,6l-1,.55c2.44-4.35,5-8.73,7.49-13.08l10.82-18.62c6-10.34,12.07-20.69,17.93-31.21,1.69-3,3.36-6.08,5-9.17q2.24-2.29,4.49-4.62c1.59-1.65,3.17-3.31,4.81-5.08.82-.89,1.65-1.8,2.57-2.85l.5-.58-.89,1.69c-2.62,4.06-5,8.25-7.27,12.45-3,5.49-5.73,11-8.47,16.56L154,245.53c-3.07,5.72-6.12,11.48-9.11,17.41C143.46,265.19,142,267.41,140.49,269.53Zm66.24-70.62v-.21C206.74,198.75,206.74,198.82,206.73,198.91ZM105.13,219.2a126,126,0,0,1,13.14-8.42L115.68,213l-15.62,13.32c-5,4.22-10.68,9-14.79,12.24l-.87.71A106.65,106.65,0,0,1,105.13,219.2Zm106.08,82c-1.94.22-3.94.47-6,.54l-3,.12c-1,0-1.9,0-2.85,0,1.93-1.94,3.71-3.93,5.45-5.93,2.43-2.82,4.75-5.69,7-8.59,9-11.59,17.28-23.5,25.63-35.39,4.16-5.95,8.32-11.89,12.53-17.8s8.48-11.77,13-17.46c2-2.51,4.07-5,6.28-7.35.44-.47.9-.93,1.35-1.38,1,.47,1.93,1,2.89,1.48-2.45,3.58-4.86,7.23-7.23,10.86q-5.29,8.13-10.43,16.35c-6.86,11-13.6,22-20,33.21-3.16,5.61-6.26,11.27-9,17-.67,1.44-1.31,2.88-1.88,4.31l-.13.33a1.69,1.69,0,0,0-.16.12l-.11.1h0l.12.19a25.53,25.53,0,0,0-1.09,3.45,5.69,5.69,0,0,0-.16,1.31h0a.16.16,0,0,0,0,.05h0l.07.22.18.58.36,1.16c.1.23.19.47.28.71l-1.6.24C219,300.19,215.11,300.74,211.21,301.21Zm34.61-5-8,1.2A134.85,134.85,0,0,0,248.28,283c7.82-12.1,14.93-24.81,22.44-37.32,3.76-6.26,7.58-12.5,11.85-18.57a81.71,81.71,0,0,1,6.51-8.22q4.63,3.31,8.92,7l-.76,1.28-5.11,8.39-10.68,17.5c-3.65,6-7.39,12.29-11.17,18.87s-7.65,13.46-11.06,20.95c-.2.45-.39.91-.58,1.36Q252.22,295.22,245.82,296.17Zm87.83-.89a3,3,0,0,0-.34-.62,5.35,5.35,0,0,0-1-1.11,10.27,10.27,0,0,0-3.05-1.82l-.23-.08a7.37,7.37,0,0,0,.87-.63,18.33,18.33,0,0,0,2-1.68c.34-.32.68-.68,1-1.07.13.86.24,1.74.32,2.62l.43,4.14.05.53A2.85,2.85,0,0,1,333.65,295.28Z"/><path class="cls-1" d="M103.37,80.3l.13,2.82a24.16,24.16,0,0,0,.24,2.6c.23,1.67.48,3.28.75,5a3.42,3.42,0,0,0,.08.42l.25,1.09.79,3.32c.27,1.22.63,2.4.92,3.28l.46,1.48c.49,1.57,1,3.13,1.63,4.63s1.19,3,1.86,4.51l2.12,4.36c.71,1.46,1.56,2.81,2.36,4.21a96,96,0,0,0,11.3,15.43,94.59,94.59,0,0,0,14,12.89c1.24,1,2.56,1.89,3.88,2.8s2.62,1.83,4,2.63,2.75,1.65,4.15,2.45l4.31,2.21a93.32,93.32,0,0,0,18.51,6.64,84.55,84.55,0,0,0,20.23,2.19,72.44,72.44,0,0,0,20.73-3.41l2.52-.85,1.25-.43,1.22-.52q2.44-1.05,4.85-2.16a74.6,74.6,0,0,0,9-5.44l2.12-1.51.53-.38.44-.35.87-.71c1.15-1,2.31-1.87,3.43-2.86l3.32-3,3.2-3.13a108,108,0,0,0,20.79-29.15,85.57,85.57,0,0,0,8.68-35.06A71.28,71.28,0,0,0,276.79,60c0-.33.1-.66.14-1l.27-3.64,1.59-21.62-7.19,6.45c.16-.81.32-1.69.47-2.7.05-.39.1-.71.14-1.17s.08-.82.11-1.4l0-.8c0-.27,0-.66,0-1v-.76l0-.34q0-.68-.13-1.36c0-.18-.08-.55-.13-.86s-.12-.64-.19-1l-.11-.47-.15-.55c-.13-.46-.29-.92-.45-1.38s-.34-.89-.56-1.36a19.32,19.32,0,0,0-1-1.92q-.29-.47-.6-.91l-.32-.44-.2-.26-.35-.43a17.92,17.92,0,0,0-5.33-4.31l-.2-.1-.13-.07h0c.68.26-5-2-3.16-1.22a17.36,17.36,0,0,0-4.46-.61c-.37,0-.74,0-1.11,0s-.52,0-.79.07a17.71,17.71,0,0,0-2.8.54c-.46.13-.91.27-1.35.44l-.76.31-.42.2L245.71,15c-1.07-.77-2.18-1.51-3.26-2.25s-2.23-1.38-3.36-2-2.27-1.26-3.44-1.8a80.68,80.68,0,0,0-14.24-5.33A96.64,96.64,0,0,0,192.15,0,89,89,0,0,0,164,5.36,59.67,59.67,0,0,0,140.6,20.7a40.34,40.34,0,0,0-4.22,5.51A53.75,53.75,0,0,0,133,32.5a107.89,107.89,0,0,0-5.06,13.74c-.73,2.35-1.45,4.72-2.15,7.08l-1.06,3.55-.53,1.76c-.19.58-.36,1.18-.5,1.82l0,.09L123,61.66A15.91,15.91,0,0,0,110.3,64.3a16.37,16.37,0,0,0-5.07,6.28,16.71,16.71,0,0,0-1.41,4.24q-.24,1.13-.38,2.33c0,.4-.09.8-.11,1.21s0,.81,0,1.22Zm143.13-42q.54-1,1.09-2c.48.54,1,1.08,1.44,1.63a54,54,0,0,1,6.27,9.14c-1.25,3.62-2.6,7.15-4,10.68-1.57,4-3.21,7.89-4.87,11.8-2.2,4.22-4.08,8.38-5.86,12.34-1.23,2.73-2.42,5.34-3.62,7.81-.6,1.25-1.21,2.42-1.82,3.59l-2,3.77q-4.11,7.56-8.51,15l-.14.24C231.2,88.82,238,65.22,244.94,41.84l.32-1.07C245.68,40,246.08,39.16,246.51,38.35ZM202.59,140.8l-.45,0,.63-1.56.6-1.49Zm-12.22-6.87L188,139.73q-1.4-.3-2.78-.67a38.74,38.74,0,0,0,4-4.17c.51-.61,1-1.2,1.45-1.8Zm54.42-18.84c-1.47,1.78-3,3.49-4.61,5.16q.93-2.19,1.95-4.45L244.3,111l1.06-1.75a4.15,4.15,0,0,0,3.27.74C247.41,111.72,246.14,113.43,244.79,115.09ZM229,21.37l.82.44c-3.6,5.62-6.88,11.3-10,17q-6.62,12.25-12.2,24.64c-2.54,5.65-4.95,11.37-7.15,17.21a162.12,162.12,0,0,1-7.22,16.1c-2.7,5.31-5.61,10.54-8.74,15.57-1.57,2.51-3.2,5-4.92,7.33a56.72,56.72,0,0,1-3.64,4.54l.28-.81c.49-1.35,1-2.71,1.62-4.07,2.35-5.46,5.09-10.89,7.8-16.34s5.5-10.9,8-16.59c1.26-2.9,2.32-5.72,3.44-8.58l3.26-8.57q1.29-3.46,2.55-6.94,3.58-5.76,7.18-11.45c3.27-5.15,6.57-10.29,9.83-15.12.82-1.21,1.62-2.38,2.41-3.5s1.56-2.18,2.2-3l.41-.53.17-.22,0-.07v0l-1.17-1.19c-.8-.77-1.47-1.4-2.19-2.13s-1.39-1.44-2.06-2.19l-1-1.13c-.16-.18-.34-.41-.47-.54l-.4-.41q-.79-.84-1.5-1.75l-.08-.1a20.05,20.05,0,0,0,.2-2.54l.85.23A65.78,65.78,0,0,1,229,21.37ZM210.1,14.91c-.39.43-.76.85-1.11,1.28l-.77.06q-.84.07-1.67.07c-.26,0-.57,0-.91,0h-1q-1,0-1.93-.06c-.7,0-1.46,0-2.18-.08l-1.27-.09-5-2.68A84.29,84.29,0,0,1,210.1,14.91ZM152,29l.89-.93c.61-.61,1.27-1.16,1.88-1.77l2-1.66c.73-.5,1.42-1,2.15-1.54A51.3,51.3,0,0,1,168,18.3q-2.49,5.3-5,10.66a10.93,10.93,0,0,0-3.28-.47,21,21,0,0,0-9.67,3l-.12.07a14.32,14.32,0,0,1,1.31-1.69A10.24,10.24,0,0,1,152,29Z"/><path class="cls-1" d="M223.48,296.61l-.57.23H223l.52-.16h0Z"/><polygon class="cls-1" points="224.61 291.72 224.62 291.72 224.62 291.72 224.61 291.72"/><path class="cls-1" d="M222.9,296.85h0C222.65,296.93,222.62,296.94,222.9,296.85Z"/><path class="cls-1" d="M223.5,296.73h0l-.14,0Z"/><path class="cls-1" d="M223.36,296.75h0Z"/><path class="cls-1" d="M222.9,296.85h0Z"/><path class="cls-1" d="M223.27,296.76h0Z"/><path class="cls-1" d="M223,296.83h0l.34-.08-.11,0Z"/></g></g></svg>