<?xml version="1.0" encoding="utf-8"?>
<!-- Generator: Adobe Illustrator 20.1.0, SVG Export Plug-In . SVG Version: 6.00 Build 0)  -->
<svg version="1.1" id="Layer_1" xmlns="http://www.w3.org/2000/svg" xmlns:xlink="http://www.w3.org/1999/xlink" x="0px" y="0px"
	 viewBox="0 0 19.7 19.7" style="enable-background:new 0 0 19.7 19.7;" xml:space="preserve">
<style type="text/css">
	.st0{fill:#757575;}
</style>
<title>search-outline</title>
<g>
	<path class="st0" d="M19.2,19.7H0.4v-0.8c0-4.2,4.2-7.6,9.4-7.6c5.2,0,9.4,3.4,9.4,7.6V19.7z M2.1,18.1h15.4
		C17,15.2,13.8,13,9.8,13S2.6,15.2,2.1,18.1z"/>
</g>
<g>
	<path class="st0" d="M9.8,10.5c-2.4,0-4.4-2-4.4-4.4c0-2.4,2-4.4,4.4-4.4s4.4,2,4.4,4.4C14.3,8.5,12.3,10.5,9.8,10.5z M9.8,3.2
		C8.3,3.2,7,4.5,7,6c0,1.6,1.3,2.8,2.8,2.8s2.8-1.3,2.8-2.8C12.7,4.5,11.4,3.2,9.8,3.2z"/>
</g>
</svg>
