<?xml version="1.0" encoding="utf-8"?>
<!-- Generator: Adobe Illustrator 20.0.0, SVG Export Plug-In . SVG Version: 6.00 Build 0)  -->
<svg version="1.1" id="Layer_1" xmlns="http://www.w3.org/2000/svg" xmlns:xlink="http://www.w3.org/1999/xlink" x="0px" y="0px"
	 viewBox="0 0 19.7 19.7" style="enable-background:new 0 0 19.7 19.7;" xml:space="preserve">
<style type="text/css">
	.st0{fill:url(#SVGID_1_);}
</style>
<title>search-outline</title>
<linearGradient id="SVGID_1_" gradientUnits="userSpaceOnUse" x1="0.1039" y1="9.8344" x2="19.6" y2="9.8344">
	<stop  offset="0" style="stop-color:#F4A975"/>
	<stop  offset="0.5271" style="stop-color:#A03D23"/>
	<stop  offset="1" style="stop-color:#59082D"/>
</linearGradient>
<path class="st0" d="M11.7,0.1C7.4,0.1,3.8,3.6,3.8,8c0,1.9,0.7,3.6,1.8,5l-5.5,5.5l1.1,1.1l5.5-5.5c1.4,1.1,3.1,1.8,5,1.8
	c4.4,0,7.9-3.5,7.9-7.9C19.6,3.7,16,0.1,11.7,0.1z M11.7,14.4c-3.5,0-6.4-2.9-6.4-6.4c0-3.6,2.8-6.4,6.4-6.4c3.5,0,6.4,2.8,6.4,6.4
	C18.1,11.5,15.2,14.4,11.7,14.4z"/>
</svg>
