<?xml version="1.0" encoding="utf-8"?>
<!-- Generator: Adobe Illustrator 20.1.0, SVG Export Plug-In . SVG Version: 6.00 Build 0)  -->
<svg version="1.1" id="Layer_1" xmlns="http://www.w3.org/2000/svg" xmlns:xlink="http://www.w3.org/1999/xlink" x="0px" y="0px"
	 viewBox="0 0 19.7 19.7" style="enable-background:new 0 0 19.7 19.7;" xml:space="preserve">
<style type="text/css">
	.st0{fill:#757575;}
</style>
<title>search-outline</title>
<g>
	<path class="st0" d="M11.7,15.9c-4.4,0-7.9-3.6-7.9-7.9c0-4.4,3.6-7.9,7.9-7.9s7.9,3.6,7.9,7.9C19.6,12.4,16.1,15.9,11.7,15.9z
		 M11.7,1.6C8.1,1.6,5.3,4.4,5.3,8c0,3.5,2.9,6.4,6.4,6.4s6.4-2.9,6.4-6.4C18.1,4.4,15.2,1.6,11.7,1.6z"/>
</g>
<g>
	<rect x="-0.6" y="15.3" transform="matrix(0.7071 -0.7071 0.7071 0.7071 -10.2904 7.2653)" class="st0" width="8.4" height="1.5"/>
</g>
</svg>
