<?xml version="1.0" encoding="utf-8"?>
<!-- Generator: Adobe Illustrator 20.0.0, SVG Export Plug-In . SVG Version: 6.00 Build 0)  -->
<svg version="1.1" id="Layer_1" xmlns="http://www.w3.org/2000/svg" xmlns:xlink="http://www.w3.org/1999/xlink" x="0px" y="0px"
	 viewBox="0 0 1136.6 882.1" style="enable-background:new 0 0 1136.6 882.1;" xml:space="preserve">
<style type="text/css">
	.st0{fill:url(#SVGID_1_);}
	.st1{fill:url(#SVGID_2_);}
	.st2{fill:url(#SVGID_3_);}
	.st3{fill:url(#SVGID_4_);}
	.st4{fill:url(#SVGID_5_);}
	.st5{fill:url(#SVGID_6_);}
	.st6{fill:url(#SVGID_7_);}
	.st7{fill:url(#SVGID_8_);}
	.st8{fill:url(#SVGID_9_);}
	.st9{fill:url(#SVGID_10_);}
	.st10{fill:url(#SVGID_11_);}
	.st11{fill:url(#SVGID_12_);}
	.st12{fill:url(#SVGID_13_);}
	.st13{fill:url(#SVGID_14_);}
	.st14{fill:url(#SVGID_15_);}
	.st15{fill:url(#SVGID_16_);}
	.st16{fill:url(#SVGID_17_);}
	.st17{fill:url(#SVGID_18_);}
	.st18{fill:url(#SVGID_19_);}
	.st19{fill:url(#SVGID_20_);}
</style>
<title>vintage-lense</title>
<linearGradient id="SVGID_1_" gradientUnits="userSpaceOnUse" x1="644.5324" y1="221.3242" x2="832.8322" y2="221.3242">
	<stop  offset="0" style="stop-color:#F4A975"/>
	<stop  offset="0.5271" style="stop-color:#A03D23"/>
	<stop  offset="1" style="stop-color:#59082D"/>
</linearGradient>
<path class="st0" d="M758.1,148c-1.9,5.1-5.8,8.8-8.8,13c-5.8,8.1-11.8,15.9-17.3,24.3c32-33.7,67-64.2,100.8-96.1
	c-1.9,4.1-4.9,7.2-8.2,10.1c-23.6,21-43.4,45.5-64.7,68.7c-30.6,33.4-53.8,71.8-77.3,110.1c-4.9,8-8.9,16.5-11.8,25.6
	c32.5-57.7,68-112.9,118.6-156.9C733.8,207.8,686.7,274.1,659,353.3c-2.1-2.4-1.5-4.4-1.7-6.3c-0.2-3,0.1-6.3-1.9-8.6
	c-2.9-3.3-2-6.3-0.4-9.7c2-4.2,4.4-8.3,4-13.2c-0.1-1.5,0.3-3.8-1.7-4.3c-1.7-0.4-2.2,1.7-3,2.8c-2.9,4.4-4.2,9.4-5.7,14.3
	c-0.6,2-0.8,4.2-2.5,6.3c-2.4-4.6-1.5-8.8,0.1-13c3.4-9.1,8.9-17.1,13.3-25.7c19.5-38.4,42.1-74.9,67.5-109.6
	c9-12.4,18.5-24.4,27.8-36.6c0.8-1,1.5-2.2,2.9-2.5C757.7,147.6,757.9,147.8,758.1,148z M668.8,294.3
	c22.5-40.8,49.2-78.8,78.1-115.3c1-1.2,2.3-2.3,2.6-5.2C715.5,209.9,687.3,248.8,668.8,294.3z"/>
<linearGradient id="SVGID_2_" gradientUnits="userSpaceOnUse" x1="916.4775" y1="282.7254" x2="1039.3228" y2="282.7254">
	<stop  offset="0" style="stop-color:#F4A975"/>
	<stop  offset="0.5271" style="stop-color:#A03D23"/>
	<stop  offset="1" style="stop-color:#59082D"/>
</linearGradient>
<path class="st1" d="M949.1,322.2c13.5-23,25.5-46.9,41.2-68.6c15.6-21.6,29.3-44.7,48.7-63.4c0.8,2.5-0.6,3.9-1.5,5.5
	c-17.2,28.7-35.4,56.8-51.6,86.1c-11.1,20.1-21.3,40.7-29.6,62.2c-0.6,1.6-1.1,3.3-1.3,5.2c19.1-34.8,38.5-69.4,60.9-102.3
	c-5.9,10.2-11.7,20.4-17.7,30.5c-10.7,18.2-21.7,36.3-31.4,55.1c-3.5,6.8-6.1,14-8.7,21.2c-2.5,6.7-5.6,13.1-12.3,17.8
	c-0.5-3.9,0.7-6.9,1.4-10c5.6-23.9,16.8-45.5,28.1-67.1c13.3-25.4,29.8-48.9,43.6-74c0.4-0.7,1.1-1.3,0.4-3c-1.7,2.2-3.2,4-4.6,5.8
	c-35,45.6-62.9,95.3-83.9,148.7c-1.9,4.9-3.5,10-5.5,15c-1.7,4.1-3.4,8.3-8.9,10.2c1.5-8,4.2-15.1,6.7-22.3
	c10.6-30.7,23.7-60.4,39-89.1c5.7-10.7,11.8-21.3,17.5-31.9c0.6-1.2,2.6-2.5,1.2-3.9c-1.6-1.6-2.2,1.4-4.5,1.4
	c19.6-27.5,39.2-54.4,57.3-83.2c1.2,4-0.6,6.2-2.1,8.5c-28.2,43.1-55.9,86.4-78.8,132.6C950.9,313.3,949.4,317.5,949.1,322.2z"/>
<linearGradient id="SVGID_3_" gradientUnits="userSpaceOnUse" x1="849.264" y1="325.8198" x2="987.8702" y2="325.8198">
	<stop  offset="0" style="stop-color:#F4A975"/>
	<stop  offset="0.5271" style="stop-color:#A03D23"/>
	<stop  offset="1" style="stop-color:#59082D"/>
</linearGradient>
<path class="st2" d="M987.9,198.2C935.2,274,884,350.2,854.8,438.7c7.5-6.1,11.4-14.8,17-22.2c-4.4,12.6-9.4,24.9-18.4,35.2
	c-0.7,0.8-1.6,2.1-2.9,1.6c-1.6-0.6-1.1-2.2-1.1-3.5c-0.6-8.8,1.7-17.2,4.7-25.3c18.4-50.8,42.8-98.6,72.6-143.7
	c18.3-27.7,38-54.3,58.4-80.4C985.7,199.6,986.2,198.4,987.9,198.2z"/>
<linearGradient id="SVGID_4_" gradientUnits="userSpaceOnUse" x1="893.2974" y1="309.1251" x2="987.9312" y2="309.1251">
	<stop  offset="0" style="stop-color:#F4A975"/>
	<stop  offset="0.5271" style="stop-color:#A03D23"/>
	<stop  offset="1" style="stop-color:#59082D"/>
</linearGradient>
<path class="st3" d="M921.9,334.1c17.1-23.8,30.3-50,47.8-73.5c-1.3,5.2-4.1,9.7-7.2,14c-12.7,17.2-23.2,35.7-33.6,54.3
	c-11.1,19.9-20.9,40.5-27.7,62.4c-1.7,5.3-4.1,10.4-7.9,14.9c0.3-8.1,1.8-15.9,4.2-23.5c12.4-40,30.6-77.3,52-113.1
	c11-18.4,22.8-36.3,35.3-53.8c0.9-1.3,1.9-2.5,3.2-3.5C964.6,252.1,938.4,290.4,921.9,334.1z"/>
<linearGradient id="SVGID_5_" gradientUnits="userSpaceOnUse" x1="1011.071" y1="235.4144" x2="1083.4414" y2="235.4144">
	<stop  offset="0" style="stop-color:#F4A975"/>
	<stop  offset="0.5271" style="stop-color:#A03D23"/>
	<stop  offset="1" style="stop-color:#59082D"/>
</linearGradient>
<path class="st4" d="M1011.1,309.8c16.1-39.6,36.5-76.6,64.6-109c2.3-2.6,3.1-5.3,3.2-8.6c0.3-8.6-2-16.8-2.9-25.3
	c-0.2-2.1-1.2-5.4,0.5-5.9c2.8-0.7,4,2.5,4.7,4.8c3,11.3,2.5,22.8,1.6,34.3c-1,13.1-3.5,26.1-5.5,39.1c-0.1,0.5-0.1,1-0.9,1
	c-1.4-1.5,0.6-3.5-0.7-5.3c-3.3,1.2-4.9,4.2-6.7,6.8c-9.3,12.8-14.5,27.7-20.6,42c-3.3,7.8-6.5,15.6-11.5,22.7
	c3.7-9.5,7.3-19.2,11.3-28.6c6.1-14.4,12.6-28.7,18.7-43c1.4-3.3,3.3-5.3,7.1-5c2.2,0.2,3.4-0.6,3.5-3c0.3-6.1,0.8-12.3,1.1-18.4
	c0.2-3.4-1.5-3.8-4-2.1c-3.9,2.6-5.9,6.7-8.2,10.5c-2.4,4-5.3,7.5-8.8,10.7c-4.2,3.7-5.9,9.2-8.6,13.9c-12,21.7-25.3,42.7-35,65.6
	C1013.1,308.2,1012.5,309.4,1011.1,309.8L1011.1,309.8z"/>
<linearGradient id="SVGID_6_" gradientUnits="userSpaceOnUse" x1="733.7172" y1="308.862" x2="879.5657" y2="308.862">
	<stop  offset="0" style="stop-color:#F4A975"/>
	<stop  offset="0.5271" style="stop-color:#A03D23"/>
	<stop  offset="1" style="stop-color:#59082D"/>
</linearGradient>
<path class="st5" d="M755.8,386.3c-5.2,19.9-11.2,32.8-22,36.6c-0.3-6.8,1.1-13.2,2.7-19.5c5.1-20.1,15.7-37.7,25.9-55.5
	c30.2-52.7,67.4-100.2,108.3-145c2.4-2.6,4.8-5.1,7.2-7.6c0.2-0.2,0.6-0.2,1.7-0.5c-7.5,8.5-14.3,16.5-21.3,24.4
	c-30.3,34.2-57.8,70.6-81.7,109.6c-15.5,25.4-28.4,52-36.9,80.6c-0.4,1.4-1.3,2.7-0.6,4.9C745.6,405.2,750,395.4,755.8,386.3z"/>
<linearGradient id="SVGID_7_" gradientUnits="userSpaceOnUse" x1="627.1129" y1="411.2439" x2="662.8591" y2="411.2439">
	<stop  offset="0" style="stop-color:#F4A975"/>
	<stop  offset="0.5271" style="stop-color:#A03D23"/>
	<stop  offset="1" style="stop-color:#59082D"/>
</linearGradient>
<path class="st6" d="M631.9,392.1c3.7,3.5,5.5,6.9,4.3,12.3c-2.6,12,7.9,20.7,19.7,16.7c3.8-1.3,5.4,1.5,6.8,3.4
	c1.3,1.9-1.7,2.8-3,3.6c-5.6,3.5-19.5,3.3-25.8-4.1c-2.1-2.4-0.6-3.8,0.4-5.7c0.7-1.3,1.8-2.8,1-4.2c-1.2-1.9-2.6-0.1-3.9,0.3
	c-3.2,1.1-3.4-1.4-3.7-3.2C626.7,404.6,626.6,398,631.9,392.1z"/>
<linearGradient id="SVGID_8_" gradientUnits="userSpaceOnUse" x1="1015.5564" y1="332.0375" x2="1059.4688" y2="332.0375">
	<stop  offset="0" style="stop-color:#F4A975"/>
	<stop  offset="0.5271" style="stop-color:#A03D23"/>
	<stop  offset="1" style="stop-color:#59082D"/>
</linearGradient>
<path class="st7" d="M1059.5,298.9c-4.8,28.8-21.8,49.2-43.9,66.2C1033.7,345.3,1046.2,321.8,1059.5,298.9z"/>
<linearGradient id="SVGID_9_" gradientUnits="userSpaceOnUse" x1="757.5273" y1="128.7543" x2="789.5527" y2="128.7543">
	<stop  offset="0" style="stop-color:#F4A975"/>
	<stop  offset="0.5271" style="stop-color:#A03D23"/>
	<stop  offset="1" style="stop-color:#59082D"/>
</linearGradient>
<path class="st8" d="M758.1,148c-0.2-0.2-0.4-0.4-0.6-0.7c2.3-4.9,6.3-8.5,9.7-12.5c7.2-8.6,14.7-17.1,22.4-25.4
	c-2.9,6.2-7.3,11.4-11.6,16.6c-5.7,6.9-11.6,13.6-17.5,20.4C759.8,147.2,759.3,148,758.1,148z"/>
<linearGradient id="SVGID_10_" gradientUnits="userSpaceOnUse" x1="651.7891" y1="406.4246" x2="669.1265" y2="406.4246">
	<stop  offset="0" style="stop-color:#F4A975"/>
	<stop  offset="0.5271" style="stop-color:#A03D23"/>
	<stop  offset="1" style="stop-color:#59082D"/>
</linearGradient>
<path class="st9" d="M669,412.7c0,1.1,0.3,2.5-1,3.1c-1.1,0.6-1.8-0.5-2.5-1.2c-4.5-4.6-9.1-9.2-12.9-14.4c-0.6-0.8-1.5-1.5-0.5-2.6
	c0.6-0.6,1.6-1.1,2.3-0.5c5.3,4.4,10.4,9.1,14.6,14.6C669.2,411.9,669.1,412.4,669,412.7z"/>
<linearGradient id="SVGID_11_" gradientUnits="userSpaceOnUse" x1="1064.5927" y1="268.9807" x2="1073.7266" y2="268.9807">
	<stop  offset="0" style="stop-color:#F4A975"/>
	<stop  offset="0.5271" style="stop-color:#A03D23"/>
	<stop  offset="1" style="stop-color:#59082D"/>
</linearGradient>
<path class="st10" d="M1073.5,251.1c1.2,13-1.8,24.9-8.9,35.8C1067.6,275,1070.5,263,1073.5,251.1z"/>
<linearGradient id="SVGID_12_" gradientUnits="userSpaceOnUse" x1="1002.3026" y1="175.7086" x2="1025.7909" y2="175.7086">
	<stop  offset="0" style="stop-color:#F4A975"/>
	<stop  offset="0.5271" style="stop-color:#A03D23"/>
	<stop  offset="1" style="stop-color:#59082D"/>
</linearGradient>
<path class="st11" d="M1002.3,192c5.6-12.5,15.6-21.7,23.5-32.5C1020.5,172.2,1010.1,181.1,1002.3,192z"/>
<linearGradient id="SVGID_13_" gradientUnits="userSpaceOnUse" x1="997.0367" y1="332.4104" x2="1011.3199" y2="332.4104">
	<stop  offset="0" style="stop-color:#F4A975"/>
	<stop  offset="0.5271" style="stop-color:#A03D23"/>
	<stop  offset="1" style="stop-color:#59082D"/>
</linearGradient>
<path class="st12" d="M1011.1,309.7c0.4,1.3,0.3,2.6-0.3,3.9c-5.4,13-9.3,26.4-12.2,40.1c-0.1,0.6-0.6,1.1-1.6,1.4
	c1.8-16,8.5-30.4,14.1-45.2C1011.1,309.8,1011.1,309.7,1011.1,309.7z"/>
<linearGradient id="SVGID_14_" gradientUnits="userSpaceOnUse" x1="766.3259" y1="351.893" x2="787.244" y2="351.893">
	<stop  offset="0" style="stop-color:#F4A975"/>
	<stop  offset="0.5271" style="stop-color:#A03D23"/>
	<stop  offset="1" style="stop-color:#59082D"/>
</linearGradient>
<path class="st13" d="M766.3,367.2c5.2-11.3,11.9-21.7,20.9-30.5C780.3,346.8,773.3,357,766.3,367.2z"/>
<linearGradient id="SVGID_15_" gradientUnits="userSpaceOnUse" x1="880.5188" y1="450.6117" x2="894.1413" y2="450.6117">
	<stop  offset="0" style="stop-color:#F4A975"/>
	<stop  offset="0.5271" style="stop-color:#A03D23"/>
	<stop  offset="1" style="stop-color:#59082D"/>
</linearGradient>
<path class="st14" d="M880.5,452.5c3.9-1.5,7-2.7,10.1-3.8c1.1-0.4,2.8-1.4,3.4,0.3c0.5,1.3-1.2,1.6-2.1,2.2
	C888.7,453.5,885.2,453.5,880.5,452.5z"/>
<linearGradient id="SVGID_16_" gradientUnits="userSpaceOnUse" x1="675.5182" y1="421.2495" x2="681.1016" y2="421.2495">
	<stop  offset="0" style="stop-color:#F4A975"/>
	<stop  offset="0.5271" style="stop-color:#A03D23"/>
	<stop  offset="1" style="stop-color:#59082D"/>
</linearGradient>
<path class="st15" d="M681.1,421.1c-0.3,1.6-0.6,3.6-2.1,3.5c-1.6,0-3.6-1-3.5-3.3c0.1-1.4,0-3.4,1.9-3.4
	C679.2,417.9,680.7,419.1,681.1,421.1z"/>
<linearGradient id="SVGID_17_" gradientUnits="userSpaceOnUse" x1="642.0189" y1="386.8033" x2="648.166" y2="386.8033">
	<stop  offset="0" style="stop-color:#F4A975"/>
	<stop  offset="0.5271" style="stop-color:#A03D23"/>
	<stop  offset="1" style="stop-color:#59082D"/>
</linearGradient>
<path class="st16" d="M642.1,384.9c-0.4-1.4,0.6-2,1.2-1.8c2.8,0.8,3.6,3.5,4.7,5.8c0.4,0.8-0.6,1.9-1.3,1.7
	C643.9,389.7,643.5,386.7,642.1,384.9z"/>
<linearGradient id="SVGID_18_" gradientUnits="userSpaceOnUse" x1="799.3914" y1="313.8909" x2="808.1196" y2="313.8909">
	<stop  offset="0" style="stop-color:#F4A975"/>
	<stop  offset="0.5271" style="stop-color:#A03D23"/>
	<stop  offset="1" style="stop-color:#59082D"/>
</linearGradient>
<path class="st17" d="M799.4,319.3c1.5-4.6,4.2-8.4,8.7-10.7C805.2,312.1,802.3,315.7,799.4,319.3z"/>
<linearGradient id="SVGID_19_" gradientUnits="userSpaceOnUse" x1="147.7105" y1="490.114" x2="1310.2129" y2="490.114" gradientTransform="matrix(0.9985 -5.495526e-02 5.495526e-02 0.9985 -182.6808 168.5045)">
	<stop  offset="0" style="stop-color:#F4A975"/>
	<stop  offset="0.5271" style="stop-color:#A03D23"/>
	<stop  offset="1" style="stop-color:#59082D"/>
</linearGradient>
<path class="st18" d="M622.7,431.7c-0.2,0.2-0.6,0.3-0.9,0.5c-2,1.1-3,0.4-3.7-1.6c-1.1-3.7-1.1-6.6,3.1-8.6
	c2.3-1.1,6.3-1.8,5.2-6.1c-1-3.8-2.2-7.5-3.4-11.5c-3.7,3.3-7,6.2-10.3,9.3c-2,1.9-3.3,1.6-4.5-0.9c-1.5-3.2-3.3-6.2-6-8.5
	c-2-1.8-1-3.1,0.3-4.6c2.9-3.3,6.1-6.1,9.7-8.2c-3.1-3.2-7-5.6-10.6-8.2c-3.3,2.2-6.6,4.4-9.8,6.7c-2.8,2-5.1,2.5-8.2,0.8
	c-6.4-3.5-12.4-2.5-18.4,1.3c-7.6,4.9-15.4,9.5-21.8,15.8c-21.4,21-46.4,36.7-71.6,52.4c-9.7,6.1-19.3,12.5-28.8,19
	c-3.4,2.3-7.4,4.9-7.5,9.4c-0.1,4.9-2.8,7.4-6.1,10.1c-33.8,27.3-68.9,53-104.9,77.5c-43.9,29.9-88,59.6-131.3,90.4
	c-34.9,24.8-69.7,49.7-104.7,74.4c-8.3,5.9-17.3,10.9-25.9,16.4c-0.9,0.6-2.1,2.4-2.1,2.5c4.3,4-1.1,3.3-2.1,3.5
	c-2.6,0.8-3.2,2.6-3.6,4.8c-1.7,7.8-8,10.4-13.4,5.6c-2.3-2.1-4.2-1.7-6.1,0.2c-1.7,1.7-2.1,3.8-0.4,5.8c1.5,1.9,2.9,3.4,5.8,1.7
	c3.9-2.3,8.3-3.4,12.9-3.6c1.1,0,2.6-0.6,2.8,1.1c0.2,1.5-1.3,1.7-2.4,2c-1.3,0.4-3-0.2-3.9,1.6c0.6,0.4,0.9,0.8,1.4,0.8
	c5.1,0.9,10.8-0.8,15.1,3.7c0.7,0.7,1.7-0.1,2.1-0.7c2.6-3.8,4.9-1.4,6.9,0.5c3.5,3.4,5.4,8,8,12c0.5,0.7,0.9,1.6-0.1,2.1
	c-0.4,0.2-1.4,0-1.8-0.3c-2.1-2-4.1-4.1-6.1-6.2c2.7,5.2,6,9.8,9.3,14.6c4,5.8,6.2,12.2,4.4,19.3c-0.7,2.8-1.2,7.3-4.3,7.1
	c-3.7-0.2-2.3-4.7-2.9-7.4c-0.6-2.4,0.2-6.5-3.4-6.2c-3.8,0.3-3.5,4.2-3.2,7.2c0.2,1.8,0.8,3.6,1,5.4c0.2,1.8,0.2,3.7-0.9,5.3
	c-0.4,0.6-1.1,1.5-1.8,1.5c-0.9,0.1-1.2-1-1.4-1.8c-0.7-2.6-1.4-5.2-2.3-7.6c-1-2.6-1.9-6.5-4.8-6.2c-2.7,0.3-2,4.4-2.4,6.9
	c-0.8,5.1,0.2,10.6-2.6,16c-0.8-1.1-1.3-1.7-1.7-2.4c-3-5.3-4-11.3-6.5-16.7c-1.2-2.6-2.1-7.4-4.8-6.6c-3.6,1.2-2,5.8-1.3,8.9
	c0.8,3.8,1.7,7.5,1.5,11.3c0,0.8-0.1,1.8-1,2.1c-0.9,0.3-1.6-0.4-2.1-1c-2.1-2.5-2.9-5.5-3.6-8.6c-1.1-5.3-1.3-11-4.5-15.7
	c-1.1-1.6-2.3-3.2-4.3-2.9c-2,0.3-1.9,2.4-2.5,3.9c-1.5,3.6,0,7.5-1.3,12.4c-3.8-10.7-4-20.4-2.1-30.1c0.6-3.1,0.1-4.7-2.7-6.4
	c-4.8-2.9-5.2-6.1-2.1-9.9c1.5,1.3,0,2.8,0.3,4.2c0.3,2,1.3,3.4,3.2,4.1c1.3,0.5,2.7,0.7,3.7-0.6c1.8-2.3,2.9-5.1,0.1-7
	c-2.5-1.6-3.9-7.3-8.8-3.1C3.4,799.1-3.1,825.8,5.1,846.4c7.8,19.5,26.9,33.4,47,33.1c23.9-0.3,41.8-11.7,54.9-31.3
	c0.9-1.3,1.2-3.5,3.2-3.5c7.5,0,12.5-4.5,17.9-8.8c17.6-14,35.5-27.6,53.2-41.5c50-39.3,100.4-78.2,151.1-116.6
	c48.8-37,97.9-73.8,146.8-110.7c2.4-1.8,4.6-2.9,7.8-2.4c8.4,1.2,14.9-1.7,19.3-9.3c2.9-5.1,6.8-9.5,11.2-13.3
	c23.4-20.1,47.8-38.9,74.7-54.1c7.6-4.3,15.7-8.1,21.5-15.2c1.5-1.8,3.7-2.7,5.9-3.5c6.7-2.3,8.3-4.7,8.3-11.8c0-2.3,0-4.7-0.5-7
	c-0.9-4.2,0.7-7,4.2-9.2c3.9-2.4,7.7-5,11.4-7.3C636.6,427.6,630.1,424.5,622.7,431.7z M32.7,823.6c4.1,6.3,4.7,13.5,5.4,20.8
	c0.1,0.8,0.2,1.8-1,1.9c-1.2,0.1-1.7-1-2.1-1.9C32.2,837.8,31.2,830.9,32.7,823.6z M39.9,863c-2.9-0.2-5.2-1.4-5.5-4.7
	c-0.2-1.7,1-2.3,2.5-2.3c3,0.3,5,2,5.6,4.9C42.9,862.7,41.3,863.1,39.9,863z M437,508.7c-3.2,2-5.8,1-8.5,0.7
	C430.9,506.4,433.6,507.2,437,508.7z M416.5,517.4c0.6-0.5,1.3-0.1,1.6,0.5c0.4,0.9,0.1,1.7-0.8,2.1c-2.5,1-5.1,1.9-8.9,3.3
	C410.9,519.3,414.2,519.1,416.5,517.4z M401.1,526.7c0.5-0.5,1.2-0.2,1.6,0.5c0.8,1.3-1.6,7.5-3.1,7.9c-3,0.9-6,1.6-10.5,2.8
	C392.5,532,397.8,530.5,401.1,526.7z M284.8,611.4c1-0.7,2.1-2.4,3.1-0.4c0.8,1.5-0.8,2.3-1.9,2.9c-1.3,0.7-2.7,1.1-4.5,0.4
	C282.3,612.3,283.8,612.2,284.8,611.4z M96.6,831.7c0,0.3-0.1,1-0.2,1.6c-0.5,2.1-1.4,5-3.7,4.4c-2.4-0.6-1-3.3-0.6-5.1
	c0.2-0.6,0.4-1.3,0.6-1.9c0.5-1.1,0.2-3.2,1.9-2.9C96,828,96.6,829.7,96.6,831.7z M167.5,755.7c4,4.3,3.3,10,5.8,14.8
	C165.4,767.3,165.4,767.2,167.5,755.7z M185.1,766c0.5-3.8,3-4.8,5.3-5.9c0.1,0,0.8,0.7,0.8,1C190.6,764.2,188.1,764.9,185.1,766z
	 M187.5,753.3c-1,0-1.8-0.1-1.7-1.1c0.3-4.1,0.1-8.4,1.3-12.2c0.6-1.9,2.5,0.2,2.9,1.4c1.2,3.9,2,7.9,3.1,12.1
	C191,753.5,189.2,753.3,187.5,753.3z M209.8,739.7c-0.4,0.5-0.8,1.1-1.3,1.5c-1,0.9-0.8,3.5-2.9,2.7c-1.7-0.7-1.5-2.8-1.5-4.8
	c0.5-5.2,2.4-10.6,2.6-16.4c0.1-2.3,1.6-1.5,2.7-0.5C213.1,725.9,213.3,735.6,209.8,739.7z M230,728.3c-0.5,1.2-1,2.8-2.6,2.5
	c-1.5-0.3-1-1.9-1.1-2.9c-0.2-6.1-1.3-12.2,0.7-19.6C231.2,715.4,232.6,721.6,230,728.3z M267.7,697.5c-0.5,2.4,0.3,5.9-2,6.9
	c-2.8,1.2-2.8-3.3-4.8-4.1c-6.1-2.5-4.7-7.5-4.1-12.1c0.6-4.1,1.5-8.2,2.4-12.3c0.2-1,0-2.6,1.7-2.6c1.1,0,1.5,1.2,2,2
	c3.6,5.7,4.1,12.2,5,18.4C267.8,695.1,267.9,696.3,267.7,697.5z M279.2,693.3c-0.7,1-1,2.5-3.1,2.6c-1.7-8.3-0.5-16.6,0.2-25
	c0.1-0.7,0.4-1.4,1.1-1.3c0.6,0.1,1.2,0.6,1.5,1.1c2,2.6,2.4,5.8,3.1,8.8C283.8,687.4,283.7,687.4,279.2,693.3z M294.1,686.4
	c-2.9,0.7-1.8-2.8-1.8-4.4c-0.1-5.9,0.2-11.7,0.4-17.6c5.5,4.5,6.2,10.9,8.1,16.5C301.7,683.9,296.7,685.7,294.1,686.4z
	 M309.2,669.2c-2.6-3.7-3.1-7.2-2.8-11.6C310.4,661,310.7,664.5,309.2,669.2z M321.4,667.4c-1.1,0.5-1.8,0-2.2-1.2
	c-2.3-7.3-3.2-14.8-2.4-22.5c0.1-0.8,0-1.8,1.1-2c1.2-0.3,1.8,0.8,2.4,1.5c4.4,5,4.8,11.5,6.8,17.5
	C326.8,664.2,324.5,666.1,321.4,667.4z M354.2,644.5c-0.9,0.3-2.1,0.7-2.8,0.4c-1.1-0.5-0.4-1.7-0.1-2.6c1.7-6.2,2.4-12.7,3.4-19.1
	c0.2-1.1-0.3-2.6,1-3c1.6-0.5,2.3,1.2,3,2.2c1.9,2.6,2.9,5.6,3,8.1C362.1,637.3,359.1,642.6,354.2,644.5z M376.6,627.5
	c-1.2,0.8-2.3,2.2-3.9,1.7c-1.8-0.6-1.3-2.5-1.5-3.9c-0.2-1.7-0.2-3.3-0.3-5.3c0.1-3.7,0.3-7.7,0.4-11.7c0-1-0.2-2.2,1-2.6
	c1.1-0.3,1.9,0.6,2.5,1.3c2.6,3.3,3.2,7.3,3.4,11.3C378.2,621.4,380.4,624.9,376.6,627.5z M402,605.1c-4.2-0.5-6.4,2.9-9.1,5.2
	c-3.6-7.2-2.5-21.5,2.2-27.9c4,6.6,5.1,14,7.8,20.9C403.2,604,403,605.2,402,605.1z M415.3,599.4c-1.9,0.2-1.4-1.7-1.6-3
	c0.3-1.3-0.5-3.4,1.8-3.4c1.9,0,3.2,1.3,3.1,3.2C418.6,598.2,416.8,599.2,415.3,599.4z M423,592c-3.4-1.1-7.7-2-8.4-6.1
	c-1.1-6.7-0.9-13.5,1.5-20.1c4.4,7.5,6.4,15.7,8.3,23.9C424.7,590.8,424.8,592.6,423,592z M445.5,576.5c-0.7,3.5-4.4,4.4-7.1,5.8
	c-1.4,0.3-1.9-0.3-1.7-1.3c0.8-3,1.7-6.1,4.7-7.4C442,573.4,445.9,574.7,445.5,576.5z M436.5,561.6c0-1-0.1-2.4,1.6-2.5
	c1.7,0.8,1.9,2.5,2,4.1c0.1,1.4-1.1,2.2-2.2,2C435.9,564.9,436.5,563,436.5,561.6z M460.6,563.3c-1.2,0.2-2-0.5-1.7-1.3
	c0.6-1.9-0.2-4.5,1.7-5.8c1.1-0.7,1.9,0.9,2.1,2.1C463,560.4,462.5,562.3,460.6,563.3z M468.9,545.3c-0.2,1.2,0,3.1-1.7,3.1
	c-1.6,0-1.8-1.9-2-3.1c-0.2-2.5,0.1-5,0-7.5c0-1.6,0-3.8-2-4.1c-1.9-0.4-2.7,1.6-3.5,3.1c-2.3,4.4-2.2,9.4-2.5,14.2
	c-0.3,4.2-1,7.6-6,8.1c-2.4,0.2-2.5,2.9-4.2,3.9c-2.7-2.6-2.9-6.4-4.4-9.4c-1-2-2.2-4.1-4.6-4c-2.3,0.1-2.9,2.5-3.7,4.3
	c-2,5-2.2,10.4-2.9,15.7c-0.4,3.4-0.6,7-2.1,10.6c-3.1-2.4-3.3-5.8-4.4-8.8c-1.5-4.1-2.7-8.2-4.8-12c-1.7-3-3.4-2.7-5.3-0.3
	c-3.1,3.8-3.8,8.4-4.2,13.1c-0.5,6.1-1,12.3-1.6,18.4c-0.1,1.2,0.1,3-1.7,3.2c-1.6,0.2-2.1-1.5-2.6-2.6c-2-4.1-2.2-8.7-3.8-12.9
	c-0.8-2.1-1.3-5.2-4-5.2c-2.5-0.1-3.7,2.7-4.6,4.8c-3.2,7.3-3.5,15.2-4.2,23c-0.5,4.9-0.8,9.8-2.9,14.8c-2.4-1.6-2.2-3.8-2.7-5.5
	c-1.2-4-2.7-7.9-5.2-11.3c-1.2-1.7-2.6-4.1-4.9-3.7c-2.3,0.4-2.9,3-3.5,5c-1.3,4.4-1,8.9-1.8,13.4c-0.3,1.7,0.8,4.3-1.4,4.7
	c-1.8,0.3-2.8-2.1-3.6-3.7c-1.2-2.4-2.1-4.9-3.1-7.3c-0.4-0.9-0.5-2.1-1.7-2.2c-1.1-0.1-1.6,1.1-2.1,1.9c-2.7,4.2-3.3,9-4.2,13.8
	c-0.6,3.6-1.3,7.2-2,10.8c-0.2,1.1-0.3,2.6-1.9,2.5c-1.2,0-2-1-2.6-2.1c-1.4-2.7-1.9-5.7-2.6-8.6c-0.6-2.7-1.1-5.6-3.1-7.8
	c-0.7-0.7-1.4-1.6-2.5-1.3c-1.2,0.3-1.2,1.5-1.3,2.4c-0.6,4.5,0.8,8.6,2.3,12.6c1.9,5.1,4.2,10.2,6.2,15.3
	c1.9,4.8-3.1,12.3-8.1,12.3c-2.5,0-1.7-2.1-1.7-3.3c-0.5-7.1-0.8-14.2-1.3-22.4c-2.8,3.8-2,7.3-3,10.4c-0.3,0.8-0.1,1.8-1.2,1.9
	c-1,0.2-1.5-0.6-1.9-1.3c-1.1-2-2.1-4.2-3.3-6.2c-1.2-2-3-3.2-5.4-3c-2.7,0.2-2.7,2.7-3.1,4.5c-0.6,3.1-0.7,6.3-1.1,9.4
	c-0.2,1.3,0.8,3.4-1.4,3.6c-1.7,0.2-2.3-1.6-2.8-3.1c-0.5-1.4-1-2.8-1.7-4.2c-0.6-1.2-1.6-2.3-3.1-2c-1.4,0.4-2,1.7-2,3.1
	c-0.3,4.5,0.1,9,0.6,13.5c0.1,1.4,0.9,3.5-0.8,4c-1.9,0.6-2.6-1.6-3.4-2.9c-0.5-0.9-0.9-1.8-1.4-2.7c-1.2-2-2.1-4.9-4.9-4
	c-2.7,0.8-3.1,3.6-3.2,6.2c0,4,0.7,8-0.1,12c-0.2,1.3-0.1,3.1-1.7,3.2c-1.6,0.1-1.9-1.6-2.4-2.8c-1.2-3.3-2.3-6.6-3.5-9.9
	c-0.8-2.2-2.6-3.7-4.9-3.6c-2.3,0.2-2.4,2.6-2.6,4.3c-0.6,4.8-0.9,9.6-1.4,14.4c-0.1,0.8-0.5,1.5-0.9,2.5c-2.9-2-2.8-5.1-3.9-7.6
	c-0.9-2.1-1.2-5-4-5.1c-2.7-0.1-4.2,2.4-5.3,4.6c-2.2,4.3-2.2,9-2.6,13.6c-0.4,4.1-0.2,8.3-2.4,12.5c-2.6-1.6-2.3-4.5-3.9-6.3
	c-1-1.1-2.2-2.5-3.8-1.8c-1.7,0.7-0.6,2.4-0.5,3.5c0.9,7.4,2,14.9,2.9,22.3c0.1,1.2,0.9,2.8-0.7,3.6c-1.3,0.6-2.6-0.2-3.6-1.1
	c-2.6-2.2-4.5-5.3-8.6-5.4c-1.8-0.1-1.3-2.4-1.7-3.8c-1-3.3-1.8-7.8-5.8-7.8c-3.8,0.1-4.3,4.5-5,7.7c-1.2,6.1-0.8,12.3-1.2,18.4
	c-0.1,1.4,0.3,3.6-1.2,4c-1.9,0.5-2.9-1.6-3.4-3c-1.3-3.4-2.3-6.9-3.5-10.4c-1-2.8-1.6-7.1-4.6-7c-2.9,0.1-3.4,4.4-4.2,7.2
	c-2.3,7.5-2.3,15.5-3.7,23.1c-0.3,1.8,0.4,4.7-2.3,4.8c-2.4,0.1-3.4-2.5-3.9-4.6c-1.1-4.4-1.8-8.8-2.8-13.2c-0.5-2-1.4-4.3-3.6-4.2
	c-2.2,0.1-2,2.8-2.3,4.4c-1.3,8.7-2.4,17.5-3.8,26.2c-0.5,3.4-0.9,8.9-3.7,9c-3.4,0.1-3.2-5.4-4.2-8.5c-1.1-3.3-1.9-6.7-3.5-9.9
	c-0.5-1-0.9-2.4-2.2-2.5c-1.7,0-1.9,1.7-2.3,2.9c-1.6,4.4-1.6,9.2-2,13.8c-0.5,5.6-0.7,11.3-2.7,16.7c-0.4,1-0.4,2.6-2,2.3
	c-1.1-0.2-1.2-1.5-1.4-2.5c-1-4.9-0.9-9.9-1.1-14.9c-0.1-2.9-0.6-5.6-1.7-8.3c-0.5-1-1.2-2.2-2.5-2.1c-1.6,0.1-1.4,1.8-1.5,2.8
	c-0.4,5.3,0.2,10.6,1.2,15.9c1.1,5.9,2,11.8,1.9,17.8c0,1.1,0.2,2.6-1,3.1c-1.2,0.5-2.1-0.6-3-1.4c-3.8-3.3-5.6-7.3-3.9-12.4
	c0.6-1.8,1.3-3.8-0.1-6c-3.3,2-1.6,6.4-4.3,9c-4.4-4.7-1.9-13.3-9.7-16.2c0,5.6,1.7,10.4,2.9,15.3c0.8,3.2,1.5,6.5,2.4,9.7
	c0.9,3.3,0.7,5.9-3.4,6.6c-2.9,0.5-4.4,2.7-5.7,6.8c-2.9-8.6-1.2-16.1-2.6-23.6c-3.1,1.7-0.6,5.8-3.5,6.8c-2.4,0.8-4.5-2-7.4-1.4
	c3.1,5.4,5.9,10.6,5.7,16.8c0,1.5,1.1,3.9-1.3,4.1c-1.7,0.1-1.6-2.1-2-3.5c-0.6-2.2,1-8.4-4.5-2.7c-1.3,1.3-2-0.5-2.6-1.3
	c-2.2-2.7-4.3-5.5-6.4-8.3c-3.8-4.9-8.2-9.3-14.4-11.1c-2.4-0.7-2.9-2-3.6-4.5c-1.1-4.2-0.3-6,4-6.5c2.5-0.3,3.2-1.9,1.5-3.8
	c-3.1-3.5-1.1-4.4,2.2-5c4.1-0.8,8.1-1.7,12.2-2.8c2-0.5,4.9-1.3,4.2-3.7c-0.7-2.3-3.7-1.8-5.8-1.2c-2.7,0.7-5.3,1.9-8,2.6
	c-1.1,0.3-2.8,1.2-3.6-0.3c-0.7-1.4,0.7-2.5,1.4-3.5c2.2-2.7,5.3-4.1,8.5-5c4.3-1.2,8.7-2.1,13.1-3.1c3.4-0.8,6.8-1.7,9.9-3.4
	c1.4-0.8,2.5-1.8,1.9-3.6c-0.5-1.5-1.7-1.9-3.1-2.1c-2.1-0.3-4.2,0.7-6.8-0.4c3.5-3.7,8.1-3.9,12.3-4.8c3.7-0.8,7.6-0.8,11.3-2.1
	c2.9-1,5.1-2.8,5-6c-0.1-2.9,1.5-3.6,3.9-4.2c4.7-1.2,9.3-2.5,13.9-3.9c2.7-0.8,3.6-2.6,1.6-4.8c-2.3-2.6-1.3-3.6,1.5-4.4
	c7.2-2,14.4-4.1,21.6-6.3c2.1-0.6,5.5-0.1,5.7-2.9c0.2-2.8-3.2-2.8-5.7-3.5c2.2-3.8,5.9-4.6,9.2-5.7c5.9-1.9,11.9-3.3,17.8-5.1
	c1.5-0.5,4.3-0.6,3.4-3.2c-0.7-2.2-2.9-1.6-4.8-1.3c-2.6,0.4-7,2.6-7.6,0.1c-0.8-3.3,4-3.5,6.6-4.4c3.9-1.3,8.1-2,12.1-3.2
	c2.2-0.7,5.5-0.8,5.6-4.1c0.1-3.8-3.8-2.2-6-3.6c1.3-3.7,4.6-4.9,7.8-5.9c4.8-1.4,9.7-2.5,14.5-3.8c2.4-0.6,4.4-1.7,4-4.8
	c-0.4-3.1,1.6-4,4.1-4.6c5.7-1.4,11.3-2.9,16.9-4.4c1.5-0.4,3.8-0.1,3.8-2.4c0-2.2-1.5-3.6-3.9-3.8c-0.6-0.1-1.1-0.4-2.3-0.9
	c4.9-3.9,10.6-4.7,15.8-6.7c2.6-1,5.4-1.7,8-2.9c2.9-1.3,6.8-2.2,3.6-7.1c-1.2-1.8,1.3-2.7,2.7-3.4c4.8-2.6,10.2-2.9,15.3-4.5
	c3.6-1.2,7.3-2.2,8.8-6.8c-5.9-0.7-10.3,2.4-15.1,3.9c-2,0.6-4.9,3.2-6.2,0.6c-1.4-2.8,2.3-3.4,4.2-4.3c2.1-1,4-4.7,6.8-1
	c0.1,0.1,0.7-0.1,0.9-0.3c6.9-4.9,15.4-6.3,22.7-10.2c0.5-0.3,0.9-0.9,1.5-1.5c-5.3-3.1-9.2,1.6-14.6,2.3c6.1-6.8,13.3-10.2,20.7-13
	c9-3.5,18.5-5.7,27.9-7.7c1.3-0.3,3.5,0.5,3.2-2c-0.2-1.8-1.9-2-3.5-2.2c-1-0.1-2.5,1.2-3-0.5c-0.4-1.4,1-2.5,2.2-3
	c3.7-1.6,7.5-2.6,11.6-3c3.5-0.4,6.9-1,10.1-2.6c1-0.5,2.1-1.3,1.6-2.8c-0.4-1.3-1.5-0.9-2.5-0.9c-1.3,0-3.1,0.8-3.5-0.8
	c-0.5-1.9,1.6-2.2,2.9-2.8c6.3-2.9,13.2-3.2,19.9-4.6c1.3-0.3,2.7-0.4,3.9-0.9c1.3-0.5,3.4-0.2,3.1-2.5c-0.2-1.8-1.8-2.3-3.2-2.6
	c-1.1-0.2-2.3-0.1-3.5-0.3c-0.6-0.1-1.4-0.3-1.7-0.8c-0.5-0.9,0.3-1.6,0.9-2.1c2.7-2.3,6-2.6,9.3-3.4c2.8-0.6,5.6-0.9,8.2-2
	c4.5-1.8,4.8-4.2,1-7.4c3.8-2.6,8.1-1.6,12.1-1.7c2.2-0.1,4.6,0.8,6.4,0.1c6-2.4,9.4,1,12.7,4.9C467.1,527,470.4,535.4,468.9,545.3z
	 M487.9,543.2c-3.5-1.6-4-4.7-4.4-8.7c3.3,2.1,5.1,4.5,5.7,7.7C489.3,543,488.5,543.4,487.9,543.2z M489.5,529.6
	c5,2.1,7.1,5.1,8.7,10C493.3,537.3,491,534.5,489.5,529.6z M580.7,480.5c-0.6,1.2-1.3,2.5-2.9,2.3c-1.5-0.2-1.3-1.7-1.5-2.8
	c-0.3-1.4,0.3-3.6-1.5-3.8c-1.6-0.2-3.2,1.7-3.4,3.2C570,489.7,563,495,554.6,500c-3.2,1.9-6.2,4.1-9.7,5.5
	c-10.1,4-17.9,11.3-25.9,18.4c-3.6,3.2-7.1,6.5-10.8,9.6c-1.6,1.4-3.3,4.1-5.9,1.9c-2.7-2.3-5.9-4.6-4.6-9.1
	c1.2-3.9,3.6-7.1,5.8-10.4c0.9-1.4,1.6-2.9,2.4-4.4c0.6-1.1,0.5-3,2-3.1c1.8-0.1,1.5,1.9,1.8,3.1c0.9,3.6,2.8,3.5,5.6,2
	c5.8-3.2,9-8.7,12.7-13.8c1.5-2.1,2.7-5.7,6.3-2.3c0.8,0.7,1.5,0.1,2.1-0.5c5.1-5,11.9-7.2,18-10.5c4.6-2.5,8.9-5.3,11.2-10.3
	c0.4-0.9,0.9-2,2-2c5.7-0.3,7.8-4.3,9.4-8.9c0.9-2.5,2.3-2.2,3.2,0c0.9,2.3,1.6,4.7,2.2,6.6C582.2,475.1,582,477.9,580.7,480.5z
	 M545.3,485.5c0.4-2,0.5-4.4,3-5.1c1.1-0.3,1.9,0.8,1.9,1.8c0,2.3-1.2,4-3.1,5.1C545.7,487.4,545.1,486.5,545.3,485.5z M587.3,438.6
	c-1.1,0.5-2,0-2.7-0.8c-2.8-3.2-4.2-1.2-5.2,1.5c-1.1,3.1-1.9,6.4-2.9,9.6c-0.3,0.9-0.6,2.1-1.9,1.9c-1.3-0.2-1-1.5-1.2-2.4
	c-0.3-1.3,0.9-3.4-1.2-3.7c-1.4-0.2-2.6,1.4-3.5,2.6c-2.5,3.2-3.8,7-5.3,10.7c-1.1,2.8-2.1,5.6-4.1,7.9c-0.9,1-2.1,2.5-3,0.4
	c-1.9-4-3.5-1.2-4.6,0.2c-3.3,4.6-6.3,9.4-9.6,14c-1.2,1.8-2.2,4.4-5.4,2.3c-1.8-1.2-2.7,0.8-3.4,1.9c-2.8,3.9-5.4,8-8.2,11.9
	c-2.6,3.7-5.5,7-9.6,9.1c-1.8-1.3,0.2-4.8-2.7-4.8c-2.3,0-4.4,1.4-5.8,3.5c-1.2,1.8-2.5,3.5-3.7,5.3c-0.8,1.1-1.5,2.4-3.2,1.4
	c-4.8-2.9-6.8,0.8-8.4,4c-1.7,3.5-3.1,3.2-5.8,1c-10.7-9.1-19.8-19.8-29.6-29.8c-3.1-3.2-0.2-4.3,1.7-5.6
	c15.6-10.8,31.3-21.5,46.9-32.3c15.8-10.8,31.5-21.8,46-34.4c3.9-3.4,8.3-6.2,13.3-7.7c1.7-0.5,3.6-0.7,5.4-0.5
	c3,0.3,6.5,0.8,7.5,3.9c0.9,2.7-1.7,4.8-3.5,6.7c-1.1,1.2-2.4,2.3-3.7,3.4c-2.5,2.4-4.5,1.9-5.7-1.2c-1.6-4.4-3.7-2.6-5-0.1
	c-1.8,3.3-3.3,7-4.3,10.6c-1.3,4.6-3.5,5.7-8,3.7c-7.9-3.5-8.1-3.3-11.2,4.9c-0.9,2.3-1.7,4.7-2.9,6.9c-3.1,5.8-4.6,6.2-10.4,3.3
	c-3.4-1.7-5.9-1.7-7.3,2.5c-0.8,2.5-2,4.9-3.3,7.3c-2.4,4.5-5.6,7.5-11.2,5.7c-3.4-1.1-5.4,0.4-6.1,3.9c-0.6,3.1-1.3,6.2-2.2,9.2
	c-0.7,2.4-2,3.6-4.8,3c-6.9-1.7-8.5-0.8-10.8,5.9c-0.9,2.7-1.9,4.2-4.9,2.9c-0.5-0.2-1.7-0.1-1.8,0.2c-1,3.1,0.6,5.4,2.7,7.5
	c2,2,4,2.5,5.8-0.1c1.8-2.6,2.1-5.6,2.2-8.6c0.1-3.7,1.5-4.3,4.6-2.3c1.8,1.2,2.8,4.3,5.7,3c3.2-1.5,4.9-4.4,5.7-7.8
	c0.2-0.8,0.4-1.7,0.3-2.5c-0.6-5,0.8-7.1,6.6-7.3c7.1-0.2,11-5.8,12.7-12.3c0.9-3.5,1.9-4.3,5.6-3.1c8,2.6,15.4-3.1,17.3-12.7
	c1.3-6.2,2.3-6.6,7.3-2.3c1.7,1.5,2.9,1,4.4,0.3c5-2.2,6.8-4.9,9.7-14.3c6.5,3.9,11,0.1,15.3-4.1c6.2-6.1,7.1-6,12.2,1.1
	c1,1.4,1.8,2.8,2.6,4.3C593,430.9,590.9,437.1,587.3,438.6z M592.5,458.4c0-5,2.6-14.1,5.4-19.9
	C601.9,443.9,599.7,452.6,592.5,458.4z M613.7,462.9c1-3.5,1.9-6.2,2.8-9.4C620.1,457.9,618.1,460.3,613.7,462.9z"/>
<linearGradient id="SVGID_20_" gradientUnits="userSpaceOnUse" x1="-27.7595" y1="260.2409" x2="1134.7429" y2="260.2409">
	<stop  offset="0" style="stop-color:#F4A975"/>
	<stop  offset="0.5271" style="stop-color:#A03D23"/>
	<stop  offset="1" style="stop-color:#59082D"/>
</linearGradient>
<path class="st19" d="M1132.9,216.6c-9.3-64.3-39.6-117.3-90.3-157.8c-33.8-27-73-43-115.3-51.4c-20.4-4-41-7.6-62-5.8
	C814.7,5.9,768,22.1,725,48.8c-7.2,4.5-15.1,8.1-20.7,15.1c-1.6,2.1-6.6,1.2-5.9,6.1c0.1,0.5-1.1,0-1.7,0c-4.8,0-11.3,7.5-10.3,11.6
	c-5.7-1.9-6.8-1.1-6.5,4.8c0.2,3.5-2.3,5.9-6,5.5c-5.9-0.5-9,2.4-8.7,8.3c0.1,2.2-0.4,3.8-2.6,4.8c-0.9-1.8,1.4-3.4-0.1-4.9
	c-5.9,3.3-11.2,11.3-9.7,15.8c-2.6-1.3-4.7-1.6-5.7,0.7c-1.1,2.9-3.6,4.7-5,7c-2.7,4.5-6.1,8.4-8.9,12.8
	c-15.1,23.6-26.3,49-33.4,76.1c-13.7,51.8-12.4,102.8,8.6,152.7c3,7.2,2.5,9.5-3.6,13.3c1.1,0.9,2.2,1.8,3.3,2.7
	c1.1-2,3.2-3,5.5-3.4c1.8-0.3,2,1.3,2,2.8c-0.3,2.4-1.8,3.4-3.7,3.9c1.4,1.3,2.7,2.8,3.9,4.4c1-0.2,2.1-0.4,3.1-0.6
	c1.6-0.2,2.8-0.5,4.2-1.9c3.4-3.6,1.5-6.4-0.3-9.7c-18.3-33.5-28.3-69.3-28.4-107.5c0-22.6,6.1-44.2,12.8-65.5
	c12.4-39.1,34.4-72.3,62.9-101.4c37.5-38.2,82.3-64.8,132.7-81.9c30-10.2,60.9-14.2,92.6-10.1c20.3,2.7,40.3,7.3,60.5,10.6
	c0.8,0.1,1.8,0.2,2.3,0.8c4.6,5.1,11.3,6.9,16.9,10.4c2.5,1.6,5.2,3.3,5.7,6.6c-1.6,0.7-2.4,0.1-3.4-0.2c-13-4.7-26.4-8.2-39.7-11.7
	c-30.5-8.1-61.3-10.2-92.6-6.3c-31.7,3.9-61.2,13.7-88.3,31c-26.9,17.1-54.4,33.1-76.7,56.4c-3.2,3.3-3.5,0.5-3.6-2.7
	c-27.4,27.4-35.3,64-50.8,96.7c0.5-13.6,8.3-25,12.2-38.7c-4.4,3.3-5.7,7.1-7,10.8c-1.2,3.4-2,7.1-4.6,9.9
	c-4.8,5.2-8.4,11.2-10.9,17.8c-13,33.7-13,68.2-7.7,103.3c1.5,9.8,4.7,18.9,8.5,27.8c-0.2,2.6,10.9,27.7,23.1,48.7
	c6,10.4,13.2,19.8,18.3,25c6,6.2,12,12.3,17.4,16.3c13.9,10.3,51.6,29,79.1,36.2c28.5,7.5,57.6,8.3,86.8,6.8c6.3-0.3,12.5-2,18-5.6
	c-7.9,0-15.7,0.4-23.5,0.7c-14.3,0.7-28.6,1.2-42.9-1.5c-5-0.9-5.2-1.3-2-5.4c1.6-2.1,3.4-4.1,3.3-7.1c-0.3-12.2,3.9-23.2,8.9-34
	c11.5-24.6,23.4-49,36.2-72.9c23.6-43.8,49.5-86,78.5-126.4c3.1-4.4,6.3-8.7,9.4-13.1c-30.8,37.4-57.4,77.6-81.1,119.8
	c-23.6,42.1-43.6,86-61.1,132.5c-1.8-6.4-1.4-11.4-1.2-16.3c1.2-21.9,9-41.8,18.3-61.3c17-35.9,36.4-70.4,59-103.1
	c20.3-29.5,42.2-57.8,65.4-85.1c14.1-16.6,28.3-33.2,42.8-49.6c-4.3,2.5-7.9,6-10.9,10c-10.7,14.1-23.8,25.5-39.1,34.5
	c-9.6,5.7-17.3,13.5-24.9,21.5c-17.2,18-32,38-47.4,57.4c-5.5,6.9-12.4,13.1-16.2,20.8c-9.3,19-21,36.3-32.8,53.6
	c-13.4,19.7-26.2,39.8-33.4,62.8c-2.5,8.1-4.5,16.2-5,25.2c4.9-1.3,5.5-4.9,5.6-8.3c0.1-3.9,1.1-7.5,2.3-11.2
	c2.6-7.8,5.8-15.3,9.2-22.7c12-25.9,28.5-48.8,45.5-71.5c8.3-11.1,16.8-22.2,25.4-33.6c0.8,2.1-0.3,3.3-0.9,4.6
	c-7.8,16.6-16.7,32.6-26,48.4c-15.9,26.9-33,53.2-47.5,81c-6.1,11.8-11.9,23.7-15.9,36.5c14.2-17.6,21.3-39.4,34-57.9
	c-0.7,5.8-2.5,11.3-4.1,16.9c-4.4,15.3-10,30.5-9.5,46.8c0.1,4.4-1.5,5-5.2,4.2c-29-6.4-57.2-15.2-82.7-30.9c-2.7-1.8-5.8-4-9.3-6.8
	c-13.3-10.5-32.7-28.2-49.8-61.7c-5.4-13.2-8.8-27-10.7-41.3c-0.2-1.4-1.4-3.7,1-4.2c2-0.4,3.3,1.4,3.8,3.3c0.5,1.8,0.8,3.6,1.2,5.3
	c0.4,1.7,0.3,3.7,2.6,4.5c1.3-1.7,0.4-3.5,0.3-5.3c-0.7-11.3-3.6-22.4-3.4-33.8c0-1.4-0.7-3.3,1.4-3.7c1.8-0.3,3.2,0.8,4.1,2.3
	c0.8,1.5,1.3,3,2.3,5.3c2.9-22.7,8-43.8,15.4-64.4c11.6-31.8,27.2-61.1,53.7-83.4c19.3-16.2,38.3-32.6,61.7-43
	c10.8-4.8,21.4-10,32.1-15c1.5-0.7,3.2-1.3,4.7-3.5c-4.6,1.6-8.3,2.9-12,4.2c-3.7,1.3-7.4,2.6-11.1,3.9c-0.1-0.4-0.2-0.8-0.3-1.2
	c38-18.6,78.2-29.9,120-36.2c-36.2-2.8-69.3,10.2-103.1,20.1c3.9-5.4,9.8-7,15.6-8.9c9-2.9,18.7-4.2,26.8-9.3
	c5.5-3.4,11.3-4.6,17.4-5.5C860,46.4,866,46,871.9,45c5.8-0.9,11.7-1.1,17.2-3.2c-2.4-0.3-4.7-0.3-7-0.3c-1.6,0-3-0.4-3.4-2.2
	c-0.4-1.6-0.2-3.2,1.2-4.1c3.4-2.2,7.4-1.5,11.2-1.6c2.4,0,2.8,2.5,3.4,4.4c0.4,1.2,1,2.3,2.4,2.1c1.7-0.2,2.2-1.6,2-3
	c-0.4-2.6-1.1-5.2-1.6-7.8c-0.6-2.9,0.8-3.2,3.1-2.3c2.2,0.9,3.3,2.8,4.2,4.7c1.1,2.4,2,4.9,3.1,7.4c0.6,1.4,1.5,2.7,3.3,2.7
	c1.9-0.1,3-1.3,3.6-3c0.4-1.3,0.5-2.6,0.9-3.9c0.7-2.2,0.6-5.3,3.3-5.6c3.1-0.3,3.5,3,4.5,5.2c1.1,2.4,1.9,5,2.9,7.4
	c0.5,1.3,1.4,2.4,3,2.3c1.7-0.1,2.8-1.2,3.2-2.7c0.6-2.1,0.9-4.2,1.5-6.3c0.2-0.8,0.6-1.9,1.2-2c1.1-0.3,1.7,0.7,2.2,1.6
	c1.6,3,1.3,6.5,2.3,9.7c0.8,2.8,1.8,5.7,5.1,6c3.1,0.3,4.1-2.5,4.9-4.9c1.3-3.6,3.6-4,6.7-2.3c3.3,1.9,6.6,3.8,10,5.7
	c1.1,0.6,3,1.8,3.4,0.2c1.1-3.7,3-1.6,4.4-1c13.7,6,26.1,14,37.6,23.4c21.6,17.8,38.8,39.3,54.2,62.4c1,1.5,2,3.1,3.1,4.5
	c1,1.3,1,3.4,3.3,4.1c-2.8-12-7.2-22.9-13.2-33.1c-12.5-21-30-37.2-49.4-51.7c-7.4-5.5-15-10.8-22.5-16.1c5.6,1,10.1,4.1,14.5,7.2
	c4.5,3.2,8.9,6.5,13.2,9.9c8.4,6.6,10.1,7.6,13.9,7.6c-0.6-0.9-1.7-1.4-2.4-2.3c-1.1-1.3-4.7-1.8-2.8-4.1c1.6-1.8,3.3,1,4.9,2
	c0.8,0.5,1.6,1.3,2.3,1.9c16,14.2,28.9,30.9,39.7,49.2c12.7,21.5,21.2,44.4,22.4,69.7c1.6,34.3-2.6,67.9-12.5,100.6
	c-12.6,41.2-35.4,76.2-65.9,106.3c-29.6,29.1-64.3,50.6-102.4,66.6c-3.2,1.4-6.2,2.6-7.9,6.2c-1.3,2.8-4.2,3.8-7.3,2.4
	c-2.5-1.2-4.8-0.6-7.2,0.2c-14.9,5-30,8.8-45.7,10.5c-46.3,4.9-89.7-1.8-130.1-20.6c-0.7-0.4-1.4-0.7-2.3-1.1
	c-11.3-5.4-22.4-11.8-33.2-19.1c-1-0.7-2-1.4-3-2c-12.6-8.5-22.4-16.1-22.4-16.1c0.6-1.2-0.5-1.8-1.1-2.5c-2.4-2.5-4.9-4.9-7.9-8.1
	c0,6.9,2,10.6,5.6,11.4c-3,1.3-6.2,4.2-0.9,10.8c3.2,4.1,11.9,11.8,21.4,19.7c9.9,9,20.3,17.3,31.1,25c0.2,0.2,0.3,0.3,0.3,0.3
	s0,0,0,0c15.8,11.1,32.7,20.7,51.1,28.3c41.2,16.9,83.9,20.4,127.5,15.6c24.3-2.7,47.4-10.4,70.3-18.7c38.5-13.9,73.4-34,103.4-62
	c36.9-34.6,60.6-77,72.3-126C1133,279.8,1137.5,248.3,1132.9,216.6z M926.9,181.6c-21,25.2-41.1,51-60.7,77.3
	C881.5,229.3,900.8,202.8,926.9,181.6z M815.2,314c15.6-29.4,34.4-56.4,58.8-79.3C857.9,263.7,833.8,286.8,815.2,314z M624.2,246.4
	c-2.4-5.1-0.6-9.6,1.5-14.1C627.6,237.3,625.5,241.8,624.2,246.4z M635.2,234.9c-0.1,0.5-1.1,1.2-1.3,1.1c-2.6-1.4-3.2-3.7-3.3-6.8
	C633.6,230.3,635.6,231.7,635.2,234.9z M633.8,201.5c4.8,7.8,2.3,16.1,4.4,24.3C630.7,221.7,629.5,214.5,633.8,201.5z M644,191.6
	c-2-4.8-3.4-8.6-1.2-13.1C645.8,182.5,645.8,186.4,644,191.6z M695.5,103.6c1.3-1.3,2.5-2.7,3.9-3.9c1.2-1,2.1-3.5,3.8-2.7
	c2.1,0.9,1.6,3.5,1.3,5.4c-0.6,4.4-1.5,8.7-2.3,13.8c-3.1-3.3-4.3-7.4-7.4-10C693.9,105.4,694.8,104.3,695.5,103.6z M666.8,136
	c0.9-0.1,1.5,0.6,1.8,1.4c1.2,2.9,0.7,5.7-0.5,8.8c-2.3-2.6-1.9-5.6-2.3-8.3C665.7,137.2,665.7,136.1,666.8,136z M652.4,177.2
	c-2.9-4.5-3.5-8.1-3.2-11.9c0.1-1,0.3-2.2,1.5-2.2c1.2-0.1,1.5,1.2,1.7,2.1C653.2,168.7,652.8,172.3,652.4,177.2z M659.2,185.7
	c-1.6-3.5-2.3-6.8-1.6-11.4C660.8,178.3,663.6,181.4,659.2,185.7z M660.7,163.2c-4.6-5.1-5.1-10.9-3.7-17.1c0.2-1.1,0.5-2.6,1.9-2.6
	c1.2,0,1.8,1.4,2.1,2.5C662.5,151.7,661.4,157.4,660.7,163.2z M667.1,172.5c-1.9,0.2-1.8-2.2-1.4-3.5c0.4-1.8-0.9-4.6,1.7-5.1
	c1.9-0.3,2.3,2,2.3,3.9C669.1,169.4,669.4,172.2,667.1,172.5z M677,157.7c0,0.7-0.4,1.3-1.2,1.4c-1,0.1-1.4-0.8-1.5-1.6
	c-0.3-3.1-0.4-6.1,0.7-10C677.4,151.2,677,154.5,677,157.7z M687.1,148.5c-1.2,1-2.7,1.8-3.9,0.2c-4.3-5.5-8.5-11-9.1-18.4
	c-0.2-4.1,1.3-7.2,4.9-9.1c1-0.6,3.2-0.6,2.7,0.4c-1.7,3.4,1.2,2,2.2,2.9c4.2,4.1,7.1,9.2,8.3,14.9
	C693,143.6,689.9,146.1,687.1,148.5z M683.9,118.7c-2-3.1,2.8-5.7,4.9-7.6c2.2-1.8,2.9,1.8,3.4,3.3c2.2,5.9,2.7,12.1,3,19.7
	C689.6,129.4,687.1,123.7,683.9,118.7z M756.5,80.2c2.1-1,3-3,3.8-5c0.9-2.3,1.6-4.7,2.6-7c0.6-1.3,1-3.9,3.1-2.9
	c1.7,0.7,1.2,2.9,0.8,4.5c-0.7,3-2.5,5.4-4,8c-1.3,2.3-2.8,4.5-2,7.4c0.7,2.9-2.1,3.5-3.6,4.7c-13,9.9-26.1,19.5-39.1,29.4
	c-5.2,3.9-10.1,8.2-14.9,12.5c-2.4,2.2-3.7,2.4-4.9-0.9c-1.9-5.1-2.9-10.5-4.1-16.5c3.8,1.8,4.3,5.1,5.9,7.6
	c0.6,0.9,0.5,2.6,2.1,2.4c1.2-0.1,2.1-1.2,2.5-2.3c0.7-2,1.2-4.1,1.6-6.2c0.3-1.8,0.1-3.7,0.2-5.5c0.1-9.2,0.1-9.2,9-9.6
	c1,0,1.9-0.2,3.5-0.3c-2.5-3.4-5.9-2.9-8.6-4c-1.8-0.7-3.3-1.4-1.3-3.4c17.5-17.3,35.9-33.2,58.6-43.3c0.2-0.1,0.6,0.2,1.3,0.4
	c-5.6,5.2-10.4,10.9-13,18c-1.2,3.3-2.2,6.6-2.4,10.1C753.3,80.9,754.5,81.2,756.5,80.2z M791.1,61.7c-5.3,3.1-10.8,5.8-16.1,8.8
	c-0.9,0.5-1.7,0.6-2-0.4c-0.7-3,1.4-4.9,2.8-7.1c1-1.7,2.1-1.6,3.6-0.6c2.8,1.8,4.6-0.2,6.4-2c2.1-2.1,3.8-4.6,6.8-5.6
	c1.4-0.5,2.7-0.8,2.7,1.3C794.4,58.5,793.1,60.5,791.1,61.7z M864,30.3c1.2-0.1,2.3,0.6,2.4,1.9c0.2,2.1-1.4,1.8-2.7,1.9
	c-1.1-0.1-2.7,0.5-2.8-1.1C860.9,31.2,862.4,30.4,864,30.3z M858.8,27.8c0.8-0.4,2.7,0.2,2,1c-1.7,2.3-0.6,6.7-5.7,6.7
	c-4.8,0-9.5,2.7-15.6,1.7C845.5,31.7,852.7,31,858.8,27.8z M808,42.7c0.1-4.1,8.1-10.7,12.3-10.2c1.3,0.2,1.6,0.9,1.6,2
	c-0.2,3-9,10.2-12.3,10.1C808.2,44.6,808,43.9,808,42.7z M868.3,42.5c-14.6,1.4-28.9,3.9-43.1,7.8c-5.2,1.4-10.5,2.7-15.8,4
	c1.9-3.9,5-5.6,8.4-7c7.3-2.9,15-4.1,22.8-5.2c7.9-1.2,15.8-2.1,23.4-4.6c1.5-0.5,2.9-0.4,4.4,0c1.7,0.5,2.5,1.8,2.7,3.3
	C871.4,42.9,869.5,42.4,868.3,42.5z M873.6,33c-1.6,0-6.4-5.1-5.6-6.4c1.7-2.8,5.1-2.2,7.8-2.8c1.4-0.3,2.7-0.1,2.9,2.2
	C875.7,27.3,878.6,32.9,873.6,33z M883.2,33c-1.9,0.2-5,0.9-5-2.5c0-3.5,2.5-5.2,5.7-5.5c3.1,0.2,5.9,0.9,5.7,4.4
	C889.6,33.4,885.8,32.6,883.2,33z M913.7,30.6c-0.6,1.8,0.2,5.4-2.5,5c-2.6-0.3-3.6-3.7-3.8-6.4c-0.2-2.2,1.8-1.8,3.2-1.9
	C912.5,27.6,914.6,27.8,913.7,30.6z M929.1,36c-2,0.1-2.5-1.8-2.7-3.4c-0.2-1.4,0.1-2.7,2-2.5c1.4,0.2,2.9,0.6,3,2.6
	C930.8,33.9,930.9,35.9,929.1,36z M948.7,43.3c-0.5,1.5-1.3,2.8-3.1,2.8c-1.9,0-2.6-1.5-2.9-2.9c-0.5-2.4-0.8-4.9-1.1-7.4
	c-0.2-1.5,0.6-2.4,2-2.1c2.9,0.8,5.7,1.9,6,5.5C949.2,40.7,949.1,42,948.7,43.3z M986.7,34.8c-1-0.8-2.6-1.7-1.9-3.1
	c0.7-1.4,2.5-0.9,3.6-0.2c3.5,2.1,6.9,4.3,10.3,6.5C993.9,38.8,990.1,37.4,986.7,34.8z M866.9,493.3c-0.3-0.1-1.1-0.2-1.4-0.7
	c-0.6-0.8,0-1.6,0.8-2.1c0.9-0.5,1.8-0.9,2.8-1c14.1-1.9,26.5-8.5,39-14.8c0.7-0.4,1.4-0.9,2.2-1.3c1.5-0.7,3.4-1.9,4.6-0.4
	c1.5,1.9-0.7,3.3-1.8,4.5c-4.4,4.7-10.4,6.5-16.1,8.8C887.3,490.1,876.8,489.7,866.9,493.3z M914.3,487.2c-2.8,1.8-5.1,4.3-9,4.6
	c-4.7,0.4-8.8,3.6-14.9,3.1c3.2-3.1,6.3-3.8,9-5.1c4.2-1.9,8.3-4,12.5-6c1.1-0.5,2.2-1.2,3.1,0C916.1,485.1,915.5,486.4,914.3,487.2
	z M852.2,487.9c21.7-11.1,44.9-17.9,68.2-24.8C899.8,477.3,876.7,484.3,852.2,487.9z M931.8,463.9c-0.8,0.3-1.7,0.7-2.3-0.1
	c-0.8-1,0.1-1.9,0.8-2.5c3-3,6.8-3.4,10.9-3.4C938.6,460.9,935.4,462.8,931.8,463.9z M1020.3,411.8c0.9,2.8-1.3,3.7-3.2,4.8
	c-5,2.9-9.7,6.2-14.7,10.5c0.5-5.4,4.3-7.5,7-10.3c3.7-3.8,7.4-7.6,6.1-13.6C1020.5,404.2,1019.3,408.7,1020.3,411.8z M1016.2,396.6
	c1.5,2.9-1.2,4.5-0.8,6.6c-4.8,4.2-9.1,9.3-16.8,10.8C1003.6,406.4,1011,402.8,1016.2,396.6z M992.3,470c-1,0.1-2.1,0.2-2.5-1
	c-0.4-1.2,0.6-1.9,1.4-2.4c5.2-3.5,10.3-6.9,16-10.6C1005.5,462.2,997.4,469.6,992.3,470z M1019.3,424c-9.3,7.2-18.2,15-28.5,20.9
	c-5.1,2.9-10.3,5.8-17.5,7c5.9-5.7,11.8-9.2,17.7-12.8c9-5.6,18.2-10.9,26.1-18.2c0.8-0.7,2-2.5,3.2-0.8
	C1021.3,421.5,1020.7,423,1019.3,424z M1030.2,387.7c1-0.7,2-1.5,2.9,0c2,3.1,3.6,6.4,4.1,10.1c0.1,1.2,0,2.8-1.5,2.6
	c-3.9-0.5-5.6-3.7-7.4-6.8C1026.9,390.9,1028.2,389.2,1030.2,387.7z M1034.1,430.5c-1,0.6-2.3,1.2-3.1,0.1c-0.6-0.8,0.1-1.9,0.7-2.7
	c2.6-4,6.5-6.5,10.2-9.4C1040.7,423.4,1038.7,427.8,1034.1,430.5z M1045.8,391.1c-2.7-2.3-1-5.3-1.2-7.9c-0.2-1.8,0.8-4.6-2-4.7
	c-2.3-0.1-2,2.5-2.3,4.3c-0.2,1.3-0.2,2.6-1.2,3.7c-3.6-3.2-1.9-13.4,2.5-15.2c0.8-0.3,1.2,0,1.7,0.5
	C1046,374.7,1047.8,387.5,1045.8,391.1z M1048.9,360.3c0.5-0.9,1.1-1.8,2.2-1.9c1.2-0.1,1.6,1.1,2,1.9c1.6,3.5,2,7.4,2.4,11.1
	c-0.3,1.4,0.6,3.4-1.1,4c-1.6,0.6-2.7-0.9-3.7-2.1C1047.7,370.1,1046.9,363.8,1048.9,360.3z M1052.7,383.9c-1.8-0.3-2.1-2.4-2.2-4
	c-0.1-1.3,0.9-1.6,2.2-1.5c1.2,0.6,3.1,0.8,2.9,2.7C1055.4,382.6,1054.2,384.2,1052.7,383.9z M1061.9,378c-2-4.4-3.7-8.8-2.7-13.7
	C1061.9,368.5,1063.2,373,1061.9,378z M1064.6,358c-0.2,2.1-1.2,1.9-2.7,1.2c-4.9-2.7-5.2-15.8-0.6-18.7c1.5-0.9,2.1,0.1,2.7,1.1
	c1.4,2,1.6,4.3,1.6,6.6C1065.3,351.4,1064.9,354.7,1064.6,358z M1072,342.6c-1.5-0.3-3.6,0.2-4.3-1.7c-0.6-1.5-0.7-3.2-1-4.7
	c0.4-1.4,0.7-2.7,1.1-4c0.3-0.8,0.7-1.6,1.6-1.7c1.2-0.1,1.6,0.9,2.1,1.7c1.3,2.7,1.1,5.8,1.7,8.7
	C1073.5,341.8,1073,342.7,1072,342.6z M1068.6,320.1c1.7-8.8,7.4-15.6,11-24.1C1080.7,301.2,1074.9,313.6,1068.6,320.1z M1093,294.9
	c-2,0-2.4-2-2.1-3.7c0.2-1.3-0.3-3.7,1.5-3.7c2.5,0,1.7,2.6,2.1,4.1C1094.1,293,1094.9,295,1093,294.9z M1101,280.1
	c-2.4,0.4-3.4-2.7-4.2-4.8c-1.4-3.7-1.1-7.5-0.4-11.3c0.2-0.8,0.4-1.7,1.4-1.9c0.9-0.2,1.4,0.7,1.9,1.3c1.4,1.8,2.8,7.3,2.8,11.4
	C1102.3,276.5,1102.8,279.8,1101,280.1z"/>
</svg>
